{"glyphs":{"0":{"ha":781,"x_min":43,"x_max":736,"o":"m 319 -15 q 111 67 179 -15 q 43 304 43 150 q 77 576 43 438 q 201 815 111 714 q 444 917 290 917 q 736 601 736 917 q 702 335 736 475 q 575 90 668 196 q 319 -15 482 -15 m 351 69 q 454 109 417 69 q 509 214 492 149 q 540 389 526 279 q 553 511 547 442 q 560 625 560 581 q 551 741 560 697 q 513 809 542 785 q 431 833 485 833 q 329 794 367 833 q 274 690 292 754 q 239 517 256 626 q 219 276 219 415 q 228 161 219 204 q 266 94 238 118 q 351 69 294 69 z "},"1":{"ha":546,"x_min":-11,"x_max":494,"o":"m 172 93 l 267 772 l 67 772 l 67 844 l 353 904 l 442 904 l 328 93 l 494 74 l 485 0 l -11 0 l -3 71 l 172 93 z "},"2":{"ha":679,"x_min":-39,"x_max":615,"o":"m -39 75 l 263 374 q 383 508 343 453 q 434 602 422 564 q 446 683 446 640 q 410 767 446 735 q 310 799 375 799 q 208 776 253 799 q 113 706 164 753 l 71 739 q 189 860 110 804 q 375 917 268 917 q 551 863 488 917 q 615 725 615 810 q 553 531 615 626 q 336 299 490 436 l 133 118 l 136 113 l 151 118 l 478 117 l 533 257 l 608 244 l 567 0 l -4 0 l -39 75 z "},"3":{"ha":622,"x_min":-33,"x_max":578,"o":"m 210 -15 q -33 110 -33 -15 q -20 158 -33 128 q 10 213 -7 189 q 36 238 26 238 l 90 238 l 101 104 q 148 85 113 93 q 224 78 183 78 q 399 269 399 78 q 356 387 399 349 q 228 425 314 425 l 176 425 l 154 465 l 154 514 l 175 514 q 351 564 286 515 q 417 693 417 613 q 384 775 417 749 q 285 801 351 801 q 194 784 239 801 q 114 733 150 767 l 71 767 q 186 873 107 829 q 339 917 265 917 q 516 867 454 917 q 578 722 578 817 q 532 588 578 650 q 410 496 486 526 l 410 488 q 524 415 483 465 q 565 297 565 365 q 520 136 565 207 q 394 25 475 65 q 210 -15 313 -15 z "},"4":{"ha":707,"x_min":-21,"x_max":646,"o":"m 335 0 l 367 224 l 13 224 l -21 318 l 500 935 l 610 906 l 532 329 l 646 329 l 633 224 l 518 224 l 488 0 l 335 0 m 129 329 l 379 329 l 432 699 l 436 717 l 432 717 l 421 699 l 125 339 l 129 329 z "},"5":{"ha":632,"x_min":-24,"x_max":636,"o":"m 218 -15 q 40 15 104 -15 q -24 111 -24 46 q -8 172 -24 143 q 25 219 7 200 q 46 238 43 238 l 99 238 l 110 104 q 124 94 110 103 q 166 77 138 85 q 239 69 194 69 q 366 123 326 69 q 406 282 406 176 q 378 390 406 347 q 284 461 351 433 q 94 503 217 489 l 171 900 l 521 900 l 550 967 l 636 967 l 606 768 l 243 768 l 215 589 q 482 505 390 567 q 574 322 574 443 q 523 139 574 215 q 390 24 472 63 q 218 -15 308 -15 z "},"6":{"ha":722,"x_min":38,"x_max":672,"o":"m 329 -15 q 114 64 190 -15 q 38 307 38 143 q 116 595 38 458 q 338 819 194 732 q 667 913 482 906 l 672 853 q 385 725 492 817 q 239 499 279 633 q 265 517 239 500 q 331 547 290 533 q 422 561 372 561 q 589 503 529 561 q 649 321 649 444 q 610 158 649 236 q 498 33 571 81 q 329 -15 425 -15 m 340 75 q 453 126 421 75 q 486 288 486 178 q 453 415 486 376 q 346 454 421 454 q 267 442 300 454 q 219 419 235 431 q 207 283 207 372 q 238 128 207 182 q 340 75 269 75 z "},"7":{"ha":617,"x_min":58,"x_max":649,"o":"m 536 768 l 165 768 l 139 656 l 58 656 l 58 900 l 649 900 l 649 768 l 183 0 l 72 0 l 72 68 l 536 751 l 536 768 z "},"8":{"ha":679,"x_min":29,"x_max":640,"o":"m 289 -15 q 92 38 156 -15 q 29 174 29 92 q 92 331 29 260 q 250 451 154 403 q 147 561 183 507 q 111 676 111 615 q 153 803 111 749 q 262 888 194 858 q 404 917 329 917 q 580 868 519 917 q 640 739 640 819 q 586 599 640 661 q 450 493 532 536 q 540 413 510 443 q 589 342 571 382 q 607 247 607 303 q 569 117 607 176 q 458 21 531 57 q 289 -15 386 -15 m 400 533 q 475 615 446 568 q 504 715 504 661 q 476 799 504 768 q 383 829 447 829 q 294 801 326 829 q 261 725 261 774 q 296 631 261 675 q 400 533 331 588 m 318 69 q 428 104 390 69 q 465 203 465 139 q 435 285 465 249 q 321 393 406 321 l 299 413 q 208 311 233 367 q 182 192 182 256 q 215 102 182 135 q 318 69 247 69 z "},"9":{"ha":710,"x_min":47,"x_max":676,"o":"m 176 -14 q 47 -6 90 -14 l 57 58 q 119 54 90 54 q 356 137 263 54 q 483 390 450 219 l 479 392 q 467 376 475 382 q 397 332 440 351 q 292 313 353 313 q 174 343 226 313 q 90 432 121 374 q 60 571 60 490 q 101 746 60 667 q 215 871 142 825 q 376 917 288 917 q 599 830 522 917 q 676 569 676 743 q 613 270 676 403 q 436 62 550 138 q 176 -14 322 -14 m 365 417 q 441 433 408 417 q 492 464 474 449 q 506 644 506 543 q 472 790 506 746 q 367 833 438 833 q 265 775 301 833 q 229 601 229 717 q 263 459 229 501 q 365 417 297 417 z "},"\u0000":{"ha":0,"x_min":0,"x_max":0,"o":""},"\r":{"ha":218,"x_min":0,"x_max":0,"o":""}," ":{"ha":218,"x_min":0,"x_max":0,"o":""},"A":{"ha":739,"x_min":-76,"x_max":738,"o":"m -67 71 l 11 90 l 386 908 l 490 908 l 650 89 l 738 71 l 732 0 l 385 0 l 390 71 l 482 86 l 482 106 l 457 251 l 185 251 l 118 101 l 118 88 l 221 71 l 213 0 l -76 0 l -67 71 m 442 338 l 388 660 l 385 694 l 381 693 l 368 657 l 224 338 l 442 338 z "},"Á":{"ha":739,"x_min":-76,"x_max":738,"o":"m 0 0 m -67 71 l 11 90 l 386 908 l 490 908 l 650 89 l 738 71 l 732 0 l 385 0 l 390 71 l 482 86 l 482 106 l 457 251 l 185 251 l 118 101 l 118 88 l 221 71 l 213 0 l -76 0 l -67 71 m 442 338 l 388 660 l 385 694 l 381 693 l 368 657 l 224 338 l 442 338 m 292 999 l 543 1164 q 594 1081 594 1135 q 581 1043 594 1058 q 529 1014 567 1028 l 325 938 l 292 999 z "},"Ă":{"ha":739,"x_min":-76,"x_max":738,"o":"m 686 1129 q 590 1010 651 1068 q 425 951 528 951 q 335 970 378 951 q 268 1020 293 989 q 243 1085 243 1051 q 267 1124 243 1104 q 328 1156 292 1143 q 449 1069 371 1069 q 560 1095 514 1069 q 647 1160 607 1121 l 686 1129 m -67 71 l 11 90 l 386 908 l 490 908 l 650 89 l 738 71 l 732 0 l 385 0 l 390 71 l 482 86 l 482 106 l 457 251 l 185 251 l 118 101 l 118 88 l 221 71 l 213 0 l -76 0 l -67 71 m 442 338 l 388 660 l 385 694 l 381 693 l 368 657 l 224 338 l 442 338 z "},"Ắ":{"ha":739,"x_min":-76,"x_max":738,"o":"m 0 0 m -67 71 l 11 90 l 386 908 l 490 908 l 650 89 l 738 71 l 732 0 l 385 0 l 390 71 l 482 86 l 482 106 l 457 251 l 185 251 l 118 101 l 118 88 l 221 71 l 213 0 l -76 0 l -67 71 m 442 338 l 388 660 l 385 694 l 381 693 l 368 657 l 224 338 l 442 338 m 696 1129 q 599 1010 661 1068 q 435 951 538 951 q 346 970 388 951 q 279 1020 304 989 q 254 1085 254 1051 q 278 1123 254 1104 q 338 1156 303 1142 q 458 1069 383 1069 q 657 1160 567 1069 l 696 1129 m 413 1204 l 664 1369 q 715 1286 715 1340 q 701 1249 715 1264 q 650 1219 688 1233 l 446 1143 l 413 1204 z "},"Ặ":{"ha":739,"x_min":-76,"x_max":738,"o":"m 0 0 m -67 71 l 11 90 l 386 908 l 490 908 l 650 89 l 738 71 l 732 0 l 385 0 l 390 71 l 482 86 l 482 106 l 457 251 l 185 251 l 118 101 l 118 88 l 221 71 l 213 0 l -76 0 l -67 71 m 442 338 l 388 660 l 385 694 l 381 693 l 368 657 l 224 338 l 442 338 m 290 -256 q 227 -230 251 -256 q 203 -167 203 -204 q 230 -89 203 -122 q 306 -56 257 -56 q 369 -81 344 -56 q 393 -147 393 -106 q 366 -223 393 -190 q 290 -256 339 -256 m 690 1129 q 594 1010 656 1068 q 429 951 532 951 q 340 970 382 951 q 274 1020 299 989 q 249 1085 249 1051 q 273 1123 249 1104 q 332 1156 297 1142 q 453 1069 378 1069 q 651 1160 561 1069 l 690 1129 z "},"Ằ":{"ha":739,"x_min":-76,"x_max":738,"o":"m 0 0 m -67 71 l 11 90 l 386 908 l 490 908 l 650 89 l 738 71 l 732 0 l 385 0 l 390 71 l 482 86 l 482 106 l 457 251 l 185 251 l 118 101 l 118 88 l 221 71 l 213 0 l -76 0 l -67 71 m 442 338 l 388 660 l 385 694 l 381 693 l 368 657 l 224 338 l 442 338 m 704 1129 q 608 1010 669 1068 q 443 951 546 951 q 354 970 396 951 q 288 1020 313 989 q 263 1085 263 1051 q 287 1123 263 1104 q 346 1156 311 1142 q 467 1069 392 1069 q 665 1160 575 1069 l 704 1129 m 357 1219 q 306 1247 321 1232 q 292 1285 292 1263 q 343 1369 292 1342 l 594 1204 l 563 1143 l 357 1219 z "},"Ẳ":{"ha":739,"x_min":-76,"x_max":738,"o":"m 0 0 m -67 71 l 11 90 l 386 908 l 490 908 l 650 89 l 738 71 l 732 0 l 385 0 l 390 71 l 482 86 l 482 106 l 457 251 l 185 251 l 118 101 l 118 88 l 221 71 l 213 0 l -76 0 l -67 71 m 442 338 l 388 660 l 385 694 l 381 693 l 368 657 l 224 338 l 442 338 m 704 1129 q 608 1010 669 1068 q 443 951 546 951 q 354 970 396 951 q 288 1020 313 989 q 263 1085 263 1051 q 287 1123 263 1104 q 346 1156 311 1142 q 467 1069 392 1069 q 665 1160 575 1069 l 704 1129 m 451 1129 q 444 1156 444 1146 q 456 1185 444 1174 q 506 1210 468 1196 q 551 1250 551 1228 q 501 1276 551 1276 q 417 1265 458 1276 q 401 1310 401 1288 q 508 1363 401 1363 q 632 1339 588 1363 q 676 1271 676 1315 q 648 1210 676 1236 q 576 1171 619 1185 q 547 1156 554 1163 q 539 1135 540 1149 l 451 1129 z "},"Ẵ":{"ha":739,"x_min":-76,"x_max":746,"o":"m 283 1303 q 371 1351 328 1351 q 468 1331 406 1351 l 594 1294 l 708 1339 l 746 1303 l 682 1239 q 594 1190 636 1190 q 548 1197 574 1190 q 497 1210 522 1203 l 371 1247 l 258 1203 l 221 1239 l 283 1303 m 679 1129 q 583 1010 644 1068 q 418 951 521 951 q 329 970 371 951 q 263 1020 288 989 q 238 1085 238 1051 q 262 1123 238 1104 q 321 1156 286 1142 q 442 1069 367 1069 q 640 1160 550 1069 l 679 1129 m -67 71 l 11 90 l 386 908 l 490 908 l 650 89 l 738 71 l 732 0 l 385 0 l 390 71 l 482 86 l 482 106 l 457 251 l 185 251 l 118 101 l 118 88 l 221 71 l 213 0 l -76 0 l -67 71 m 442 338 l 388 660 l 385 694 l 381 693 l 368 657 l 224 338 l 442 338 z "},"Ǎ":{"ha":739,"x_min":-76,"x_max":738,"o":"m 0 0 m -67 71 l 11 90 l 386 908 l 490 908 l 650 89 l 738 71 l 732 0 l 385 0 l 390 71 l 482 86 l 482 106 l 457 251 l 185 251 l 118 101 l 118 88 l 221 71 l 213 0 l -76 0 l -67 71 m 442 338 l 388 660 l 385 694 l 381 693 l 368 657 l 224 338 l 442 338 m 454 943 q 426 956 443 943 q 395 983 410 969 q 376 1001 381 997 l 269 1101 l 322 1164 l 471 1075 l 633 1163 l 668 1111 l 556 1015 q 487 959 508 975 q 454 943 465 943 z "},"Â":{"ha":739,"x_min":-76,"x_max":738,"o":"m 356 1092 l 383 1114 q 429 1149 410 1135 q 457 1163 449 1163 q 488 1147 468 1163 q 536 1104 508 1131 l 644 1007 l 593 943 l 439 1031 l 275 949 l 239 1000 l 356 1092 m -67 71 l 11 90 l 386 908 l 490 908 l 650 89 l 738 71 l 732 0 l 385 0 l 390 71 l 482 86 l 482 106 l 457 251 l 185 251 l 118 101 l 118 88 l 221 71 l 213 0 l -76 0 l -67 71 m 442 338 l 388 660 l 385 694 l 381 693 l 368 657 l 224 338 l 442 338 z "},"Ấ":{"ha":739,"x_min":-76,"x_max":831,"o":"m 0 0 m -67 71 l 11 90 l 386 908 l 490 908 l 650 89 l 738 71 l 732 0 l 385 0 l 390 71 l 482 86 l 482 106 l 457 251 l 185 251 l 118 101 l 118 88 l 221 71 l 213 0 l -76 0 l -67 71 m 442 338 l 388 660 l 385 694 l 381 693 l 368 657 l 224 338 l 442 338 m 364 1092 l 396 1117 q 440 1150 421 1138 q 467 1163 458 1163 q 498 1147 478 1163 q 546 1104 518 1131 l 654 1007 l 603 943 l 449 1031 l 285 949 l 249 1000 l 364 1092 m 528 1192 l 779 1357 q 831 1274 831 1328 q 817 1236 831 1251 q 765 1207 803 1221 l 561 1131 l 528 1192 z "},"Ậ":{"ha":739,"x_min":-76,"x_max":738,"o":"m 0 0 m -67 71 l 11 90 l 386 908 l 490 908 l 650 89 l 738 71 l 732 0 l 385 0 l 390 71 l 482 86 l 482 106 l 457 251 l 185 251 l 118 101 l 118 88 l 221 71 l 213 0 l -76 0 l -67 71 m 442 338 l 388 660 l 385 694 l 381 693 l 368 657 l 224 338 l 442 338 m 290 -256 q 227 -230 251 -256 q 203 -167 203 -204 q 230 -89 203 -122 q 306 -56 257 -56 q 369 -81 344 -56 q 393 -147 393 -106 q 366 -223 393 -190 q 290 -256 339 -256 m 382 1092 l 414 1117 q 458 1150 439 1138 q 485 1163 476 1163 q 516 1147 496 1163 q 564 1104 536 1131 l 672 1007 l 621 943 l 467 1031 l 303 949 l 267 1000 l 382 1092 z "},"Ầ":{"ha":739,"x_min":-76,"x_max":738,"o":"m 0 0 m -67 71 l 11 90 l 386 908 l 490 908 l 650 89 l 738 71 l 732 0 l 385 0 l 390 71 l 482 86 l 482 106 l 457 251 l 185 251 l 118 101 l 118 88 l 221 71 l 213 0 l -76 0 l -67 71 m 442 338 l 388 660 l 385 694 l 381 693 l 368 657 l 224 338 l 442 338 m 367 1092 l 399 1117 q 442 1150 424 1138 q 469 1163 461 1163 q 501 1147 481 1163 q 549 1104 521 1131 l 657 1007 l 606 943 l 451 1031 l 288 949 l 251 1000 l 367 1092 m 478 1207 q 427 1235 442 1219 q 413 1272 413 1250 q 464 1357 413 1329 l 715 1192 l 683 1131 l 478 1207 z "},"Ẩ":{"ha":739,"x_min":-76,"x_max":790,"o":"m 0 0 m -67 71 l 11 90 l 386 908 l 490 908 l 650 89 l 738 71 l 732 0 l 385 0 l 390 71 l 482 86 l 482 106 l 457 251 l 185 251 l 118 101 l 118 88 l 221 71 l 213 0 l -76 0 l -67 71 m 442 338 l 388 660 l 385 694 l 381 693 l 368 657 l 224 338 l 442 338 m 344 1092 l 376 1117 q 420 1150 401 1138 q 447 1163 439 1163 q 478 1147 458 1163 q 526 1104 499 1131 l 635 1007 l 583 943 l 429 1031 l 265 949 l 229 1000 l 344 1092 m 565 1115 q 558 1142 558 1132 q 570 1171 558 1160 q 619 1196 582 1182 q 665 1236 665 1214 q 615 1263 665 1263 q 531 1251 572 1263 q 515 1296 515 1274 q 622 1349 515 1349 q 746 1325 701 1349 q 790 1257 790 1301 q 762 1197 790 1222 q 690 1157 733 1171 q 661 1142 668 1149 q 653 1121 654 1135 l 565 1115 z "},"Ẫ":{"ha":739,"x_min":-76,"x_max":744,"o":"m 282 1306 q 369 1354 326 1354 q 467 1333 404 1354 l 593 1297 l 707 1342 l 744 1306 l 681 1242 q 593 1193 635 1193 q 547 1199 572 1193 q 496 1213 521 1206 l 369 1250 l 257 1206 l 219 1242 l 282 1306 m 371 1092 l 403 1117 q 447 1150 428 1138 q 474 1163 465 1163 q 505 1147 485 1163 q 553 1104 525 1131 l 661 1007 l 610 943 l 456 1031 l 292 949 l 256 1000 l 371 1092 m -67 71 l 11 90 l 386 908 l 490 908 l 650 89 l 738 71 l 732 0 l 385 0 l 390 71 l 482 86 l 482 106 l 457 251 l 185 251 l 118 101 l 118 88 l 221 71 l 213 0 l -76 0 l -67 71 m 442 338 l 388 660 l 385 694 l 381 693 l 368 657 l 224 338 l 442 338 z "},"Ȁ":{"ha":739,"x_min":-76,"x_max":738,"o":"m 0 0 m -67 71 l 11 90 l 386 908 l 490 908 l 650 89 l 738 71 l 732 0 l 385 0 l 390 71 l 482 86 l 482 106 l 457 251 l 185 251 l 118 101 l 118 88 l 221 71 l 213 0 l -76 0 l -67 71 m 442 338 l 388 660 l 385 694 l 381 693 l 368 657 l 224 338 l 442 338 m 221 1011 q 192 1044 204 1025 q 179 1082 179 1064 q 215 1142 179 1115 q 289 1169 250 1168 l 379 969 l 321 926 l 221 1011 m 467 1011 q 436 1044 449 1025 q 424 1082 424 1064 q 460 1142 424 1115 q 535 1169 496 1168 l 625 969 l 565 926 l 467 1011 z "},"Ä":{"ha":739,"x_min":-76,"x_max":738,"o":"m 286 963 q 228 987 251 963 q 206 1047 206 1011 q 231 1118 206 1088 q 300 1149 257 1149 q 358 1126 336 1149 q 381 1064 381 1103 q 356 992 381 1022 q 286 963 331 963 m 590 963 q 532 987 554 963 q 510 1047 510 1011 q 535 1118 510 1088 q 603 1149 560 1149 q 662 1126 639 1149 q 685 1064 685 1103 q 660 992 685 1022 q 590 963 635 963 m -67 71 l 11 90 l 386 908 l 490 908 l 650 89 l 738 71 l 732 0 l 385 0 l 390 71 l 482 86 l 482 106 l 457 251 l 185 251 l 118 101 l 118 88 l 221 71 l 213 0 l -76 0 l -67 71 m 442 338 l 388 660 l 385 694 l 381 693 l 368 657 l 224 338 l 442 338 z "},"Ạ":{"ha":739,"x_min":-76,"x_max":738,"o":"m 0 0 m -67 71 l 11 90 l 386 908 l 490 908 l 650 89 l 738 71 l 732 0 l 385 0 l 390 71 l 482 86 l 482 106 l 457 251 l 185 251 l 118 101 l 118 88 l 221 71 l 213 0 l -76 0 l -67 71 m 442 338 l 388 660 l 385 694 l 381 693 l 368 657 l 224 338 l 442 338 m 290 -256 q 227 -230 251 -256 q 203 -167 203 -204 q 230 -89 203 -122 q 306 -56 257 -56 q 369 -81 344 -56 q 393 -147 393 -106 q 366 -223 393 -190 q 290 -256 339 -256 z "},"À":{"ha":739,"x_min":-76,"x_max":738,"o":"m 342 1015 q 290 1043 304 1028 q 276 1081 276 1058 q 328 1165 276 1138 l 579 1000 l 546 939 l 342 1015 m -67 71 l 11 90 l 386 908 l 490 908 l 650 89 l 738 71 l 732 0 l 385 0 l 390 71 l 482 86 l 482 106 l 457 251 l 185 251 l 118 101 l 118 88 l 221 71 l 213 0 l -76 0 l -67 71 m 442 338 l 388 660 l 385 694 l 381 693 l 368 657 l 224 338 l 442 338 z "},"Ả":{"ha":739,"x_min":-76,"x_max":738,"o":"m 0 0 m -67 71 l 11 90 l 386 908 l 490 908 l 650 89 l 738 71 l 732 0 l 385 0 l 390 71 l 482 86 l 482 106 l 457 251 l 185 251 l 118 101 l 118 88 l 221 71 l 213 0 l -76 0 l -67 71 m 442 338 l 388 660 l 385 694 l 381 693 l 368 657 l 224 338 l 442 338 m 413 939 q 406 965 406 956 q 417 994 406 983 q 467 1019 429 1006 q 513 1060 513 1038 q 463 1086 513 1086 q 378 1075 419 1086 q 363 1119 363 1097 q 469 1172 363 1172 q 593 1149 549 1172 q 638 1081 638 1125 q 609 1020 638 1046 q 538 981 581 994 q 508 965 515 972 q 500 944 501 958 l 413 939 z "},"Ȃ":{"ha":739,"x_min":-76,"x_max":738,"o":"m 0 0 m -67 71 l 11 90 l 386 908 l 490 908 l 650 89 l 738 71 l 732 0 l 385 0 l 390 71 l 482 86 l 482 106 l 457 251 l 185 251 l 118 101 l 118 88 l 221 71 l 213 0 l -76 0 l -67 71 m 442 338 l 388 660 l 385 694 l 381 693 l 368 657 l 224 338 l 442 338 m 249 983 q 344 1100 281 1040 q 510 1160 407 1160 q 599 1141 557 1160 q 665 1091 640 1122 q 690 1026 690 1060 q 666 988 690 1007 q 606 956 642 968 q 486 1042 563 1042 q 288 951 378 1042 l 249 983 z "},"Ā":{"ha":739,"x_min":-76,"x_max":738,"o":"m 224 1100 l 676 1100 l 664 996 l 211 996 l 224 1100 m -67 71 l 11 90 l 386 908 l 490 908 l 650 89 l 738 71 l 732 0 l 385 0 l 390 71 l 482 86 l 482 106 l 457 251 l 185 251 l 118 101 l 118 88 l 221 71 l 213 0 l -76 0 l -67 71 m 442 338 l 388 660 l 385 694 l 381 693 l 368 657 l 224 338 l 442 338 z "},"Ą":{"ha":739,"x_min":-76,"x_max":738,"o":"m 593 0 q 519 -118 519 -54 q 571 -168 519 -168 q 646 -140 604 -168 l 675 -185 q 653 -206 675 -187 q 599 -239 632 -224 q 526 -254 565 -254 q 435 -231 469 -254 q 401 -160 401 -208 q 432 -71 401 -111 q 513 0 463 -31 l 385 0 l 390 71 l 482 86 l 482 106 l 457 251 l 185 251 l 118 101 l 118 88 l 221 71 l 213 0 l -76 0 l -67 71 l 11 90 l 386 908 l 490 908 l 650 89 l 738 71 l 732 0 l 593 0 m 224 338 l 442 338 l 388 660 l 385 694 l 381 693 l 368 657 l 224 338 z "},"Å":{"ha":739,"x_min":-76,"x_max":738,"o":"m 433 921 q 336 947 367 921 q 306 1024 306 972 q 348 1119 306 1078 q 460 1161 390 1161 q 553 1135 519 1161 q 586 1056 586 1110 q 546 961 586 1001 q 433 921 506 921 m 443 985 q 481 999 469 985 q 492 1053 492 1014 q 480 1088 492 1078 q 447 1097 468 1097 q 410 1082 421 1097 q 399 1028 399 1067 q 409 994 399 1004 q 443 985 419 985 m -67 71 l 11 90 l 386 908 l 490 908 l 650 89 l 738 71 l 732 0 l 385 0 l 390 71 l 482 86 l 482 106 l 457 251 l 185 251 l 118 101 l 118 88 l 221 71 l 213 0 l -76 0 l -67 71 m 442 338 l 388 660 l 385 694 l 381 693 l 368 657 l 224 338 l 442 338 z "},"Ǻ":{"ha":739,"x_min":-76,"x_max":738,"o":"m 0 0 m -67 71 l 11 90 l 386 908 l 490 908 l 650 89 l 738 71 l 732 0 l 385 0 l 390 71 l 482 86 l 482 106 l 457 251 l 185 251 l 118 101 l 118 88 l 221 71 l 213 0 l -76 0 l -67 71 m 442 338 l 388 660 l 385 694 l 381 693 l 368 657 l 224 338 l 442 338 m 454 921 q 357 947 388 921 q 326 1024 326 972 q 369 1119 326 1078 q 481 1161 411 1161 q 574 1135 540 1161 q 607 1056 607 1110 q 567 961 607 1001 q 454 921 526 921 m 464 985 q 501 999 490 985 q 513 1053 513 1014 q 501 1088 513 1078 q 468 1097 489 1097 q 431 1082 442 1097 q 419 1028 419 1067 q 430 994 419 1004 q 464 985 440 985 m 404 1261 l 656 1426 q 707 1343 707 1397 q 693 1306 707 1321 q 642 1276 679 1290 l 438 1200 l 404 1261 z "},"Ã":{"ha":739,"x_min":-76,"x_max":738,"o":"m 242 1088 q 285 1128 263 1114 q 329 1143 308 1143 q 426 1119 367 1143 l 554 1078 l 667 1129 l 704 1088 l 640 1014 q 554 958 593 958 q 457 981 514 958 l 329 1024 l 217 972 l 179 1014 l 242 1088 m -67 71 l 11 90 l 386 908 l 490 908 l 650 89 l 738 71 l 732 0 l 385 0 l 390 71 l 482 86 l 482 106 l 457 251 l 185 251 l 118 101 l 118 88 l 221 71 l 213 0 l -76 0 l -67 71 m 442 338 l 388 660 l 385 694 l 381 693 l 368 657 l 224 338 l 442 338 z "},"Æ":{"ha":1036,"x_min":-121,"x_max":1058,"o":"m -33 90 l 493 900 l 1058 900 l 1024 658 l 940 658 l 940 815 l 793 815 l 701 807 l 653 463 l 819 463 l 849 549 l 921 549 l 888 293 l 817 293 l 815 382 l 642 382 l 601 93 q 718 85 685 86 l 851 85 l 907 236 l 982 236 l 953 0 l 332 0 l 342 71 l 440 90 l 481 382 l 260 382 l 76 101 l 76 88 l 179 71 l 171 0 l -121 0 l -111 71 l -33 90 m 492 463 l 542 813 l 535 813 l 310 463 l 492 463 z "},"Ǽ":{"ha":1036,"x_min":-121,"x_max":1058,"o":"m 0 0 m -33 90 l 493 900 l 1058 900 l 1024 658 l 940 658 l 940 815 l 793 815 l 701 807 l 653 463 l 819 463 l 849 549 l 921 549 l 888 293 l 817 293 l 815 382 l 642 382 l 601 93 q 718 85 685 86 l 851 85 l 907 236 l 982 236 l 953 0 l 332 0 l 342 71 l 440 90 l 481 382 l 260 382 l 76 101 l 76 88 l 179 71 l 171 0 l -121 0 l -111 71 l -33 90 m 492 463 l 542 813 l 535 813 l 310 463 l 492 463 m 550 1000 l 801 1165 q 853 1082 853 1136 q 839 1044 853 1060 q 788 1015 825 1029 l 583 939 l 550 1000 z "},"B":{"ha":765,"x_min":-4,"x_max":714,"o":"m 104 90 l 207 810 l 110 829 l 119 900 l 436 900 q 643 856 572 900 q 714 715 714 811 q 651 565 714 631 q 490 471 588 500 q 627 411 572 456 q 682 286 682 367 q 636 135 682 200 q 510 35 590 71 q 328 0 429 0 l -4 0 l 6 71 l 104 90 m 319 496 q 493 563 439 513 q 547 699 547 613 q 514 788 547 761 q 413 815 481 815 q 383 813 396 815 q 367 810 369 811 l 319 496 m 264 85 q 329 78 288 78 q 464 128 421 78 q 507 264 507 179 q 460 383 507 343 q 311 425 413 422 l 264 85 z "},"C":{"ha":760,"x_min":49,"x_max":761,"o":"m 686 267 l 665 39 q 534 -1 607 14 q 386 -15 461 -15 q 131 81 213 -15 q 49 339 49 176 q 105 633 49 501 q 267 841 161 765 q 515 917 374 917 q 761 889 653 917 l 725 658 l 642 658 l 635 793 q 483 833 575 833 q 294 714 361 833 q 228 358 228 594 q 247 186 228 249 q 307 97 265 124 q 421 69 349 69 q 503 82 465 69 q 558 108 542 94 l 604 267 l 686 267 z "},"Ć":{"ha":760,"x_min":49,"x_max":761,"o":"m 364 1000 l 615 1165 q 653 1130 639 1151 q 667 1082 667 1108 q 652 1044 667 1060 q 601 1015 638 1029 l 397 939 l 364 1000 m 686 267 l 665 39 q 531 -1 604 13 q 386 -15 458 -15 q 135 76 222 -15 q 49 339 49 167 q 108 640 49 508 q 273 844 167 771 q 515 917 379 917 q 761 889 658 917 l 725 658 l 642 658 l 635 793 q 483 833 571 833 q 293 712 358 833 q 228 358 228 590 q 247 188 228 250 q 307 97 265 125 q 421 69 349 69 q 499 80 461 69 q 558 108 538 90 l 604 267 l 686 267 z "},"Č":{"ha":760,"x_min":49,"x_max":761,"o":"m 367 1164 l 517 1075 l 678 1163 l 714 1111 l 601 1015 q 533 960 556 976 q 499 943 510 943 q 470 957 488 943 q 439 985 453 971 q 421 1001 425 999 l 315 1101 l 367 1164 m 686 267 l 665 39 q 534 -1 607 14 q 386 -15 461 -15 q 131 81 213 -15 q 49 339 49 176 q 105 633 49 501 q 267 841 161 765 q 515 917 374 917 q 761 889 653 917 l 725 658 l 642 658 l 635 793 q 483 833 575 833 q 294 714 361 833 q 228 358 228 594 q 247 186 228 249 q 307 97 265 124 q 421 69 349 69 q 503 82 465 69 q 558 108 542 94 l 604 267 l 686 267 z "},"Ç":{"ha":760,"x_min":49,"x_max":761,"o":"m 281 -171 q 324 -187 304 -182 q 378 -193 343 -193 q 415 -169 415 -193 q 408 -152 415 -160 q 383 -136 401 -144 l 317 -103 l 317 -69 l 353 -14 q 122 89 196 -6 q 49 339 49 183 q 105 633 49 501 q 267 841 161 765 q 515 917 374 917 q 761 889 653 917 l 725 658 l 642 658 l 635 793 q 483 833 575 833 q 294 714 361 833 q 228 358 228 594 q 247 186 228 249 q 307 97 265 124 q 421 69 349 69 q 503 82 465 69 q 558 108 542 94 l 604 267 l 686 267 l 665 39 q 426 -14 551 -8 l 426 -39 l 474 -65 q 520 -101 504 -82 q 536 -149 536 -119 q 494 -238 536 -210 q 393 -267 453 -267 q 247 -228 306 -267 l 281 -171 z "},"Ĉ":{"ha":760,"x_min":49,"x_max":761,"o":"m 49 0 m 686 267 l 665 39 q 534 -1 607 14 q 386 -15 461 -15 q 131 81 213 -15 q 49 339 49 176 q 105 633 49 501 q 267 841 161 765 q 515 917 374 917 q 761 889 653 917 l 725 658 l 642 658 l 635 793 q 483 833 575 833 q 294 714 361 833 q 228 358 228 594 q 247 186 228 249 q 307 97 265 124 q 421 69 349 69 q 503 82 465 69 q 558 108 542 94 l 604 267 l 686 267 m 468 1092 l 500 1117 q 544 1150 525 1138 q 571 1163 563 1163 q 602 1147 582 1163 q 650 1104 622 1131 l 758 1007 l 707 943 l 553 1031 l 389 949 l 353 1000 l 468 1092 z "},"Ċ":{"ha":760,"x_min":49,"x_max":761,"o":"m 49 0 m 686 267 l 665 39 q 534 -1 607 14 q 386 -15 461 -15 q 131 81 213 -15 q 49 339 49 176 q 105 633 49 501 q 267 841 161 765 q 515 917 374 917 q 761 889 653 917 l 725 658 l 642 658 l 635 793 q 483 833 575 833 q 294 714 361 833 q 228 358 228 594 q 247 186 228 249 q 307 97 265 124 q 421 69 349 69 q 503 82 465 69 q 558 108 542 94 l 604 267 l 686 267 m 546 954 q 486 979 510 954 q 463 1040 463 1004 q 488 1115 463 1082 q 561 1149 514 1149 q 622 1124 599 1149 q 646 1060 646 1100 q 619 985 646 1017 q 546 954 593 954 z "},"D":{"ha":893,"x_min":-4,"x_max":850,"o":"m 104 90 l 206 810 l 110 829 l 118 900 l 475 900 q 754 815 658 900 q 850 565 850 729 q 786 272 850 400 q 608 72 722 143 q 344 0 493 0 l -4 0 l 6 71 l 104 90 m 264 88 q 354 85 319 85 q 588 199 506 85 q 672 524 671 314 q 647 694 672 631 q 565 786 621 757 q 417 815 510 815 q 367 813 386 815 l 264 88 z "},"Ǳ":{"ha":1610,"x_min":-4,"x_max":1618,"o":"m 0 0 m 104 90 l 206 810 l 110 829 l 118 900 l 475 900 q 754 815 658 900 q 850 565 850 729 q 786 272 850 400 q 608 72 722 143 q 344 0 493 0 l -4 0 l 6 71 l 104 90 m 264 88 q 354 85 319 85 q 588 199 506 85 q 672 524 671 314 q 647 694 672 631 q 565 786 621 757 q 417 815 510 815 q 367 813 386 815 l 264 88 m 882 83 l 1415 792 l 1403 814 l 1100 814 l 1042 664 l 965 664 l 999 900 l 1564 900 l 1618 814 l 1078 97 l 1085 85 l 1411 85 l 1467 235 l 1543 235 l 1513 0 l 915 0 l 882 83 z "},"Ǆ":{"ha":1610,"x_min":-4,"x_max":1618,"o":"m 0 0 m 104 90 l 206 810 l 110 829 l 118 900 l 475 900 q 754 815 658 900 q 850 565 850 729 q 786 272 850 400 q 608 72 722 143 q 344 0 493 0 l -4 0 l 6 71 l 104 90 m 264 88 q 354 85 319 85 q 588 199 506 85 q 672 524 671 314 q 647 694 672 631 q 565 786 621 757 q 417 815 510 815 q 367 813 386 815 l 264 88 m 882 83 l 1415 792 l 1403 814 l 1100 814 l 1042 664 l 965 664 l 999 900 l 1564 900 l 1618 814 l 1078 97 l 1085 85 l 1411 85 l 1467 235 l 1543 235 l 1513 0 l 915 0 l 882 83 m 1299 943 q 1271 956 1288 943 q 1240 983 1254 969 q 1221 1001 1225 997 l 1114 1101 l 1167 1164 l 1315 1075 l 1478 1163 l 1513 1111 l 1400 1015 q 1331 959 1353 975 q 1299 943 1310 943 z "},"Ð":{"ha":888,"x_min":-7,"x_max":847,"o":"m 101 90 l 149 421 l 40 421 l 53 507 l 160 507 l 203 810 l 107 829 l 117 900 l 472 900 q 751 815 656 900 q 847 565 847 731 q 784 272 847 400 q 606 72 721 143 q 342 0 490 0 l -7 0 l 3 71 l 101 90 m 261 88 q 351 85 317 85 q 583 197 499 85 q 669 524 668 308 q 640 702 669 639 q 556 790 611 765 q 414 815 501 815 q 364 813 383 815 l 321 507 l 504 507 l 490 421 l 308 421 l 261 88 z "},"Ď":{"ha":889,"x_min":-7,"x_max":847,"o":"m 490 1075 l 653 1163 l 688 1111 l 575 1015 q 505 958 525 974 q 474 943 485 943 q 444 958 463 943 q 396 1001 426 972 l 289 1101 l 342 1164 l 490 1075 m 101 90 l 203 810 l 107 829 l 117 900 l 472 900 q 752 815 657 900 q 847 565 847 729 q 784 272 847 400 q 606 72 721 143 q 342 0 490 0 l -7 0 l 3 71 l 101 90 m 263 88 q 351 85 315 85 q 585 199 503 85 q 669 524 668 314 q 644 694 669 631 q 564 786 619 757 q 414 815 508 815 q 364 813 383 815 l 263 88 z "},"Đ":{"ha":889,"x_min":-7,"x_max":847,"o":"m 101 90 l 149 421 l 40 421 l 53 507 l 160 507 l 203 810 l 107 829 l 117 900 l 472 900 q 751 815 656 900 q 847 565 847 731 q 784 272 847 400 q 606 72 721 143 q 342 0 490 0 l -7 0 l 3 71 l 101 90 m 263 88 q 351 85 315 85 q 584 197 500 85 q 669 524 668 308 q 640 702 669 639 q 556 790 611 765 q 414 815 501 815 q 364 813 383 815 l 321 507 l 504 507 l 490 421 l 308 421 l 263 88 z "},"Ḍ":{"ha":893,"x_min":-4,"x_max":850,"o":"m 0 0 m 104 90 l 206 810 l 110 829 l 118 900 l 475 900 q 754 815 658 900 q 850 565 850 729 q 786 272 850 400 q 608 72 722 143 q 344 0 493 0 l -4 0 l 6 71 l 104 90 m 264 88 q 354 85 319 85 q 588 199 506 85 q 672 524 671 314 q 647 694 672 631 q 565 786 621 757 q 417 815 510 815 q 367 813 386 815 l 264 88 m 368 -256 q 305 -230 329 -256 q 281 -167 281 -204 q 308 -89 281 -122 q 383 -56 335 -56 q 447 -81 422 -56 q 471 -147 471 -106 q 444 -223 471 -190 q 368 -256 417 -256 z "},"ǲ":{"ha":1446,"x_min":-4,"x_max":1489,"o":"m 0 0 m 104 90 l 206 810 l 110 829 l 118 900 l 475 900 q 754 815 658 900 q 850 565 850 729 q 786 272 850 400 q 608 72 722 143 q 344 0 493 0 l -4 0 l 6 71 l 104 90 m 264 88 q 354 85 319 85 q 588 199 506 85 q 672 524 671 314 q 647 694 672 631 q 565 786 621 757 q 417 815 510 815 q 367 813 386 815 l 264 88 m 1244 533 l 1072 622 l 1038 499 l 974 499 q 962 517 971 503 q 944 556 953 532 q 936 610 936 581 q 970 686 936 660 q 1057 713 1004 713 q 1210 689 1113 713 l 1357 654 l 1435 710 l 1489 667 l 1099 171 l 1099 156 l 1283 75 l 1318 199 l 1379 199 q 1390 178 1382 194 q 1406 137 1399 163 q 1414 82 1414 111 q 1379 10 1414 33 q 1299 -14 1344 -14 q 1139 4 1232 -14 l 981 35 l 914 -10 l 856 39 l 1244 518 l 1244 533 z "},"ǅ":{"ha":1446,"x_min":-4,"x_max":1489,"o":"m 0 0 m 104 90 l 206 810 l 110 829 l 118 900 l 475 900 q 754 815 658 900 q 850 565 850 729 q 786 272 850 400 q 608 72 722 143 q 344 0 493 0 l -4 0 l 6 71 l 104 90 m 264 88 q 354 85 319 85 q 588 199 506 85 q 672 524 671 314 q 647 694 672 631 q 565 786 621 757 q 417 815 510 815 q 367 813 386 815 l 264 88 m 1244 533 l 1072 622 l 1038 499 l 974 499 q 962 517 971 503 q 944 556 953 532 q 936 610 936 581 q 970 686 936 660 q 1057 713 1004 713 q 1210 689 1113 713 l 1357 654 l 1435 710 l 1489 667 l 1099 171 l 1099 156 l 1283 75 l 1318 199 l 1379 199 q 1390 178 1382 194 q 1406 137 1399 163 q 1414 82 1414 111 q 1379 10 1414 33 q 1299 -14 1344 -14 q 1139 4 1232 -14 l 981 35 l 914 -10 l 856 39 l 1244 518 l 1244 533 m 1094 1022 l 1232 918 l 1397 1017 l 1438 972 l 1306 846 q 1247 790 1267 807 q 1214 772 1226 772 q 1190 782 1201 772 q 1168 806 1179 792 q 1151 828 1157 821 l 1042 974 l 1094 1022 z "},"E":{"ha":726,"x_min":-4,"x_max":724,"o":"m 104 90 l 207 810 l 110 829 l 119 900 l 724 900 l 688 658 l 604 658 l 604 815 l 458 815 l 367 807 l 322 504 l 489 504 l 519 590 l 592 590 l 557 335 l 488 335 l 485 425 l 313 425 l 265 93 q 382 85 354 86 l 517 85 l 571 236 l 646 236 l 617 0 l -4 0 l 6 71 l 104 90 z "},"É":{"ha":724,"x_min":-4,"x_max":724,"o":"m 314 1000 l 565 1165 q 615 1082 615 1136 q 601 1044 615 1060 q 551 1015 588 1028 l 346 939 l 314 1000 m 104 90 l 207 810 l 110 829 l 119 900 l 724 900 l 688 658 l 604 658 l 604 815 l 458 815 l 367 807 l 322 504 l 489 504 l 519 590 l 592 590 l 557 335 l 488 335 l 485 425 l 313 425 l 265 93 q 382 85 354 86 l 517 85 l 571 236 l 646 236 l 617 0 l -4 0 l 6 71 l 104 90 z "},"Ĕ":{"ha":726,"x_min":-4,"x_max":724,"o":"m 0 0 m 104 90 l 207 810 l 110 829 l 119 900 l 724 900 l 688 658 l 604 658 l 604 815 l 458 815 l 367 807 l 322 504 l 489 504 l 519 590 l 592 590 l 557 335 l 488 335 l 485 425 l 313 425 l 265 93 q 382 85 354 86 l 517 85 l 571 236 l 646 236 l 617 0 l -4 0 l 6 71 l 104 90 m 685 1129 q 588 1010 650 1068 q 424 951 526 951 q 335 970 376 951 q 268 1020 293 989 q 243 1085 243 1051 q 267 1123 243 1104 q 326 1156 292 1142 q 447 1069 372 1069 q 646 1160 556 1069 l 685 1129 z "},"Ě":{"ha":724,"x_min":-4,"x_max":724,"o":"m 317 1164 l 467 1075 l 628 1164 l 664 1113 l 551 1017 q 483 961 507 978 q 449 944 460 944 q 420 958 438 944 q 389 986 403 972 q 371 1003 375 1000 l 265 1103 l 317 1164 m 104 90 l 207 810 l 110 829 l 119 900 l 724 900 l 688 658 l 604 658 l 604 815 l 458 815 l 367 807 l 322 504 l 489 504 l 519 590 l 592 590 l 557 335 l 488 335 l 485 425 l 313 425 l 265 93 q 382 85 354 86 l 517 85 l 571 236 l 646 236 l 617 0 l -4 0 l 6 71 l 104 90 z "},"Ê":{"ha":724,"x_min":-4,"x_max":724,"o":"m 374 1092 l 406 1117 q 449 1150 431 1138 q 476 1163 468 1163 q 508 1147 488 1163 q 556 1104 528 1131 l 664 1007 l 613 943 l 458 1031 l 294 949 l 258 1000 l 374 1092 m 104 90 l 207 810 l 110 829 l 119 900 l 724 900 l 688 658 l 604 658 l 604 815 l 458 815 l 367 807 l 322 504 l 489 504 l 519 590 l 592 590 l 557 335 l 488 335 l 485 425 l 313 425 l 265 93 q 382 85 354 86 l 517 85 l 571 236 l 646 236 l 617 0 l -4 0 l 6 71 l 104 90 z "},"Ế":{"ha":726,"x_min":-4,"x_max":825,"o":"m 0 0 m 104 90 l 207 810 l 110 829 l 119 900 l 724 900 l 688 658 l 604 658 l 604 815 l 458 815 l 367 807 l 322 504 l 489 504 l 519 590 l 592 590 l 557 335 l 488 335 l 485 425 l 313 425 l 265 93 q 382 85 354 86 l 517 85 l 571 236 l 646 236 l 617 0 l -4 0 l 6 71 l 104 90 m 358 1092 l 390 1117 q 434 1150 415 1138 q 461 1163 453 1163 q 492 1147 472 1163 q 540 1104 513 1131 l 649 1007 l 597 943 l 443 1031 l 279 949 l 243 1000 l 358 1092 m 522 1192 l 774 1357 q 825 1274 825 1328 q 811 1236 825 1251 q 760 1207 797 1221 l 556 1131 l 522 1192 z "},"Ệ":{"ha":726,"x_min":-4,"x_max":724,"o":"m 0 0 m 104 90 l 207 810 l 110 829 l 119 900 l 724 900 l 688 658 l 604 658 l 604 815 l 458 815 l 367 807 l 322 504 l 489 504 l 519 590 l 592 590 l 557 335 l 488 335 l 485 425 l 313 425 l 265 93 q 382 85 354 86 l 517 85 l 571 236 l 646 236 l 617 0 l -4 0 l 6 71 l 104 90 m 285 -256 q 222 -230 246 -256 q 197 -167 197 -204 q 224 -89 197 -122 q 300 -56 251 -56 q 363 -81 339 -56 q 388 -147 388 -106 q 360 -223 388 -190 q 285 -256 333 -256 m 376 1092 l 408 1117 q 452 1150 433 1138 q 479 1163 471 1163 q 510 1147 490 1163 q 558 1104 531 1131 l 667 1007 l 615 943 l 461 1031 l 297 949 l 261 1000 l 376 1092 z "},"Ề":{"ha":726,"x_min":-4,"x_max":724,"o":"m 0 0 m 104 90 l 207 810 l 110 829 l 119 900 l 724 900 l 688 658 l 604 658 l 604 815 l 458 815 l 367 807 l 322 504 l 489 504 l 519 590 l 592 590 l 557 335 l 488 335 l 485 425 l 313 425 l 265 93 q 382 85 354 86 l 517 85 l 571 236 l 646 236 l 617 0 l -4 0 l 6 71 l 104 90 m 361 1092 l 393 1117 q 437 1150 418 1138 q 464 1163 456 1163 q 495 1147 475 1163 q 543 1104 515 1131 l 651 1007 l 600 943 l 446 1031 l 282 949 l 246 1000 l 361 1092 m 472 1207 q 422 1235 436 1219 q 407 1272 407 1250 q 458 1357 407 1329 l 710 1192 l 678 1131 l 472 1207 z "},"Ể":{"ha":726,"x_min":-4,"x_max":785,"o":"m 0 0 m 104 90 l 207 810 l 110 829 l 119 900 l 724 900 l 688 658 l 604 658 l 604 815 l 458 815 l 367 807 l 322 504 l 489 504 l 519 590 l 592 590 l 557 335 l 488 335 l 485 425 l 313 425 l 265 93 q 382 85 354 86 l 517 85 l 571 236 l 646 236 l 617 0 l -4 0 l 6 71 l 104 90 m 339 1092 l 371 1117 q 415 1150 396 1138 q 442 1163 433 1163 q 473 1147 453 1163 q 521 1104 493 1131 l 629 1007 l 578 943 l 424 1031 l 260 949 l 224 1000 l 339 1092 m 560 1115 q 553 1142 553 1132 q 565 1171 553 1160 q 614 1196 576 1182 q 660 1236 660 1214 q 610 1263 660 1263 q 525 1251 567 1263 q 510 1296 510 1274 q 617 1349 510 1349 q 740 1325 696 1349 q 785 1257 785 1301 q 756 1197 785 1222 q 685 1157 728 1171 q 656 1142 663 1149 q 647 1121 649 1135 l 560 1115 z "},"Ễ":{"ha":726,"x_min":-4,"x_max":739,"o":"m 276 1306 q 364 1354 321 1354 q 461 1333 399 1354 l 588 1297 l 701 1342 l 739 1306 l 675 1242 q 588 1193 629 1193 q 541 1199 567 1193 q 490 1213 515 1206 l 364 1250 l 251 1206 l 214 1242 l 276 1306 m 365 1092 l 397 1117 q 441 1150 422 1138 q 468 1163 460 1163 q 499 1147 479 1163 q 547 1104 519 1131 l 656 1007 l 604 943 l 450 1031 l 286 949 l 250 1000 l 365 1092 m 104 90 l 207 810 l 110 829 l 119 900 l 724 900 l 688 658 l 604 658 l 604 815 l 458 815 l 367 807 l 322 504 l 489 504 l 519 590 l 592 590 l 557 335 l 488 335 l 485 425 l 313 425 l 265 93 q 382 85 354 86 l 517 85 l 571 236 l 646 236 l 617 0 l -4 0 l 6 71 l 104 90 z "},"Ȅ":{"ha":726,"x_min":-4,"x_max":724,"o":"m 0 0 m 104 90 l 207 810 l 110 829 l 119 900 l 724 900 l 688 658 l 604 658 l 604 815 l 458 815 l 367 807 l 322 504 l 489 504 l 519 590 l 592 590 l 557 335 l 488 335 l 485 425 l 313 425 l 265 93 q 382 85 354 86 l 517 85 l 571 236 l 646 236 l 617 0 l -4 0 l 6 71 l 104 90 m 215 1011 q 186 1044 199 1025 q 174 1082 174 1064 q 209 1142 174 1115 q 283 1169 244 1168 l 374 969 l 315 926 l 215 1011 m 461 1011 q 431 1044 443 1025 q 418 1082 418 1064 q 454 1142 418 1115 q 529 1169 490 1168 l 619 969 l 560 926 l 461 1011 z "},"Ë":{"ha":724,"x_min":-4,"x_max":724,"o":"m 303 957 q 244 981 267 957 q 222 1042 222 1006 q 247 1113 222 1082 q 315 1144 272 1144 q 374 1121 351 1144 q 397 1058 397 1097 q 372 987 397 1017 q 303 957 347 957 m 607 957 q 549 981 571 957 q 526 1042 526 1006 q 551 1113 526 1082 q 619 1144 576 1144 q 678 1121 656 1144 q 701 1058 701 1097 q 676 987 701 1017 q 607 957 651 957 m 104 90 l 207 810 l 110 829 l 119 900 l 724 900 l 688 658 l 604 658 l 604 815 l 458 815 l 367 807 l 322 504 l 489 504 l 519 590 l 592 590 l 557 335 l 488 335 l 485 425 l 313 425 l 265 93 q 382 85 354 86 l 517 85 l 571 236 l 646 236 l 617 0 l -4 0 l 6 71 l 104 90 z "},"Ė":{"ha":724,"x_min":-4,"x_max":724,"o":"m 453 954 q 393 979 417 954 q 369 1040 369 1004 q 395 1115 369 1082 q 468 1149 421 1149 q 529 1124 506 1149 q 553 1060 553 1100 q 526 986 553 1018 q 453 954 500 954 m 104 90 l 207 810 l 110 829 l 119 900 l 724 900 l 688 658 l 604 658 l 604 815 l 458 815 l 367 807 l 322 504 l 489 504 l 519 590 l 592 590 l 557 335 l 488 335 l 485 425 l 313 425 l 265 93 q 382 85 354 86 l 517 85 l 571 236 l 646 236 l 617 0 l -4 0 l 6 71 l 104 90 z "},"Ẹ":{"ha":726,"x_min":-4,"x_max":724,"o":"m 0 0 m 104 90 l 207 810 l 110 829 l 119 900 l 724 900 l 688 658 l 604 658 l 604 815 l 458 815 l 367 807 l 322 504 l 489 504 l 519 590 l 592 590 l 557 335 l 488 335 l 485 425 l 313 425 l 265 93 q 382 85 354 86 l 517 85 l 571 236 l 646 236 l 617 0 l -4 0 l 6 71 l 104 90 m 285 -256 q 222 -230 246 -256 q 197 -167 197 -204 q 224 -89 197 -122 q 300 -56 251 -56 q 363 -81 339 -56 q 388 -147 388 -106 q 360 -223 388 -190 q 285 -256 333 -256 z "},"È":{"ha":724,"x_min":-4,"x_max":724,"o":"m 349 1015 q 298 1043 313 1028 q 283 1081 283 1058 q 335 1165 283 1138 l 586 1000 l 554 939 l 349 1015 m 104 90 l 207 810 l 110 829 l 119 900 l 724 900 l 688 658 l 604 658 l 604 815 l 458 815 l 367 807 l 322 504 l 489 504 l 519 590 l 592 590 l 557 335 l 488 335 l 485 425 l 313 425 l 265 93 q 382 85 354 86 l 517 85 l 571 236 l 646 236 l 617 0 l -4 0 l 6 71 l 104 90 z "},"Ẻ":{"ha":726,"x_min":-4,"x_max":724,"o":"m 0 0 m 104 90 l 207 810 l 110 829 l 119 900 l 724 900 l 688 658 l 604 658 l 604 815 l 458 815 l 367 807 l 322 504 l 489 504 l 519 590 l 592 590 l 557 335 l 488 335 l 485 425 l 313 425 l 265 93 q 382 85 354 86 l 517 85 l 571 236 l 646 236 l 617 0 l -4 0 l 6 71 l 104 90 m 407 939 q 400 965 400 956 q 412 994 400 983 q 461 1019 424 1006 q 507 1060 507 1038 q 457 1086 507 1086 q 372 1075 414 1086 q 357 1119 357 1097 q 464 1172 357 1172 q 588 1149 543 1172 q 632 1081 632 1125 q 603 1020 632 1046 q 532 981 575 994 q 503 965 510 972 q 494 944 496 958 l 407 939 z "},"Ȇ":{"ha":726,"x_min":-4,"x_max":724,"o":"m 0 0 m 104 90 l 207 810 l 110 829 l 119 900 l 724 900 l 688 658 l 604 658 l 604 815 l 458 815 l 367 807 l 322 504 l 489 504 l 519 590 l 592 590 l 557 335 l 488 335 l 485 425 l 313 425 l 265 93 q 382 85 354 86 l 517 85 l 571 236 l 646 236 l 617 0 l -4 0 l 6 71 l 104 90 m 243 983 q 338 1100 275 1040 q 504 1160 401 1160 q 593 1141 551 1160 q 660 1091 635 1122 q 685 1026 685 1060 q 660 988 685 1007 q 600 956 636 968 q 481 1042 557 1042 q 282 951 372 1042 l 243 983 z "},"Ē":{"ha":724,"x_min":-4,"x_max":724,"o":"m 240 1100 l 693 1100 l 681 996 l 228 996 l 240 1100 m 104 90 l 207 810 l 110 829 l 119 900 l 724 900 l 688 658 l 604 658 l 604 815 l 458 815 l 367 807 l 322 504 l 489 504 l 519 590 l 592 590 l 557 335 l 488 335 l 485 425 l 313 425 l 265 93 q 382 85 354 86 l 517 85 l 571 236 l 646 236 l 617 0 l -4 0 l 6 71 l 104 90 z "},"Ę":{"ha":724,"x_min":-4,"x_max":724,"o":"m 604 658 l 604 815 l 458 815 l 367 807 l 322 504 l 489 504 l 519 590 l 592 590 l 557 335 l 488 335 l 485 425 l 313 425 l 265 93 q 382 85 354 86 l 517 85 l 571 236 l 646 236 l 617 0 l 576 0 q 504 -118 504 -56 q 556 -168 504 -168 q 631 -140 589 -168 l 660 -185 q 638 -206 660 -187 q 583 -239 617 -224 q 510 -254 550 -254 q 420 -231 454 -254 q 386 -160 386 -208 q 417 -71 386 -111 q 496 0 447 -31 l -4 0 l 6 71 l 104 90 l 207 810 l 110 829 l 119 900 l 724 900 l 688 658 l 604 658 z "},"Ẽ":{"ha":726,"x_min":-4,"x_max":726,"o":"m 0 0 m 104 90 l 207 810 l 110 829 l 119 900 l 724 900 l 688 658 l 604 658 l 604 815 l 458 815 l 367 807 l 322 504 l 489 504 l 519 590 l 592 590 l 557 335 l 488 335 l 485 425 l 313 425 l 265 93 q 382 85 354 86 l 517 85 l 571 236 l 646 236 l 617 0 l -4 0 l 6 71 l 104 90 m 264 1088 q 351 1143 308 1143 q 449 1119 386 1143 l 575 1078 l 689 1129 l 726 1088 l 663 1014 q 575 958 615 958 q 478 981 538 958 l 351 1024 l 239 972 l 201 1014 l 264 1088 z "},"F":{"ha":688,"x_min":-4,"x_max":731,"o":"m 6 71 l 104 90 l 207 810 l 110 829 l 119 900 l 731 900 l 693 661 l 608 661 l 608 814 l 458 814 l 365 803 l 318 478 l 503 478 l 529 564 l 599 564 l 561 300 l 494 300 l 492 392 l 308 392 l 264 86 l 399 68 l 392 0 l -4 0 l 6 71 z "},"G":{"ha":811,"x_min":50,"x_max":771,"o":"m 551 33 q 519 15 543 29 q 460 -8 496 0 q 374 -15 425 -15 q 136 72 222 -15 q 50 333 50 160 q 104 624 50 492 q 264 837 158 757 q 518 917 369 917 q 771 888 654 917 l 736 657 l 654 657 l 646 792 q 485 833 571 833 q 296 714 363 833 q 229 344 229 594 q 272 134 229 199 q 418 69 314 69 q 490 81 461 69 q 547 107 518 92 l 583 363 l 435 386 l 442 457 l 743 457 l 683 0 l 588 0 l 563 33 l 551 33 z "},"Ǵ":{"ha":811,"x_min":50,"x_max":771,"o":"m 50 0 m 551 33 q 519 15 543 29 q 460 -8 496 0 q 374 -15 425 -15 q 136 72 222 -15 q 50 333 50 160 q 104 624 50 492 q 264 837 158 757 q 518 917 369 917 q 771 888 654 917 l 736 657 l 654 657 l 646 792 q 485 833 571 833 q 296 714 363 833 q 229 344 229 594 q 272 134 229 199 q 418 69 314 69 q 490 81 461 69 q 547 107 518 92 l 583 363 l 435 386 l 442 457 l 743 457 l 683 0 l 588 0 l 563 33 l 551 33 m 465 1000 l 717 1165 q 768 1082 768 1136 q 754 1044 768 1060 q 703 1015 740 1029 l 499 939 l 465 1000 z "},"Ğ":{"ha":807,"x_min":47,"x_max":768,"o":"m 751 1129 q 655 1010 717 1068 q 490 951 593 951 q 401 970 443 951 q 333 1020 358 989 q 308 1085 308 1051 q 333 1124 308 1104 q 393 1156 357 1143 q 514 1069 439 1069 q 626 1095 579 1069 q 713 1160 672 1121 l 751 1129 m 547 33 q 515 15 539 29 q 456 -8 492 0 q 369 -15 421 -15 q 133 72 218 -15 q 47 333 47 158 q 101 624 47 492 q 260 837 154 757 q 515 917 367 917 q 768 888 646 917 l 733 657 l 650 657 l 642 792 q 481 833 571 833 q 292 714 358 833 q 225 344 225 594 q 267 134 225 199 q 414 69 310 69 q 485 81 457 69 q 543 107 514 92 l 579 363 l 431 386 l 438 457 l 739 457 l 679 0 l 583 0 l 558 33 l 547 33 z "},"Ǧ":{"ha":811,"x_min":50,"x_max":771,"o":"m 50 0 m 551 33 q 519 15 543 29 q 460 -8 496 0 q 374 -15 425 -15 q 136 72 222 -15 q 50 333 50 160 q 104 624 50 492 q 264 837 158 757 q 518 917 369 917 q 771 888 654 917 l 736 657 l 654 657 l 646 792 q 485 833 571 833 q 296 714 363 833 q 229 344 229 594 q 272 134 229 199 q 418 69 314 69 q 490 81 461 69 q 547 107 518 92 l 583 363 l 435 386 l 442 457 l 743 457 l 683 0 l 588 0 l 563 33 l 551 33 m 538 943 q 510 956 526 943 q 478 983 493 969 q 460 1001 464 997 l 353 1101 l 406 1164 l 554 1075 l 717 1163 l 751 1111 l 639 1015 q 570 959 592 975 q 538 943 549 943 z "},"Ĝ":{"ha":811,"x_min":50,"x_max":771,"o":"m 50 0 m 551 33 q 519 15 543 29 q 460 -8 496 0 q 374 -15 425 -15 q 136 72 222 -15 q 50 333 50 160 q 104 624 50 492 q 264 837 158 757 q 518 917 369 917 q 771 888 654 917 l 736 657 l 654 657 l 646 792 q 485 833 571 833 q 296 714 363 833 q 229 344 229 594 q 272 134 229 199 q 418 69 314 69 q 490 81 461 69 q 547 107 518 92 l 583 363 l 435 386 l 442 457 l 743 457 l 683 0 l 588 0 l 563 33 l 551 33 m 465 1092 l 497 1117 q 541 1150 522 1138 q 568 1163 560 1163 q 599 1147 579 1163 q 647 1104 619 1131 l 756 1007 l 704 943 l 550 1031 l 386 949 l 350 1000 l 465 1092 z "},"Ģ":{"ha":807,"x_min":47,"x_max":768,"o":"m 547 33 q 515 15 539 29 q 456 -8 492 0 q 369 -15 421 -15 q 133 72 218 -15 q 47 333 47 158 q 101 624 47 492 q 260 837 154 757 q 515 917 367 917 q 768 888 646 917 l 733 657 l 650 657 l 642 792 q 481 833 571 833 q 292 714 358 833 q 225 344 225 594 q 267 134 225 199 q 414 69 310 69 q 485 81 457 69 q 543 107 514 92 l 579 363 l 431 386 l 438 457 l 739 457 l 679 0 l 583 0 l 558 33 l 547 33 m 290 -257 q 307 -239 294 -253 q 331 -201 319 -225 q 342 -150 342 -178 q 331 -104 342 -124 q 313 -79 321 -85 q 341 -50 322 -62 q 385 -37 360 -37 q 445 -60 424 -37 q 467 -119 467 -83 q 435 -206 467 -168 q 369 -266 404 -244 q 321 -292 335 -287 l 290 -257 z "},"Ġ":{"ha":811,"x_min":50,"x_max":771,"o":"m 50 0 m 551 33 q 519 15 543 29 q 460 -8 496 0 q 374 -15 425 -15 q 136 72 222 -15 q 50 333 50 160 q 104 624 50 492 q 264 837 158 757 q 518 917 369 917 q 771 888 654 917 l 736 657 l 654 657 l 646 792 q 485 833 571 833 q 296 714 363 833 q 229 344 229 594 q 272 134 229 199 q 418 69 314 69 q 490 81 461 69 q 547 107 518 92 l 583 363 l 435 386 l 442 457 l 743 457 l 683 0 l 588 0 l 563 33 l 551 33 m 543 954 q 483 979 507 954 q 460 1040 460 1004 q 485 1115 460 1082 q 558 1149 511 1149 q 619 1124 596 1149 q 643 1060 643 1100 q 617 985 643 1017 q 543 954 590 954 z "},"H":{"ha":932,"x_min":-4,"x_max":944,"o":"m 4 71 l 103 90 l 206 810 l 108 829 l 118 900 l 472 900 l 463 829 l 364 810 l 321 501 l 633 501 l 678 810 l 581 829 l 590 900 l 944 900 l 935 829 l 836 810 l 733 90 l 831 71 l 822 0 l 467 0 l 476 71 l 575 90 l 621 415 l 308 415 l 263 90 l 358 71 l 350 0 l -4 0 l 4 71 z "},"Ħ":{"ha":932,"x_min":-4,"x_max":944,"o":"m 935 829 l 836 810 l 818 681 l 913 681 l 900 596 l 807 596 l 733 90 l 831 71 l 822 0 l 467 0 l 476 71 l 575 90 l 614 369 l 301 369 l 263 90 l 358 71 l 350 0 l -4 0 l 4 71 l 103 90 l 175 596 l 81 596 l 93 681 l 186 681 l 206 810 l 108 829 l 118 900 l 472 900 l 463 829 l 364 810 l 346 681 l 658 681 l 678 810 l 581 829 l 590 900 l 944 900 l 935 829 m 626 456 l 647 596 l 335 596 l 314 456 l 626 456 z "},"Ĥ":{"ha":932,"x_min":-4,"x_max":944,"o":"m 0 0 m 4 71 l 103 90 l 206 810 l 108 829 l 118 900 l 472 900 l 463 829 l 364 810 l 321 501 l 633 501 l 678 810 l 581 829 l 590 900 l 944 900 l 935 829 l 836 810 l 733 90 l 831 71 l 822 0 l 467 0 l 476 71 l 575 90 l 621 415 l 308 415 l 263 90 l 358 71 l 350 0 l -4 0 l 4 71 m 467 1092 l 499 1117 q 542 1150 524 1138 q 569 1163 561 1163 q 601 1147 581 1163 q 649 1104 621 1131 l 757 1007 l 706 943 l 551 1031 l 388 949 l 351 1000 l 467 1092 z "},"Ḥ":{"ha":932,"x_min":-4,"x_max":944,"o":"m 0 0 m 4 71 l 103 90 l 206 810 l 108 829 l 118 900 l 472 900 l 463 829 l 364 810 l 321 501 l 633 501 l 678 810 l 581 829 l 590 900 l 944 900 l 935 829 l 836 810 l 733 90 l 831 71 l 822 0 l 467 0 l 476 71 l 575 90 l 621 415 l 308 415 l 263 90 l 358 71 l 350 0 l -4 0 l 4 71 m 378 -256 q 315 -230 339 -256 q 290 -167 290 -204 q 317 -89 290 -122 q 393 -56 344 -56 q 456 -81 432 -56 q 481 -147 481 -106 q 453 -223 481 -190 q 378 -256 426 -256 z "},"I":{"ha":461,"x_min":-4,"x_max":474,"o":"m 6 71 l 104 90 l 207 810 l 110 829 l 119 900 l 474 900 l 464 829 l 365 810 l 264 90 l 360 71 l 351 0 l -4 0 l 6 71 z "},"Ĳ":{"ha":1035,"x_min":-4,"x_max":1076,"o":"m 0 0 m 6 71 l 104 90 l 207 810 l 110 829 l 119 900 l 474 900 l 464 829 l 365 810 l 264 90 l 360 71 l 351 0 l -4 0 l 6 71 m 557 250 l 576 83 q 596 74 576 82 q 639 67 615 67 q 697 84 679 67 q 722 157 714 101 l 811 808 l 706 829 l 714 900 l 1076 900 l 1069 829 l 971 810 l 883 171 q 813 26 869 71 q 626 -19 756 -19 q 519 -7 575 -19 q 440 18 464 6 l 469 250 l 557 250 z "},"Í":{"ha":461,"x_min":-4,"x_max":479,"o":"m 178 1000 l 429 1165 q 479 1082 479 1138 q 465 1044 479 1060 q 415 1015 451 1028 l 210 939 l 178 1000 m 6 71 l 104 90 l 206 810 l 110 829 l 118 900 l 472 900 l 464 829 l 365 810 l 264 90 l 360 71 l 350 0 l -4 0 l 6 71 z "},"Ĭ":{"ha":461,"x_min":-4,"x_max":543,"o":"m 0 0 m 6 71 l 104 90 l 207 810 l 110 829 l 119 900 l 474 900 l 464 829 l 365 810 l 264 90 l 360 71 l 351 0 l -4 0 l 6 71 m 543 1129 q 447 1010 508 1068 q 282 951 385 951 q 193 970 235 951 q 126 1020 151 989 q 101 1085 101 1051 q 126 1123 101 1104 q 185 1156 150 1142 q 306 1069 231 1069 q 504 1160 414 1069 l 543 1129 z "},"Ǐ":{"ha":461,"x_min":-4,"x_max":521,"o":"m 0 0 m 6 71 l 104 90 l 207 810 l 110 829 l 119 900 l 474 900 l 464 829 l 365 810 l 264 90 l 360 71 l 351 0 l -4 0 l 6 71 m 307 943 q 279 956 296 943 q 248 983 263 969 q 229 1001 233 997 l 122 1101 l 175 1164 l 324 1075 l 486 1163 l 521 1111 l 408 1015 q 340 959 361 975 q 307 943 318 943 z "},"Î":{"ha":454,"x_min":-11,"x_max":511,"o":"m 222 1092 l 250 1114 q 296 1149 276 1135 q 324 1163 315 1163 q 355 1147 335 1163 q 403 1104 375 1131 l 511 1007 l 460 943 l 306 1031 l 142 949 l 106 1000 l 222 1092 m -1 71 l 97 90 l 199 810 l 103 829 l 113 900 l 467 900 l 457 829 l 358 810 l 257 90 l 353 71 l 343 0 l -11 0 l -1 71 z "},"Ȉ":{"ha":461,"x_min":-4,"x_max":478,"o":"m 0 0 m 6 71 l 104 90 l 207 810 l 110 829 l 119 900 l 474 900 l 464 829 l 365 810 l 264 90 l 360 71 l 351 0 l -4 0 l 6 71 m 74 1011 q 44 1044 57 1025 q 32 1082 32 1064 q 67 1142 32 1115 q 142 1169 103 1168 l 232 969 l 174 926 l 74 1011 m 319 1011 q 289 1044 301 1025 q 276 1082 276 1064 q 313 1142 276 1115 q 388 1169 349 1168 l 478 969 l 418 926 l 319 1011 z "},"Ï":{"ha":461,"x_min":-4,"x_max":550,"o":"m 163 957 q 104 981 126 957 q 82 1042 82 1006 q 107 1113 82 1082 q 175 1144 132 1144 q 234 1121 211 1144 q 257 1058 257 1097 q 231 987 257 1017 q 163 957 206 957 m 456 957 q 398 981 421 957 q 375 1042 375 1006 q 401 1113 375 1082 q 469 1144 426 1144 q 528 1121 506 1144 q 550 1058 550 1097 q 525 987 550 1017 q 456 957 500 957 m 6 71 l 104 90 l 206 810 l 110 829 l 118 900 l 472 900 l 464 829 l 365 810 l 264 90 l 360 71 l 350 0 l -4 0 l 6 71 z "},"İ":{"ha":458,"x_min":-7,"x_max":471,"o":"m 314 954 q 254 979 278 954 q 231 1040 231 1004 q 256 1115 231 1082 q 329 1149 282 1149 q 390 1124 367 1149 q 414 1060 414 1100 q 388 986 414 1018 q 314 954 361 954 m 3 71 l 101 90 l 203 810 l 107 829 l 117 900 l 471 900 l 461 829 l 363 810 l 261 90 l 357 71 l 347 0 l -7 0 l 3 71 z "},"Ị":{"ha":461,"x_min":-4,"x_max":474,"o":"m 0 0 m 6 71 l 104 90 l 207 810 l 110 829 l 119 900 l 474 900 l 464 829 l 365 810 l 264 90 l 360 71 l 351 0 l -4 0 l 6 71 m 144 -256 q 81 -230 106 -256 q 57 -167 57 -204 q 84 -89 57 -122 q 160 -56 111 -56 q 223 -81 199 -56 q 247 -147 247 -106 q 220 -223 247 -190 q 144 -256 193 -256 z "},"Ì":{"ha":461,"x_min":-4,"x_max":472,"o":"m 214 1015 q 164 1043 178 1028 q 150 1081 150 1058 q 200 1165 150 1136 l 451 1000 l 419 939 l 214 1015 m 6 71 l 104 90 l 206 810 l 110 829 l 118 900 l 472 900 l 464 829 l 365 810 l 264 90 l 360 71 l 350 0 l -4 0 l 6 71 z "},"Ỉ":{"ha":461,"x_min":-4,"x_max":490,"o":"m 0 0 m 6 71 l 104 90 l 207 810 l 110 829 l 119 900 l 474 900 l 464 829 l 365 810 l 264 90 l 360 71 l 351 0 l -4 0 l 6 71 m 265 939 q 258 965 258 956 q 270 994 258 983 q 319 1019 282 1006 q 365 1060 365 1038 q 315 1086 365 1086 q 231 1075 272 1086 q 215 1119 215 1097 q 322 1172 215 1172 q 446 1149 401 1172 q 490 1081 490 1125 q 462 1020 490 1046 q 390 981 433 994 q 361 965 368 972 q 353 944 354 958 l 265 939 z "},"Ȋ":{"ha":461,"x_min":-4,"x_max":543,"o":"m 0 0 m 6 71 l 104 90 l 207 810 l 110 829 l 119 900 l 474 900 l 464 829 l 365 810 l 264 90 l 360 71 l 351 0 l -4 0 l 6 71 m 101 983 q 197 1100 133 1040 q 363 1160 260 1160 q 451 1141 410 1160 q 518 1091 493 1122 q 543 1026 543 1060 q 519 988 543 1007 q 458 956 494 968 q 339 1042 415 1042 q 140 951 231 1042 l 101 983 z "},"Ī":{"ha":461,"x_min":-4,"x_max":524,"o":"m 110 1100 l 524 1100 l 511 996 l 96 996 l 110 1100 m 6 71 l 104 90 l 206 810 l 110 829 l 118 900 l 472 900 l 464 829 l 365 810 l 264 90 l 360 71 l 350 0 l -4 0 l 6 71 z "},"Į":{"ha":461,"x_min":-4,"x_max":472,"o":"m 104 90 l 206 810 l 110 829 l 118 900 l 472 900 l 464 829 l 365 810 l 264 90 l 360 71 l 350 0 l 231 0 q 158 -118 158 -56 q 210 -168 158 -168 q 285 -140 243 -168 l 314 -185 q 292 -205 314 -186 q 236 -239 269 -224 q 164 -254 203 -254 q 74 -231 107 -254 q 40 -160 40 -208 q 71 -69 40 -110 q 150 0 101 -29 l -4 0 l 6 71 l 104 90 z "},"Ĩ":{"ha":461,"x_min":-4,"x_max":585,"o":"m 0 0 m 6 71 l 104 90 l 207 810 l 110 829 l 119 900 l 474 900 l 464 829 l 365 810 l 264 90 l 360 71 l 351 0 l -4 0 l 6 71 m 122 1088 q 210 1143 167 1143 q 307 1119 244 1143 l 433 1078 l 547 1129 l 585 1088 l 521 1014 q 433 958 474 958 q 336 981 396 958 l 210 1024 l 97 972 l 60 1014 l 122 1088 z "},"J":{"ha":574,"x_min":-21,"x_max":615,"o":"m 96 250 l 115 83 q 135 74 115 82 q 178 67 154 67 q 235 84 218 67 q 261 157 253 101 l 350 808 l 244 829 l 253 900 l 615 900 l 608 829 l 510 810 l 422 171 q 351 26 408 71 q 165 -19 294 -19 q 58 -7 114 -19 q -21 18 3 6 l 8 250 l 96 250 z "},"Ĵ":{"ha":574,"x_min":-21,"x_max":667,"o":"m 0 0 m 96 250 l 115 83 q 135 74 115 82 q 178 67 154 67 q 235 84 218 67 q 261 157 253 101 l 350 808 l 244 829 l 253 900 l 615 900 l 608 829 l 510 810 l 422 171 q 351 26 408 71 q 165 -19 294 -19 q 58 -7 114 -19 q -21 18 3 6 l 8 250 l 96 250 m 376 1092 l 408 1117 q 452 1150 433 1138 q 479 1163 471 1163 q 510 1147 490 1163 q 558 1104 531 1131 l 667 1007 l 615 943 l 461 1031 l 297 949 l 261 1000 l 376 1092 z "},"K":{"ha":760,"x_min":-4,"x_max":835,"o":"m 104 90 l 207 810 l 110 829 l 119 900 l 474 900 l 464 829 l 365 810 l 321 499 l 347 499 l 617 803 l 617 813 l 546 829 l 554 900 l 835 900 l 825 829 l 744 811 l 465 499 l 674 92 l 772 71 l 763 0 l 590 0 q 547 13 561 0 q 517 56 532 25 l 338 422 l 311 422 l 264 90 l 360 71 l 351 0 l -4 0 l 6 71 l 104 90 z "},"Ķ":{"ha":760,"x_min":-7,"x_max":832,"o":"m 101 90 l 203 810 l 107 829 l 117 900 l 471 900 l 461 829 l 363 810 l 318 499 l 344 499 l 614 803 l 614 813 l 543 829 l 551 900 l 832 900 l 822 829 l 742 811 l 463 499 l 669 93 l 769 71 l 760 0 l 586 0 q 542 13 557 0 q 513 56 528 25 l 332 422 l 308 422 l 261 90 l 357 71 l 347 0 l -7 0 l 3 71 l 101 90 m 282 -257 q 299 -239 286 -253 q 322 -201 311 -225 q 333 -150 333 -178 q 323 -106 333 -125 q 304 -79 313 -87 q 333 -50 314 -62 q 376 -37 351 -37 q 437 -60 415 -37 q 458 -119 458 -83 q 404 -233 458 -189 q 313 -292 350 -276 l 282 -257 z "},"L":{"ha":625,"x_min":-4,"x_max":608,"o":"m 6 71 l 104 90 l 206 810 l 110 829 l 118 900 l 472 900 l 464 829 l 365 810 l 264 90 l 322 81 l 474 81 l 532 236 l 608 236 l 578 0 l -4 0 l 6 71 z "},"Ǉ":{"ha":1217,"x_min":-4,"x_max":1258,"o":"m 0 0 m 6 71 l 104 90 l 206 810 l 110 829 l 118 900 l 472 900 l 464 829 l 365 810 l 264 90 l 322 81 l 474 81 l 532 236 l 608 236 l 578 0 l -4 0 l 6 71 m 739 250 l 758 83 q 778 74 758 82 q 821 67 797 67 q 878 84 861 67 q 904 157 896 101 l 993 808 l 888 829 l 896 900 l 1258 900 l 1251 829 l 1153 810 l 1065 171 q 994 26 1051 71 q 808 -19 938 -19 q 701 -7 757 -19 q 622 18 646 6 l 651 250 l 739 250 z "},"Ĺ":{"ha":625,"x_min":-7,"x_max":606,"o":"m 176 1000 l 428 1165 q 478 1082 478 1136 q 464 1044 478 1060 q 414 1015 450 1028 l 208 939 l 176 1000 m 3 71 l 101 90 l 203 810 l 107 829 l 117 900 l 471 900 l 461 829 l 363 810 l 261 90 l 321 81 l 472 81 l 529 236 l 606 236 l 575 0 l -7 0 l 3 71 z "},"Ľ":{"ha":625,"x_min":-7,"x_max":693,"o":"m 533 792 q 546 810 536 796 q 564 851 556 825 q 572 906 572 876 q 567 947 572 929 q 556 971 561 964 q 622 1011 579 1011 q 676 992 658 1011 q 693 942 693 972 q 665 850 693 890 q 606 786 638 810 q 563 758 574 763 l 533 792 m 3 71 l 101 90 l 203 810 l 107 829 l 117 900 l 471 900 l 461 829 l 363 810 l 261 90 l 321 81 l 472 81 l 529 236 l 606 236 l 575 0 l -7 0 l 3 71 z "},"Ļ":{"ha":625,"x_min":-7,"x_max":606,"o":"m 3 71 l 101 90 l 203 810 l 107 829 l 117 900 l 471 900 l 461 829 l 363 810 l 261 90 l 321 81 l 472 81 l 529 236 l 606 236 l 575 0 l -7 0 l 3 71 m 194 -257 q 210 -239 199 -253 q 233 -201 222 -225 q 244 -150 244 -178 q 235 -106 244 -125 q 217 -79 225 -87 q 245 -50 226 -62 q 289 -37 264 -37 q 349 -60 328 -37 q 369 -119 369 -82 q 315 -233 369 -189 q 225 -292 261 -276 l 194 -257 z "},"Ŀ":{"ha":625,"x_min":-4,"x_max":615,"o":"m 0 0 m 6 71 l 104 90 l 206 810 l 110 829 l 118 900 l 472 900 l 464 829 l 365 810 l 264 90 l 322 81 l 474 81 l 532 236 l 608 236 l 578 0 l -4 0 l 6 71 m 508 424 q 450 446 472 424 q 428 504 428 468 q 456 586 428 551 q 535 621 485 621 q 593 599 571 621 q 615 540 615 576 q 586 458 615 492 q 508 424 557 424 z "},"ǈ":{"ha":1010,"x_min":-4,"x_max":982,"o":"m 0 0 m 6 71 l 104 90 l 206 810 l 110 829 l 118 900 l 472 900 l 464 829 l 365 810 l 264 90 l 322 81 l 474 81 l 532 236 l 608 236 l 578 0 l -4 0 l 6 71 m 893 996 q 957 970 932 996 q 982 903 982 944 q 954 827 982 860 q 878 794 926 794 q 815 820 839 794 q 790 883 790 846 q 817 962 790 928 q 893 996 844 996 m 697 679 l 946 706 l 946 583 l 871 56 q 815 -97 858 -31 q 706 -199 772 -162 q 561 -236 640 -236 q 497 -221 517 -236 q 476 -171 476 -206 q 484 -132 476 -149 q 497 -110 492 -115 l 603 -110 q 652 -105 631 -110 q 676 -94 674 -100 q 718 38 706 -50 l 803 582 l 697 606 l 697 679 z "},"Ł":{"ha":624,"x_min":-7,"x_max":606,"o":"m 3 71 l 101 90 l 139 358 l 28 315 l 28 403 l 153 453 l 203 810 l 107 829 l 117 900 l 471 900 l 461 829 l 363 810 l 321 519 l 464 578 l 464 486 l 308 425 l 261 90 l 321 81 l 472 81 l 529 236 l 606 236 l 575 0 l -7 0 l 3 71 z "},"M":{"ha":1069,"x_min":-3,"x_max":1079,"o":"m 7 71 l 106 90 l 207 810 l 111 829 l 121 900 l 408 900 l 497 296 l 500 249 l 504 250 l 517 296 l 786 900 l 1079 900 l 1071 829 l 972 810 l 871 90 l 967 71 l 957 0 l 603 0 l 613 71 l 711 90 l 790 639 l 800 685 l 793 685 l 490 0 l 403 0 l 296 681 l 290 681 l 289 646 l 210 90 l 307 71 l 300 0 l -3 0 l 7 71 z "},"N":{"ha":897,"x_min":-7,"x_max":925,"o":"m 3 71 l 101 90 l 203 810 l 107 829 l 117 900 l 361 900 l 625 257 l 629 236 l 636 236 l 636 256 l 715 810 l 618 829 l 626 900 l 925 900 l 917 829 l 818 810 l 706 0 l 565 0 l 297 651 l 294 671 l 289 671 l 206 90 l 303 71 l 296 0 l -7 0 l 3 71 z "},"Ǌ":{"ha":1471,"x_min":-7,"x_max":1513,"o":"m 0 0 m 3 71 l 101 90 l 203 810 l 107 829 l 117 900 l 361 900 l 625 257 l 629 236 l 636 236 l 636 256 l 715 810 l 618 829 l 626 900 l 925 900 l 917 829 l 818 810 l 706 0 l 565 0 l 297 651 l 294 671 l 289 671 l 206 90 l 303 71 l 296 0 l -7 0 l 3 71 m 993 250 l 1013 83 q 1032 74 1013 82 q 1075 67 1051 67 q 1133 84 1115 67 q 1158 157 1150 101 l 1247 808 l 1142 829 l 1150 900 l 1513 900 l 1506 829 l 1407 810 l 1319 171 q 1249 26 1306 71 q 1063 -19 1192 -19 q 956 -7 1011 -19 q 876 18 900 6 l 906 250 l 993 250 z "},"Ń":{"ha":897,"x_min":-7,"x_max":925,"o":"m 408 1001 l 646 1167 q 710 1083 710 1143 q 696 1044 710 1060 q 644 1017 682 1029 l 440 942 l 408 1001 m 3 71 l 101 90 l 203 810 l 107 829 l 117 900 l 361 900 l 625 257 l 629 236 l 636 236 l 636 256 l 715 810 l 618 829 l 626 900 l 925 900 l 917 829 l 818 810 l 706 0 l 565 0 l 297 651 l 294 671 l 289 671 l 206 90 l 303 71 l 296 0 l -7 0 l 3 71 z "},"Ň":{"ha":897,"x_min":-7,"x_max":925,"o":"m 397 1164 l 546 1075 l 708 1163 l 743 1111 l 631 1015 q 562 959 583 975 q 529 943 540 943 q 501 956 518 943 q 470 983 485 969 q 451 1001 456 997 l 344 1101 l 397 1164 m 3 71 l 101 90 l 203 810 l 107 829 l 117 900 l 361 900 l 625 257 l 629 236 l 636 236 l 636 256 l 715 810 l 618 829 l 626 900 l 925 900 l 917 829 l 818 810 l 706 0 l 565 0 l 297 651 l 294 671 l 289 671 l 206 90 l 303 71 l 296 0 l -7 0 l 3 71 z "},"Ņ":{"ha":897,"x_min":-7,"x_max":925,"o":"m 3 71 l 101 90 l 203 810 l 107 829 l 117 900 l 361 900 l 625 257 l 629 236 l 636 236 l 636 256 l 715 810 l 618 829 l 626 900 l 925 900 l 917 829 l 818 810 l 706 0 l 565 0 l 297 651 l 294 671 l 289 671 l 206 90 l 303 71 l 296 0 l -7 0 l 3 71 m 299 -257 q 315 -239 303 -253 q 338 -201 326 -225 q 349 -150 349 -178 q 338 -104 349 -124 q 319 -79 328 -85 q 349 -50 331 -62 q 393 -37 368 -37 q 453 -60 432 -37 q 474 -119 474 -82 q 442 -206 474 -168 q 376 -266 411 -244 q 328 -292 342 -287 l 299 -257 z "},"Ṅ":{"ha":897,"x_min":-7,"x_max":925,"o":"m 0 0 m 3 71 l 101 90 l 203 810 l 107 829 l 117 900 l 361 900 l 625 257 l 629 236 l 636 236 l 636 256 l 715 810 l 618 829 l 626 900 l 925 900 l 917 829 l 818 810 l 706 0 l 565 0 l 297 651 l 294 671 l 289 671 l 206 90 l 303 71 l 296 0 l -7 0 l 3 71 m 539 954 q 479 979 503 954 q 456 1040 456 1004 q 481 1115 456 1082 q 554 1149 507 1149 q 615 1124 592 1149 q 639 1060 639 1100 q 613 985 639 1017 q 539 954 586 954 z "},"Ŋ":{"ha":897,"x_min":-7,"x_max":925,"o":"m 925 900 l 917 829 l 818 810 l 714 57 q 659 -96 703 -29 q 549 -199 615 -162 q 404 -236 483 -236 q 340 -221 360 -236 q 319 -171 319 -206 q 324 -140 319 -154 q 333 -119 328 -126 q 339 -110 338 -111 l 446 -110 q 495 -105 474 -110 q 519 -94 517 -100 q 558 21 546 -50 l 299 649 l 294 671 l 289 671 l 206 90 l 303 71 l 296 0 l -7 0 l 3 71 l 101 90 l 203 810 l 107 829 l 117 900 l 361 900 l 622 264 l 629 236 l 636 236 l 638 264 l 715 810 l 618 829 l 626 900 l 925 900 z "},"Ɲ":{"ha":897,"x_min":-149,"x_max":925,"o":"m 925 900 l 917 829 l 818 810 l 706 0 l 565 0 l 299 649 l 294 671 l 289 671 l 203 56 q 111 -156 185 -75 q -64 -236 38 -236 q -128 -222 -108 -236 q -149 -171 -149 -207 q -144 -140 -149 -154 q -135 -119 -140 -126 q -129 -110 -131 -111 l -22 -110 q 24 -104 4 -110 q 51 -93 44 -99 q 93 38 78 -60 l 203 810 l 107 829 l 117 900 l 361 900 l 622 264 l 629 236 l 636 236 l 638 263 l 715 810 l 618 829 l 626 900 l 925 900 z "},"ǋ":{"ha":1282,"x_min":-7,"x_max":1254,"o":"m 0 0 m 3 71 l 101 90 l 203 810 l 107 829 l 117 900 l 361 900 l 625 257 l 629 236 l 636 236 l 636 256 l 715 810 l 618 829 l 626 900 l 925 900 l 917 829 l 818 810 l 706 0 l 565 0 l 297 651 l 294 671 l 289 671 l 206 90 l 303 71 l 296 0 l -7 0 l 3 71 m 1165 996 q 1229 970 1204 996 q 1254 903 1254 944 q 1226 827 1254 860 q 1150 794 1199 794 q 1087 820 1111 794 q 1063 883 1063 846 q 1090 962 1063 928 q 1165 996 1117 996 m 969 679 l 1218 706 l 1218 583 l 1143 56 q 1088 -97 1131 -31 q 978 -199 1044 -162 q 833 -236 913 -236 q 769 -221 789 -236 q 749 -171 749 -206 q 756 -132 749 -149 q 769 -110 764 -115 l 875 -110 q 924 -105 903 -110 q 949 -94 946 -100 q 990 38 978 -50 l 1075 582 l 969 606 l 969 679 z "},"Ñ":{"ha":897,"x_min":-7,"x_max":925,"o":"m 357 1088 q 444 1143 401 1143 q 542 1119 479 1143 l 668 1078 l 782 1129 l 819 1088 l 756 1014 q 668 958 708 958 q 571 981 631 958 l 444 1024 l 332 972 l 294 1014 l 357 1088 m 3 71 l 101 90 l 203 810 l 107 829 l 117 900 l 361 900 l 625 257 l 629 236 l 636 236 l 636 256 l 715 810 l 618 829 l 626 900 l 925 900 l 917 829 l 818 810 l 706 0 l 565 0 l 297 651 l 294 671 l 289 671 l 206 90 l 303 71 l 296 0 l -7 0 l 3 71 z "},"O":{"ha":907,"x_min":49,"x_max":858,"o":"m 389 -15 q 213 26 290 -15 q 92 148 136 67 q 49 343 49 229 q 108 645 49 515 q 270 846 167 775 q 506 917 374 917 q 771 817 683 917 q 858 558 858 717 q 806 263 858 392 q 647 59 753 133 q 389 -15 542 -15 m 421 69 q 620 189 560 69 q 681 561 681 308 q 631 772 681 710 q 485 833 582 833 q 288 716 349 833 q 228 349 228 599 q 276 133 228 197 q 421 69 324 69 z "},"Ó":{"ha":907,"x_min":49,"x_max":858,"o":"m 636 1174 q 672 1142 657 1163 q 686 1090 686 1121 q 672 1052 686 1068 q 622 1024 658 1036 l 417 949 l 385 1008 l 636 1174 m 389 -15 q 213 26 290 -15 q 92 148 136 67 q 49 343 49 229 q 108 645 49 515 q 270 846 167 775 q 506 917 374 917 q 771 817 683 917 q 858 558 858 717 q 806 263 858 392 q 647 59 753 133 q 389 -15 542 -15 m 421 69 q 620 189 560 69 q 681 561 681 308 q 631 772 681 710 q 485 833 582 833 q 288 716 349 833 q 228 349 228 599 q 276 133 228 197 q 421 69 324 69 z "},"Ŏ":{"ha":907,"x_min":49,"x_max":858,"o":"m 49 0 m 389 -15 q 213 26 290 -15 q 92 148 136 67 q 49 343 49 229 q 108 645 49 515 q 270 846 167 775 q 506 917 374 917 q 771 817 683 917 q 858 558 858 717 q 806 263 858 392 q 647 59 753 133 q 389 -15 542 -15 m 421 69 q 620 189 560 69 q 681 561 681 308 q 631 772 681 710 q 485 833 582 833 q 288 716 349 833 q 228 349 228 599 q 276 133 228 197 q 421 69 324 69 m 749 1129 q 652 1010 714 1068 q 488 951 590 951 q 399 970 440 951 q 332 1020 357 989 q 307 1085 307 1051 q 331 1123 307 1104 q 390 1156 356 1142 q 511 1069 436 1069 q 710 1160 619 1069 l 749 1129 z "},"Ǒ":{"ha":907,"x_min":49,"x_max":858,"o":"m 49 0 m 389 -15 q 213 26 290 -15 q 92 148 136 67 q 49 343 49 229 q 108 645 49 515 q 270 846 167 775 q 506 917 374 917 q 771 817 683 917 q 858 558 858 717 q 806 263 858 392 q 647 59 753 133 q 389 -15 542 -15 m 421 69 q 620 189 560 69 q 681 561 681 308 q 631 772 681 710 q 485 833 582 833 q 288 716 349 833 q 228 349 228 599 q 276 133 228 197 q 421 69 324 69 m 513 943 q 485 956 501 943 q 453 983 468 969 q 435 1001 439 997 l 328 1101 l 381 1164 l 529 1075 l 692 1163 l 726 1111 l 614 1015 q 545 959 567 975 q 513 943 524 943 z "},"Ô":{"ha":907,"x_min":49,"x_max":858,"o":"m 442 1101 l 469 1124 q 515 1158 496 1144 q 543 1172 535 1172 q 587 1146 558 1171 q 624 1114 615 1121 l 731 1015 l 679 953 l 526 1040 l 361 957 l 326 1008 l 442 1101 m 389 -15 q 213 26 290 -15 q 92 148 136 67 q 49 343 49 229 q 108 645 49 515 q 270 846 167 775 q 506 917 374 917 q 771 817 683 917 q 858 558 858 717 q 806 263 858 392 q 647 59 753 133 q 389 -15 542 -15 m 421 69 q 620 189 560 69 q 681 561 681 308 q 631 772 681 710 q 485 833 582 833 q 288 716 349 833 q 228 349 228 599 q 276 133 228 197 q 421 69 324 69 z "},"Ố":{"ha":907,"x_min":49,"x_max":889,"o":"m 49 0 m 389 -15 q 213 26 290 -15 q 92 148 136 67 q 49 343 49 229 q 108 645 49 515 q 270 846 167 775 q 506 917 374 917 q 771 817 683 917 q 858 558 858 717 q 806 263 858 392 q 647 59 753 133 q 389 -15 542 -15 m 421 69 q 620 189 560 69 q 681 561 681 308 q 631 772 681 710 q 485 833 582 833 q 288 716 349 833 q 228 349 228 599 q 276 133 228 197 q 421 69 324 69 m 422 1092 l 454 1117 q 498 1150 479 1138 q 525 1163 517 1163 q 556 1147 536 1163 q 604 1104 576 1131 l 713 1007 l 661 943 l 507 1031 l 343 949 l 307 1000 l 422 1092 m 586 1192 l 838 1357 q 889 1274 889 1328 q 875 1236 889 1251 q 824 1207 861 1221 l 619 1131 l 586 1192 z "},"Ộ":{"ha":907,"x_min":49,"x_max":858,"o":"m 49 0 m 389 -15 q 213 26 290 -15 q 92 148 136 67 q 49 343 49 229 q 108 645 49 515 q 270 846 167 775 q 506 917 374 917 q 771 817 683 917 q 858 558 858 717 q 806 263 858 392 q 647 59 753 133 q 389 -15 542 -15 m 421 69 q 620 189 560 69 q 681 561 681 308 q 631 772 681 710 q 485 833 582 833 q 288 716 349 833 q 228 349 228 599 q 276 133 228 197 q 421 69 324 69 m 375 -256 q 312 -230 336 -256 q 288 -167 288 -204 q 315 -89 288 -122 q 390 -56 342 -56 q 453 -81 429 -56 q 478 -147 478 -106 q 451 -223 478 -190 q 375 -256 424 -256 m 440 1092 l 472 1117 q 516 1150 497 1138 q 543 1163 535 1163 q 574 1147 554 1163 q 622 1104 594 1131 l 731 1007 l 679 943 l 525 1031 l 361 949 l 325 1000 l 440 1092 z "},"Ồ":{"ha":907,"x_min":49,"x_max":858,"o":"m 49 0 m 389 -15 q 213 26 290 -15 q 92 148 136 67 q 49 343 49 229 q 108 645 49 515 q 270 846 167 775 q 506 917 374 917 q 771 817 683 917 q 858 558 858 717 q 806 263 858 392 q 647 59 753 133 q 389 -15 542 -15 m 421 69 q 620 189 560 69 q 681 561 681 308 q 631 772 681 710 q 485 833 582 833 q 288 716 349 833 q 228 349 228 599 q 276 133 228 197 q 421 69 324 69 m 425 1092 l 457 1117 q 501 1150 482 1138 q 528 1163 519 1163 q 559 1147 539 1163 q 607 1104 579 1131 l 715 1007 l 664 943 l 510 1031 l 346 949 l 310 1000 l 425 1092 m 536 1207 q 485 1235 500 1219 q 471 1272 471 1250 q 522 1357 471 1329 l 774 1192 l 742 1131 l 536 1207 z "},"Ổ":{"ha":907,"x_min":49,"x_max":858,"o":"m 49 0 m 389 -15 q 213 26 290 -15 q 92 148 136 67 q 49 343 49 229 q 108 645 49 515 q 270 846 167 775 q 506 917 374 917 q 771 817 683 917 q 858 558 858 717 q 806 263 858 392 q 647 59 753 133 q 389 -15 542 -15 m 421 69 q 620 189 560 69 q 681 561 681 308 q 631 772 681 710 q 485 833 582 833 q 288 716 349 833 q 228 349 228 599 q 276 133 228 197 q 421 69 324 69 m 403 1092 l 435 1117 q 478 1150 460 1138 q 506 1163 497 1163 q 537 1147 517 1163 q 585 1104 557 1131 l 693 1007 l 642 943 l 488 1031 l 324 949 l 288 1000 l 403 1092 m 624 1115 q 617 1142 617 1132 q 628 1171 617 1160 q 678 1196 640 1182 q 724 1236 724 1214 q 674 1263 724 1263 q 589 1251 631 1263 q 574 1296 574 1274 q 681 1349 574 1349 q 804 1325 760 1349 q 849 1257 849 1301 q 820 1197 849 1222 q 749 1157 792 1171 q 719 1142 726 1149 q 711 1121 713 1135 l 624 1115 z "},"Ỗ":{"ha":907,"x_min":49,"x_max":858,"o":"m 340 1306 q 428 1354 385 1354 q 525 1333 463 1354 l 651 1297 l 765 1342 l 803 1306 l 739 1242 q 651 1193 693 1193 q 605 1199 631 1193 q 554 1213 579 1206 l 428 1250 l 315 1206 l 278 1242 l 340 1306 m 429 1092 l 461 1117 q 505 1150 486 1138 q 532 1163 524 1163 q 563 1147 543 1163 q 611 1104 583 1131 l 719 1007 l 668 943 l 514 1031 l 350 949 l 314 1000 l 429 1092 m 389 -15 q 213 26 290 -15 q 92 148 136 67 q 49 343 49 229 q 108 645 49 515 q 270 846 167 775 q 506 917 374 917 q 771 817 683 917 q 858 558 858 717 q 806 263 858 392 q 647 59 753 133 q 389 -15 542 -15 m 421 69 q 620 189 560 69 q 681 561 681 308 q 631 772 681 710 q 485 833 582 833 q 288 716 349 833 q 228 349 228 599 q 276 133 228 197 q 421 69 324 69 z "},"Ȍ":{"ha":907,"x_min":49,"x_max":858,"o":"m 49 0 m 389 -15 q 213 26 290 -15 q 92 148 136 67 q 49 343 49 229 q 108 645 49 515 q 270 846 167 775 q 506 917 374 917 q 771 817 683 917 q 858 558 858 717 q 806 263 858 392 q 647 59 753 133 q 389 -15 542 -15 m 421 69 q 620 189 560 69 q 681 561 681 308 q 631 772 681 710 q 485 833 582 833 q 288 716 349 833 q 228 349 228 599 q 276 133 228 197 q 421 69 324 69 m 279 1011 q 250 1044 263 1025 q 238 1082 238 1064 q 273 1142 238 1115 q 347 1169 308 1168 l 438 969 l 379 926 l 279 1011 m 525 1011 q 494 1044 507 1025 q 482 1082 482 1064 q 518 1142 482 1115 q 593 1169 554 1168 l 683 969 l 624 926 l 525 1011 z "},"Ö":{"ha":907,"x_min":49,"x_max":858,"o":"m 372 965 q 314 990 336 965 q 292 1051 292 1014 q 317 1122 292 1092 q 385 1153 342 1153 q 444 1129 421 1153 q 467 1067 467 1106 q 442 996 467 1026 q 372 965 417 965 m 676 965 q 618 990 640 965 q 596 1051 596 1014 q 621 1122 596 1092 q 689 1153 646 1153 q 748 1129 725 1153 q 771 1067 771 1106 q 746 996 771 1026 q 676 965 721 965 m 389 -15 q 213 26 290 -15 q 92 148 136 67 q 49 343 49 229 q 108 645 49 515 q 270 846 167 775 q 506 917 374 917 q 771 817 683 917 q 858 558 858 717 q 806 263 858 392 q 647 59 753 133 q 389 -15 542 -15 m 421 69 q 620 189 560 69 q 681 561 681 308 q 631 772 681 710 q 485 833 582 833 q 288 716 349 833 q 228 349 228 599 q 276 133 228 197 q 421 69 324 69 z "},"Ọ":{"ha":907,"x_min":49,"x_max":858,"o":"m 49 0 m 389 -15 q 213 26 290 -15 q 92 148 136 67 q 49 343 49 229 q 108 645 49 515 q 270 846 167 775 q 506 917 374 917 q 771 817 683 917 q 858 558 858 717 q 806 263 858 392 q 647 59 753 133 q 389 -15 542 -15 m 421 69 q 620 189 560 69 q 681 561 681 308 q 631 772 681 710 q 485 833 582 833 q 288 716 349 833 q 228 349 228 599 q 276 133 228 197 q 421 69 324 69 m 375 -256 q 312 -230 336 -256 q 288 -167 288 -204 q 315 -89 288 -122 q 390 -56 342 -56 q 453 -81 429 -56 q 478 -147 478 -106 q 451 -223 478 -190 q 375 -256 424 -256 z "},"Ò":{"ha":907,"x_min":49,"x_max":858,"o":"m 424 1024 q 373 1052 388 1036 q 358 1090 358 1068 q 410 1174 358 1146 l 661 1008 l 629 949 l 424 1024 m 389 -15 q 213 26 290 -15 q 92 148 136 67 q 49 343 49 229 q 108 645 49 515 q 270 846 167 775 q 506 917 374 917 q 771 817 683 917 q 858 558 858 717 q 806 263 858 392 q 647 59 753 133 q 389 -15 542 -15 m 421 69 q 620 189 560 69 q 681 561 681 308 q 631 772 681 710 q 485 833 582 833 q 288 716 349 833 q 228 349 228 599 q 276 133 228 197 q 421 69 324 69 z "},"Ỏ":{"ha":907,"x_min":49,"x_max":858,"o":"m 49 0 m 389 -15 q 213 26 290 -15 q 92 148 136 67 q 49 343 49 229 q 108 645 49 515 q 270 846 167 775 q 506 917 374 917 q 771 817 683 917 q 858 558 858 717 q 806 263 858 392 q 647 59 753 133 q 389 -15 542 -15 m 421 69 q 620 189 560 69 q 681 561 681 308 q 631 772 681 710 q 485 833 582 833 q 288 716 349 833 q 228 349 228 599 q 276 133 228 197 q 421 69 324 69 m 471 939 q 464 965 464 956 q 476 994 464 983 q 525 1019 488 1006 q 571 1060 571 1038 q 521 1086 571 1086 q 436 1075 478 1086 q 421 1119 421 1097 q 528 1172 421 1172 q 651 1149 607 1172 q 696 1081 696 1125 q 667 1020 696 1046 q 596 981 639 994 q 567 965 574 972 q 558 944 560 958 l 471 939 z "},"Ơ":{"ha":907,"x_min":49,"x_max":1082,"o":"m 1082 921 q 1028 806 1082 869 q 846 672 974 743 q 858 558 858 618 q 806 263 858 392 q 647 59 753 133 q 389 -15 542 -15 q 213 26 290 -15 q 92 148 136 67 q 49 343 49 229 q 108 645 49 515 q 270 846 167 775 q 506 917 374 917 q 715 863 633 917 q 831 718 796 810 q 928 797 890 754 q 967 881 967 839 q 961 905 967 896 q 943 924 956 914 l 943 944 l 1036 1006 q 1069 974 1056 990 q 1082 921 1082 957 m 421 69 q 620 189 560 69 q 681 561 681 308 q 631 772 681 710 q 485 833 582 833 q 288 716 349 833 q 228 349 228 599 q 276 133 228 197 q 421 69 324 69 z "},"Ớ":{"ha":907,"x_min":49,"x_max":1082,"o":"m 49 0 m 1082 921 q 1028 806 1082 869 q 846 672 974 743 q 858 558 858 618 q 806 263 858 392 q 647 59 753 133 q 389 -15 542 -15 q 213 26 290 -15 q 92 148 136 67 q 49 343 49 229 q 108 645 49 515 q 270 846 167 775 q 506 917 374 917 q 715 863 633 917 q 831 718 796 810 q 928 797 890 754 q 967 881 967 839 q 961 905 967 896 q 943 924 956 914 l 943 944 l 1036 1006 q 1069 974 1056 990 q 1082 921 1082 957 m 421 69 q 620 189 560 69 q 681 561 681 308 q 631 772 681 710 q 485 833 582 833 q 288 716 349 833 q 228 349 228 599 q 276 133 228 197 q 421 69 324 69 m 440 1000 l 692 1165 q 743 1082 743 1136 q 729 1044 743 1060 q 678 1015 715 1029 l 474 939 l 440 1000 z "},"Ợ":{"ha":907,"x_min":49,"x_max":1082,"o":"m 49 0 m 1082 921 q 1028 806 1082 869 q 846 672 974 743 q 858 558 858 618 q 806 263 858 392 q 647 59 753 133 q 389 -15 542 -15 q 213 26 290 -15 q 92 148 136 67 q 49 343 49 229 q 108 645 49 515 q 270 846 167 775 q 506 917 374 917 q 715 863 633 917 q 831 718 796 810 q 928 797 890 754 q 967 881 967 839 q 961 905 967 896 q 943 924 956 914 l 943 944 l 1036 1006 q 1069 974 1056 990 q 1082 921 1082 957 m 421 69 q 620 189 560 69 q 681 561 681 308 q 631 772 681 710 q 485 833 582 833 q 288 716 349 833 q 228 349 228 599 q 276 133 228 197 q 421 69 324 69 m 375 -256 q 312 -230 336 -256 q 288 -167 288 -204 q 315 -89 288 -122 q 390 -56 342 -56 q 453 -81 429 -56 q 478 -147 478 -106 q 451 -223 478 -190 q 375 -256 424 -256 z "},"Ờ":{"ha":907,"x_min":49,"x_max":1082,"o":"m 49 0 m 1082 921 q 1028 806 1082 869 q 846 672 974 743 q 858 558 858 618 q 806 263 858 392 q 647 59 753 133 q 389 -15 542 -15 q 213 26 290 -15 q 92 148 136 67 q 49 343 49 229 q 108 645 49 515 q 270 846 167 775 q 506 917 374 917 q 715 863 633 917 q 831 718 796 810 q 928 797 890 754 q 967 881 967 839 q 961 905 967 896 q 943 924 956 914 l 943 944 l 1036 1006 q 1069 974 1056 990 q 1082 921 1082 957 m 421 69 q 620 189 560 69 q 681 561 681 308 q 631 772 681 710 q 485 833 582 833 q 288 716 349 833 q 228 349 228 599 q 276 133 228 197 q 421 69 324 69 m 376 1015 q 326 1043 340 1028 q 311 1081 311 1058 q 363 1165 311 1138 l 614 1000 l 582 939 l 376 1015 z "},"Ở":{"ha":907,"x_min":49,"x_max":1082,"o":"m 49 0 m 1082 921 q 1028 806 1082 869 q 846 672 974 743 q 858 558 858 618 q 806 263 858 392 q 647 59 753 133 q 389 -15 542 -15 q 213 26 290 -15 q 92 148 136 67 q 49 343 49 229 q 108 645 49 515 q 270 846 167 775 q 506 917 374 917 q 715 863 633 917 q 831 718 796 810 q 928 797 890 754 q 967 881 967 839 q 961 905 967 896 q 943 924 956 914 l 943 944 l 1036 1006 q 1069 974 1056 990 q 1082 921 1082 957 m 421 69 q 620 189 560 69 q 681 561 681 308 q 631 772 681 710 q 485 833 582 833 q 288 716 349 833 q 228 349 228 599 q 276 133 228 197 q 421 69 324 69 m 471 939 q 464 965 464 956 q 476 994 464 983 q 525 1019 488 1006 q 571 1060 571 1038 q 521 1086 571 1086 q 436 1075 478 1086 q 421 1119 421 1097 q 528 1172 421 1172 q 651 1149 607 1172 q 696 1081 696 1125 q 667 1020 696 1046 q 596 981 639 994 q 567 965 574 972 q 558 944 560 958 l 471 939 z "},"Ỡ":{"ha":907,"x_min":49,"x_max":1082,"o":"m 49 0 m 1082 921 q 1028 806 1082 869 q 846 672 974 743 q 858 558 858 618 q 806 263 858 392 q 647 59 753 133 q 389 -15 542 -15 q 213 26 290 -15 q 92 148 136 67 q 49 343 49 229 q 108 645 49 515 q 270 846 167 775 q 506 917 374 917 q 715 863 633 917 q 831 718 796 810 q 928 797 890 754 q 967 881 967 839 q 961 905 967 896 q 943 924 956 914 l 943 944 l 1036 1006 q 1069 974 1056 990 q 1082 921 1082 957 m 421 69 q 620 189 560 69 q 681 561 681 308 q 631 772 681 710 q 485 833 582 833 q 288 716 349 833 q 228 349 228 599 q 276 133 228 197 q 421 69 324 69 m 328 1088 q 415 1143 372 1143 q 513 1119 450 1143 l 639 1078 l 753 1129 l 790 1088 l 726 1014 q 639 958 679 958 q 542 981 601 958 l 415 1024 l 303 972 l 265 1014 l 328 1088 z "},"Ő":{"ha":907,"x_min":49,"x_max":858,"o":"m 296 969 l 443 1169 q 504 1147 479 1168 q 529 1099 529 1125 q 511 1052 529 1075 q 465 1011 493 1029 l 343 926 l 296 969 m 540 969 l 688 1169 q 749 1147 724 1168 q 775 1099 775 1125 q 756 1052 774 1075 q 710 1011 738 1029 l 589 926 l 540 969 m 389 -15 q 213 26 290 -15 q 92 148 136 67 q 49 343 49 229 q 108 645 49 515 q 270 846 167 775 q 506 917 374 917 q 771 817 683 917 q 858 558 858 717 q 806 263 858 392 q 647 59 753 133 q 389 -15 542 -15 m 421 69 q 620 189 560 69 q 681 561 681 308 q 631 772 681 710 q 485 833 582 833 q 288 716 349 833 q 228 349 228 599 q 276 133 228 197 q 421 69 324 69 z "},"Ȏ":{"ha":907,"x_min":49,"x_max":858,"o":"m 49 0 m 389 -15 q 213 26 290 -15 q 92 148 136 67 q 49 343 49 229 q 108 645 49 515 q 270 846 167 775 q 506 917 374 917 q 771 817 683 917 q 858 558 858 717 q 806 263 858 392 q 647 59 753 133 q 389 -15 542 -15 m 421 69 q 620 189 560 69 q 681 561 681 308 q 631 772 681 710 q 485 833 582 833 q 288 716 349 833 q 228 349 228 599 q 276 133 228 197 q 421 69 324 69 m 307 983 q 402 1100 339 1040 q 568 1160 465 1160 q 657 1141 615 1160 q 724 1091 699 1122 q 749 1026 749 1060 q 724 988 749 1007 q 664 956 700 968 q 544 1042 621 1042 q 346 951 436 1042 l 307 983 z "},"Ō":{"ha":907,"x_min":49,"x_max":858,"o":"m 304 1100 l 757 1100 l 743 996 l 290 996 l 304 1100 m 389 -15 q 213 26 290 -15 q 92 148 136 67 q 49 343 49 229 q 108 645 49 515 q 270 846 167 775 q 506 917 374 917 q 771 817 683 917 q 858 558 858 717 q 806 263 858 392 q 647 59 753 133 q 389 -15 542 -15 m 421 69 q 620 189 560 69 q 681 561 681 308 q 631 772 681 710 q 485 833 582 833 q 288 716 349 833 q 228 349 228 599 q 276 133 228 197 q 421 69 324 69 z "},"Ǫ":{"ha":907,"x_min":49,"x_max":858,"o":"m 579 21 q 511 -33 549 4 q 474 -118 474 -69 q 525 -168 474 -168 q 600 -140 558 -168 l 629 -185 q 608 -206 629 -187 q 553 -239 586 -224 q 481 -254 519 -254 q 390 -231 424 -254 q 356 -160 356 -208 q 381 -78 356 -115 q 449 -12 407 -40 q 389 -15 410 -15 q 213 26 290 -15 q 92 148 136 67 q 49 343 49 229 q 108 645 49 515 q 270 846 167 775 q 506 917 374 917 q 771 817 683 917 q 858 558 858 717 q 787 222 858 364 q 579 21 715 81 m 228 349 q 276 133 228 197 q 421 69 324 69 q 620 189 560 69 q 681 561 681 308 q 631 772 681 710 q 485 833 582 833 q 288 716 349 833 q 228 349 228 599 z "},"Ø":{"ha":907,"x_min":49,"x_max":858,"o":"m 151 -92 l 206 29 q 90 151 131 71 q 49 343 49 231 q 108 645 49 515 q 270 846 167 775 q 506 917 374 917 q 608 906 560 917 l 664 1025 l 743 986 l 692 875 q 817 749 776 832 q 858 558 858 665 q 806 263 858 392 q 647 59 753 133 q 389 -15 542 -15 q 290 -4 339 -15 l 233 -132 l 151 -92 m 568 819 q 485 833 529 833 q 289 716 349 833 q 228 349 229 599 q 236 234 228 281 q 265 157 244 188 l 568 819 m 421 69 q 620 189 560 69 q 681 561 681 308 q 639 757 681 694 l 332 86 q 421 69 367 69 z "},"Ǿ":{"ha":907,"x_min":49,"x_max":858,"o":"m 49 0 m 151 -92 l 206 29 q 90 151 131 71 q 49 343 49 231 q 108 645 49 515 q 270 846 167 775 q 506 917 374 917 q 608 906 560 917 l 664 1025 l 743 986 l 692 875 q 817 749 776 832 q 858 558 858 665 q 806 263 858 392 q 647 59 753 133 q 389 -15 542 -15 q 290 -4 339 -15 l 233 -132 l 151 -92 m 568 819 q 485 833 529 833 q 289 716 349 833 q 228 349 229 599 q 236 234 228 281 q 265 157 244 188 l 568 819 m 421 69 q 620 189 560 69 q 681 561 681 308 q 639 757 681 694 l 332 86 q 421 69 367 69 m 336 1000 l 588 1165 q 639 1082 639 1136 q 625 1044 639 1060 q 574 1015 611 1029 l 369 939 l 336 1000 z "},"Õ":{"ha":907,"x_min":49,"x_max":858,"o":"m 331 1096 q 418 1151 375 1151 q 515 1129 451 1151 l 643 1086 l 756 1139 l 793 1096 l 729 1022 q 643 967 682 967 q 600 972 621 967 q 544 989 579 978 l 418 1033 l 306 981 l 268 1022 l 331 1096 m 389 -15 q 213 26 290 -15 q 92 148 136 67 q 49 343 49 229 q 108 645 49 515 q 270 846 167 775 q 506 917 374 917 q 771 817 683 917 q 858 558 858 717 q 806 263 858 392 q 647 59 753 133 q 389 -15 542 -15 m 421 69 q 620 189 560 69 q 681 561 681 308 q 631 772 681 710 q 485 833 582 833 q 288 716 349 833 q 228 349 228 599 q 276 133 228 197 q 421 69 324 69 z "},"Œ":{"ha":1104,"x_min":35,"x_max":1113,"o":"m 365 0 q 124 86 213 0 q 35 343 35 172 q 93 628 35 501 q 258 828 151 756 q 500 900 364 900 l 1113 900 l 1078 658 l 994 658 l 994 815 l 847 815 l 756 807 l 713 504 l 879 504 l 910 590 l 981 590 l 947 335 l 876 335 l 874 425 l 701 425 l 656 93 q 771 85 739 86 l 906 85 l 961 236 l 1036 236 l 1007 0 l 365 0 m 408 82 q 494 90 442 82 l 596 810 q 479 819 540 819 q 214 349 215 819 q 255 156 214 229 q 408 82 296 82 z "},"P":{"ha":717,"x_min":-4,"x_max":735,"o":"m 6 71 l 104 90 l 207 810 l 111 829 l 119 900 l 442 900 q 661 845 588 900 q 735 672 735 790 q 644 453 735 540 q 365 365 554 367 l 347 365 l 347 426 q 514 498 465 435 q 563 668 563 561 q 527 782 563 749 q 417 815 492 815 q 367 810 397 815 l 265 90 l 386 71 l 378 0 l -4 0 l 6 71 z "},"Þ":{"ha":703,"x_min":-6,"x_max":697,"o":"m 4 71 l 103 90 l 204 810 l 108 829 l 117 900 l 471 900 l 463 829 l 364 810 l 349 711 l 414 711 q 624 662 551 711 q 697 510 697 613 q 610 288 697 368 q 340 207 522 207 q 279 210 313 207 l 261 90 l 358 71 l 349 0 l -6 0 l 4 71 m 331 279 q 481 331 438 279 q 525 486 525 383 q 492 596 525 565 q 390 626 460 626 q 336 622 363 626 l 289 283 q 306 281 296 282 q 331 279 317 279 z "},"Q":{"ha":907,"x_min":49,"x_max":858,"o":"m 360 -14 q 133 88 218 -6 q 49 343 49 181 q 108 645 49 515 q 270 846 167 775 q 506 917 374 917 q 771 817 683 917 q 858 558 858 717 q 811 276 858 401 q 669 75 764 151 q 439 -14 575 -1 l 392 -62 q 461 -76 415 -65 l 707 -133 l 789 -92 l 824 -128 l 757 -214 q 683 -249 731 -249 q 633 -241 665 -249 q 588 -231 600 -233 l 339 -175 l 263 -210 l 219 -156 l 360 -14 m 421 69 q 620 189 560 69 q 681 561 681 308 q 631 772 681 710 q 485 833 582 833 q 288 716 349 833 q 228 349 228 599 q 276 133 228 197 q 421 69 324 69 z "},"R":{"ha":747,"x_min":-4,"x_max":740,"o":"m 6 71 l 104 90 l 207 810 l 111 829 l 119 900 l 469 900 q 651 851 585 900 q 717 697 717 803 q 644 520 715 594 q 461 414 572 446 q 521 363 499 394 q 567 278 543 331 l 644 97 l 740 63 l 735 0 l 561 0 q 519 10 535 0 q 494 44 503 19 l 411 250 q 361 351 383 318 q 307 385 339 383 l 264 85 l 353 63 l 346 0 l -4 0 l 6 71 m 317 463 q 492 525 438 463 q 547 682 547 588 q 521 780 547 746 q 429 814 494 814 q 386 813 401 814 q 367 810 371 811 l 317 463 z "},"Ŕ":{"ha":742,"x_min":-7,"x_max":739,"o":"m 315 1000 l 567 1165 q 618 1082 618 1136 q 604 1043 618 1058 q 553 1015 590 1028 l 347 939 l 315 1000 m 3 71 l 101 90 l 204 810 l 108 829 l 117 900 l 467 900 q 648 851 582 900 q 714 697 714 803 q 642 520 714 594 q 458 414 569 446 q 518 363 496 394 q 564 278 540 331 l 642 97 l 739 63 l 732 0 l 558 0 q 516 10 532 0 q 492 44 500 19 l 408 250 q 358 351 381 318 q 304 385 336 383 l 261 85 l 350 63 l 343 0 l -7 0 l 3 71 m 314 463 q 490 525 435 463 q 546 682 546 588 q 519 779 546 744 q 426 814 492 814 q 383 813 399 814 q 364 810 368 811 l 314 463 z "},"Ř":{"ha":742,"x_min":-7,"x_max":739,"o":"m 429 943 q 401 957 418 943 q 369 985 383 971 q 351 1001 356 999 l 246 1101 l 297 1164 l 447 1075 l 608 1163 l 644 1111 l 532 1015 q 463 960 486 976 q 429 943 440 943 m 3 71 l 101 90 l 204 810 l 108 829 l 117 900 l 467 900 q 648 851 582 900 q 714 697 714 803 q 642 520 714 594 q 458 414 569 446 q 518 363 496 394 q 564 278 540 331 l 642 97 l 739 63 l 732 0 l 558 0 q 516 10 532 0 q 492 44 500 19 l 408 250 q 358 351 381 318 q 304 385 336 383 l 261 85 l 350 63 l 343 0 l -7 0 l 3 71 m 314 463 q 490 525 435 463 q 546 682 546 588 q 519 779 546 744 q 426 814 492 814 q 383 813 399 814 q 364 810 368 811 l 314 463 z "},"Ŗ":{"ha":742,"x_min":-7,"x_max":739,"o":"m 3 71 l 101 90 l 204 810 l 108 829 l 117 900 l 467 900 q 648 851 582 900 q 714 697 714 803 q 642 520 714 594 q 458 414 569 446 q 518 363 496 394 q 564 278 540 331 l 642 97 l 739 63 l 732 0 l 558 0 q 516 10 532 0 q 492 44 500 19 l 408 250 q 358 351 381 318 q 304 385 336 383 l 261 85 l 350 63 l 343 0 l -7 0 l 3 71 m 314 463 q 490 525 435 463 q 546 682 546 588 q 519 779 546 744 q 426 814 492 814 q 383 813 399 814 q 364 810 368 811 l 314 463 m 263 -257 q 278 -239 267 -253 q 301 -201 290 -225 q 313 -150 313 -178 q 303 -106 313 -125 q 285 -79 293 -87 q 313 -50 294 -62 q 357 -37 332 -37 q 417 -60 396 -37 q 438 -119 438 -82 q 383 -233 438 -189 q 293 -292 329 -276 l 263 -257 z "},"Ȑ":{"ha":747,"x_min":-4,"x_max":740,"o":"m 0 0 m 6 71 l 104 90 l 207 810 l 111 829 l 119 900 l 469 900 q 651 851 585 900 q 717 697 717 803 q 644 520 715 594 q 461 414 572 446 q 521 363 499 394 q 567 278 543 331 l 644 97 l 740 63 l 735 0 l 561 0 q 519 10 535 0 q 494 44 503 19 l 411 250 q 361 351 383 318 q 307 385 339 383 l 264 85 l 353 63 l 346 0 l -4 0 l 6 71 m 317 463 q 492 525 438 463 q 547 682 547 588 q 521 780 547 746 q 429 814 494 814 q 386 813 401 814 q 367 810 371 811 l 317 463 m 225 1011 q 196 1044 208 1025 q 183 1082 183 1064 q 219 1142 183 1115 q 293 1169 254 1168 l 383 969 l 325 926 l 225 1011 m 471 1011 q 440 1044 453 1025 q 428 1082 428 1064 q 464 1142 428 1115 q 539 1169 500 1168 l 629 969 l 569 926 l 471 1011 z "},"Ṛ":{"ha":747,"x_min":-4,"x_max":740,"o":"m 0 0 m 6 71 l 104 90 l 207 810 l 111 829 l 119 900 l 469 900 q 651 851 585 900 q 717 697 717 803 q 644 520 715 594 q 461 414 572 446 q 521 363 499 394 q 567 278 543 331 l 644 97 l 740 63 l 735 0 l 561 0 q 519 10 535 0 q 494 44 503 19 l 411 250 q 361 351 383 318 q 307 385 339 383 l 264 85 l 353 63 l 346 0 l -4 0 l 6 71 m 317 463 q 492 525 438 463 q 547 682 547 588 q 521 780 547 746 q 429 814 494 814 q 386 813 401 814 q 367 810 371 811 l 317 463 m 342 -256 q 278 -230 303 -256 q 254 -167 254 -204 q 281 -89 254 -122 q 357 -56 308 -56 q 420 -81 396 -56 q 444 -147 444 -106 q 417 -223 444 -190 q 342 -256 390 -256 z "},"Ȓ":{"ha":747,"x_min":-4,"x_max":740,"o":"m 0 0 m 6 71 l 104 90 l 207 810 l 111 829 l 119 900 l 469 900 q 651 851 585 900 q 717 697 717 803 q 644 520 715 594 q 461 414 572 446 q 521 363 499 394 q 567 278 543 331 l 644 97 l 740 63 l 735 0 l 561 0 q 519 10 535 0 q 494 44 503 19 l 411 250 q 361 351 383 318 q 307 385 339 383 l 264 85 l 353 63 l 346 0 l -4 0 l 6 71 m 317 463 q 492 525 438 463 q 547 682 547 588 q 521 780 547 746 q 429 814 494 814 q 386 813 401 814 q 367 810 371 811 l 317 463 m 253 983 q 348 1100 285 1040 q 514 1160 411 1160 q 603 1141 561 1160 q 669 1091 644 1122 q 694 1026 694 1060 q 670 988 694 1007 q 610 956 646 968 q 490 1042 567 1042 q 292 951 382 1042 l 253 983 z "},"S":{"ha":621,"x_min":0,"x_max":614,"o":"m 246 -15 q 97 6 165 -15 q 0 47 28 26 l 25 276 l 113 276 l 128 115 q 191 83 149 96 q 279 69 233 69 q 385 103 349 69 q 421 188 421 136 q 394 278 421 239 q 286 388 368 317 q 167 496 204 458 q 107 576 129 533 q 85 671 85 618 q 163 850 85 783 q 382 917 242 917 q 515 908 453 917 q 614 886 578 899 l 589 650 l 507 650 l 493 799 q 426 824 468 814 q 344 833 385 833 q 225 732 225 833 q 257 656 225 694 q 372 546 289 618 q 473 453 435 492 q 537 368 511 415 q 563 268 563 321 q 476 61 563 138 q 246 -15 389 -15 z "},"Ś":{"ha":621,"x_min":0,"x_max":614,"o":"m 268 1000 l 519 1164 q 555 1132 540 1153 q 569 1082 569 1111 q 556 1044 569 1060 q 506 1015 542 1028 l 300 939 l 268 1000 m 246 -15 q 97 6 165 -15 q 0 47 28 26 l 25 276 l 113 276 l 128 115 q 147 102 128 114 q 199 80 165 90 q 279 69 232 69 q 385 103 349 69 q 421 188 421 136 q 394 278 421 239 q 285 388 367 318 q 165 496 203 458 q 106 576 128 533 q 85 671 85 618 q 163 850 85 783 q 382 917 242 917 q 515 908 453 917 q 614 886 578 899 l 589 650 l 507 650 l 493 799 q 435 822 476 810 q 344 833 393 833 q 225 732 225 833 q 258 656 225 694 q 375 543 290 617 q 474 452 436 490 q 537 367 511 414 q 563 268 563 319 q 476 61 563 138 q 246 -15 389 -15 z "},"Ꞌ":{"ha":193,"x_min":40,"x_max":239,"o":"m 40 490 m 97 896 q 178 915 140 915 q 239 874 239 915 q 189 701 239 839 l 110 490 l 40 490 l 97 896 z "},"Š":{"ha":621,"x_min":0,"x_max":614,"o":"m 392 944 q 362 958 379 944 q 314 1001 344 972 l 207 1101 l 260 1164 l 408 1075 l 571 1164 l 606 1113 l 493 1015 q 425 960 447 976 q 392 944 403 944 m 246 -15 q 97 6 165 -15 q 0 47 28 26 l 25 276 l 113 276 l 128 115 q 191 83 149 96 q 279 69 233 69 q 385 103 349 69 q 421 188 421 136 q 393 278 421 239 q 282 390 365 318 q 165 497 201 460 q 106 576 128 535 q 85 671 85 618 q 163 850 85 783 q 382 917 242 917 q 515 908 453 917 q 614 886 578 899 l 589 650 l 507 650 l 493 799 q 426 824 468 814 q 344 833 385 833 q 225 732 225 833 q 256 657 225 694 q 367 550 286 619 q 471 455 433 493 q 535 369 508 417 q 563 268 563 321 q 476 61 563 138 q 246 -15 389 -15 z "},"Ş":{"ha":621,"x_min":0,"x_max":614,"o":"m 240 -267 q 94 -228 153 -267 l 128 -171 q 171 -187 151 -182 q 225 -193 190 -193 q 263 -169 263 -193 q 256 -152 263 -160 q 231 -136 249 -144 l 164 -103 l 164 -69 l 200 -12 q 78 11 133 -7 q 0 47 22 29 l 25 276 l 113 276 l 128 115 q 147 102 128 114 q 199 80 165 90 q 279 69 232 69 q 385 103 349 69 q 421 188 421 136 q 395 276 421 239 q 290 383 369 314 q 169 494 207 456 q 108 574 131 532 q 85 671 85 617 q 163 850 85 783 q 382 917 242 917 q 515 908 453 917 q 614 886 578 899 l 589 650 l 507 650 l 493 799 q 435 822 476 810 q 344 833 393 833 q 225 732 225 833 q 258 654 225 693 q 381 539 292 615 q 476 449 440 486 q 538 366 513 413 q 563 268 563 319 q 484 69 563 144 q 274 -14 406 -7 l 274 -39 l 321 -65 q 367 -101 351 -82 q 383 -149 383 -119 q 342 -238 383 -210 q 240 -267 300 -267 z "},"Ŝ":{"ha":621,"x_min":0,"x_max":614,"o":"m 0 0 m 246 -15 q 97 6 165 -15 q 0 47 28 26 l 25 276 l 113 276 l 128 115 q 191 83 149 96 q 279 69 233 69 q 385 103 349 69 q 421 188 421 136 q 394 278 421 239 q 286 388 368 317 q 167 496 204 458 q 107 576 129 533 q 85 671 85 618 q 163 850 85 783 q 382 917 242 917 q 515 908 453 917 q 614 886 578 899 l 589 650 l 507 650 l 493 799 q 426 824 468 814 q 344 833 385 833 q 225 732 225 833 q 257 656 225 694 q 372 546 289 618 q 473 453 435 492 q 537 368 511 415 q 563 268 563 321 q 476 61 563 138 q 246 -15 389 -15 m 324 1092 l 356 1117 q 399 1150 381 1138 q 426 1163 418 1163 q 458 1147 438 1163 q 506 1104 478 1131 l 614 1007 l 563 943 l 408 1031 l 244 949 l 208 1000 l 324 1092 z "},"Ș":{"ha":621,"x_min":0,"x_max":614,"o":"m 246 -15 q 97 6 165 -15 q 0 47 28 26 l 25 276 l 113 276 l 128 115 q 147 102 128 114 q 199 80 165 90 q 279 69 232 69 q 385 103 349 69 q 421 188 421 136 q 394 276 421 238 q 288 386 368 315 q 167 494 206 457 q 107 575 129 532 q 85 671 85 618 q 163 850 85 783 q 382 917 242 917 q 515 908 453 917 q 614 886 578 899 l 589 650 l 507 650 l 493 799 q 435 822 476 810 q 344 833 393 833 q 225 732 225 833 q 258 655 225 693 q 376 543 290 617 q 476 451 439 489 q 538 366 513 413 q 563 268 563 319 q 476 61 563 138 q 246 -15 389 -15 m 143 -257 q 160 -239 147 -253 q 183 -201 172 -225 q 194 -150 194 -178 q 184 -106 194 -125 q 165 -79 174 -87 q 194 -50 175 -62 q 238 -37 213 -37 q 298 -60 276 -37 q 319 -119 319 -83 q 288 -206 319 -168 q 222 -266 257 -244 q 174 -292 188 -287 l 143 -257 z "},"Ṣ":{"ha":621,"x_min":0,"x_max":614,"o":"m 0 0 m 246 -15 q 97 6 165 -15 q 0 47 28 26 l 25 276 l 113 276 l 128 115 q 191 83 149 96 q 279 69 233 69 q 385 103 349 69 q 421 188 421 136 q 394 278 421 239 q 286 388 368 317 q 167 496 204 458 q 107 576 129 533 q 85 671 85 618 q 163 850 85 783 q 382 917 242 917 q 515 908 453 917 q 614 886 578 899 l 589 650 l 507 650 l 493 799 q 426 824 468 814 q 344 833 385 833 q 225 732 225 833 q 257 656 225 694 q 372 546 289 618 q 473 453 435 492 q 537 368 511 415 q 563 268 563 321 q 476 61 563 138 q 246 -15 389 -15 m 250 -256 q 187 -230 211 -256 q 163 -167 163 -204 q 190 -89 163 -122 q 265 -56 217 -56 q 328 -81 304 -56 q 353 -147 353 -106 q 326 -223 353 -190 q 250 -256 299 -256 z "},"ẞ":{"ha":951,"x_min":-44,"x_max":924,"o":"m 569 -15 q 435 6 500 -15 q 344 47 369 26 l 369 276 l 458 276 l 474 115 q 526 83 489 97 q 601 69 564 69 q 750 213 750 69 q 694 329 750 281 q 514 383 639 378 l 481 467 l 721 788 l 710 808 q 564 826 640 826 q 411 790 468 826 q 324 687 354 754 q 281 513 294 619 l 222 90 l 254 71 l 244 0 l -44 0 l -36 71 l 63 90 l 117 476 q 273 803 146 683 q 603 922 400 922 q 738 914 660 922 q 869 896 817 906 l 924 808 l 676 481 l 682 471 q 839 393 786 449 q 892 253 892 338 q 853 115 892 175 q 741 19 814 54 q 569 -15 668 -15 z "},"Ə":{"ha":864,"x_min":49,"x_max":815,"o":"m 367 -15 q 202 26 274 -15 q 90 148 131 67 q 49 343 49 229 q 63 501 49 421 l 636 501 l 636 547 q 615 715 635 654 q 546 804 594 776 q 413 832 497 832 q 319 820 360 832 q 260 793 279 808 l 214 635 l 132 635 l 153 863 q 290 902 215 888 q 442 917 365 917 q 722 822 628 917 q 815 546 815 728 q 765 261 815 389 q 613 59 714 133 q 367 -15 511 -15 m 399 69 q 561 154 506 69 q 631 415 617 239 l 228 415 q 226 349 226 393 q 269 133 226 196 q 399 69 311 69 z "},"T":{"ha":690,"x_min":40,"x_max":757,"o":"m 128 71 l 226 90 l 329 813 l 172 813 l 121 654 l 40 654 l 67 900 l 757 900 l 718 654 l 633 654 l 636 813 l 486 813 l 386 90 l 482 71 l 474 0 l 118 0 l 128 71 z "},"Ŧ":{"ha":690,"x_min":40,"x_max":757,"o":"m 718 654 l 633 654 l 636 813 l 486 813 l 444 507 l 683 507 l 669 421 l 432 421 l 386 90 l 482 71 l 474 0 l 118 0 l 128 71 l 226 90 l 274 421 l 42 421 l 54 507 l 286 507 l 329 813 l 172 813 l 121 654 l 40 654 l 67 900 l 757 900 l 718 654 z "},"Ť":{"ha":690,"x_min":36,"x_max":753,"o":"m 419 943 q 343 1001 401 943 l 236 1101 l 288 1164 l 438 1075 l 599 1163 l 635 1111 l 522 1015 q 453 960 476 976 q 419 943 431 943 m 115 0 l 124 71 l 222 90 l 325 813 l 169 813 l 118 654 l 36 654 l 64 900 l 753 900 l 714 654 l 629 654 l 633 813 l 483 813 l 382 90 l 478 71 l 469 0 l 115 0 z "},"Ţ":{"ha":690,"x_min":36,"x_max":753,"o":"m 172 -171 q 215 -187 196 -182 q 269 -193 235 -193 q 307 -169 307 -193 q 300 -152 307 -160 q 275 -136 293 -144 l 208 -103 l 208 -69 l 254 0 l 115 0 l 124 71 l 222 90 l 325 813 l 169 813 l 118 654 l 36 654 l 64 900 l 753 900 l 714 654 l 629 654 l 633 813 l 483 813 l 382 90 l 478 71 l 469 0 l 318 0 l 318 -39 l 365 -65 q 412 -101 396 -82 q 428 -149 428 -119 q 386 -238 428 -210 q 285 -267 344 -267 q 139 -228 197 -267 l 172 -171 z "},"Ț":{"ha":690,"x_min":36,"x_max":753,"o":"m 124 71 l 222 90 l 325 813 l 169 813 l 118 654 l 36 654 l 64 900 l 753 900 l 714 654 l 629 654 l 633 813 l 483 813 l 382 90 l 478 71 l 469 0 l 115 0 l 124 71 m 183 -257 q 199 -239 188 -253 q 222 -201 211 -225 q 233 -150 233 -178 q 223 -104 233 -124 q 204 -79 213 -85 q 233 -50 214 -62 q 278 -37 253 -37 q 338 -60 317 -37 q 358 -119 358 -83 q 327 -206 358 -168 q 261 -266 296 -244 q 213 -292 226 -287 l 183 -257 z "},"Ṭ":{"ha":690,"x_min":40,"x_max":757,"o":"m 40 0 m 128 71 l 226 90 l 329 813 l 172 813 l 121 654 l 40 654 l 67 900 l 757 900 l 718 654 l 633 654 l 636 813 l 486 813 l 386 90 l 482 71 l 474 0 l 118 0 l 128 71 m 265 -256 q 202 -230 226 -256 q 178 -167 178 -204 q 205 -89 178 -122 q 281 -56 232 -56 q 344 -81 319 -56 q 368 -147 368 -106 q 341 -223 368 -190 q 265 -256 314 -256 z "},"U":{"ha":878,"x_min":72,"x_max":922,"o":"m 72 829 l 81 900 l 436 900 l 426 829 l 328 810 l 267 386 q 253 238 253 286 q 287 113 253 156 q 415 71 321 71 q 531 101 486 71 q 602 200 575 132 q 646 386 629 268 l 707 810 l 611 829 l 619 900 l 922 900 l 914 829 l 814 810 l 756 386 q 694 154 735 240 q 578 26 654 68 q 376 -15 503 -15 q 96 228 96 -15 q 108 383 96 296 l 168 810 l 72 829 z "},"Ú":{"ha":874,"x_min":72,"x_max":922,"o":"m 408 1004 l 660 1169 q 695 1138 681 1158 q 710 1086 710 1117 q 696 1049 710 1064 q 646 1021 682 1033 l 440 944 l 408 1004 m 376 -15 q 96 228 96 -15 q 108 383 96 296 l 168 810 l 72 829 l 81 900 l 436 900 l 426 829 l 328 810 l 267 386 q 253 238 253 286 q 287 113 253 156 q 415 71 321 71 q 531 101 486 71 q 602 200 575 132 q 646 386 629 268 l 707 810 l 611 829 l 619 900 l 922 900 l 914 829 l 814 810 l 756 386 q 694 154 735 240 q 578 26 654 68 q 376 -15 503 -15 z "},"Ŭ":{"ha":878,"x_min":72,"x_max":922,"o":"m 72 0 m 72 829 l 81 900 l 436 900 l 426 829 l 328 810 l 267 386 q 253 238 253 286 q 287 113 253 156 q 415 71 321 71 q 531 101 486 71 q 602 200 575 132 q 646 386 629 268 l 707 810 l 611 829 l 619 900 l 922 900 l 914 829 l 814 810 l 756 386 q 694 154 735 240 q 578 26 654 68 q 376 -15 503 -15 q 96 228 96 -15 q 108 383 96 296 l 168 810 l 72 829 m 760 1129 q 663 1010 725 1068 q 499 951 601 951 q 410 970 451 951 q 343 1020 368 989 q 318 1085 318 1051 q 342 1123 318 1104 q 401 1156 367 1142 q 522 1069 447 1069 q 721 1160 631 1069 l 760 1129 z "},"Ǔ":{"ha":878,"x_min":72,"x_max":922,"o":"m 72 0 m 72 829 l 81 900 l 436 900 l 426 829 l 328 810 l 267 386 q 253 238 253 286 q 287 113 253 156 q 415 71 321 71 q 531 101 486 71 q 602 200 575 132 q 646 386 629 268 l 707 810 l 611 829 l 619 900 l 922 900 l 914 829 l 814 810 l 756 386 q 694 154 735 240 q 578 26 654 68 q 376 -15 503 -15 q 96 228 96 -15 q 108 383 96 296 l 168 810 l 72 829 m 524 943 q 496 956 513 943 q 465 983 479 969 q 446 1001 450 997 l 339 1101 l 392 1164 l 540 1075 l 703 1163 l 738 1111 l 625 1015 q 556 959 578 975 q 524 943 535 943 z "},"Û":{"ha":874,"x_min":72,"x_max":922,"o":"m 449 1097 l 476 1119 q 522 1154 503 1140 q 550 1168 542 1168 q 594 1140 565 1167 q 629 1110 624 1114 l 738 1011 l 686 949 l 532 1036 l 368 953 l 332 1004 l 449 1097 m 72 829 l 81 900 l 436 900 l 426 829 l 328 810 l 267 386 q 253 238 253 286 q 287 113 253 156 q 415 71 321 71 q 531 101 486 71 q 602 200 575 132 q 646 386 629 268 l 707 810 l 611 829 l 619 900 l 922 900 l 914 829 l 814 810 l 756 386 q 694 154 735 240 q 578 26 654 68 q 376 -15 503 -15 q 96 228 96 -15 q 108 383 96 296 l 168 810 l 72 829 z "},"Ȕ":{"ha":878,"x_min":72,"x_max":922,"o":"m 72 0 m 72 829 l 81 900 l 436 900 l 426 829 l 328 810 l 267 386 q 253 238 253 286 q 287 113 253 156 q 415 71 321 71 q 531 101 486 71 q 602 200 575 132 q 646 386 629 268 l 707 810 l 611 829 l 619 900 l 922 900 l 914 829 l 814 810 l 756 386 q 694 154 735 240 q 578 26 654 68 q 376 -15 503 -15 q 96 228 96 -15 q 108 383 96 296 l 168 810 l 72 829 m 290 1011 q 261 1044 274 1025 q 249 1082 249 1064 q 284 1142 249 1115 q 358 1169 319 1168 l 449 969 l 390 926 l 290 1011 m 536 1011 q 506 1044 518 1025 q 493 1082 493 1064 q 529 1142 493 1115 q 604 1169 565 1168 l 694 969 l 635 926 l 536 1011 z "},"Ü":{"ha":874,"x_min":72,"x_max":922,"o":"m 383 963 q 325 987 347 963 q 303 1047 303 1011 q 328 1118 303 1088 q 396 1149 353 1149 q 455 1125 432 1149 q 478 1064 478 1101 q 452 992 478 1022 q 383 963 426 963 m 688 963 q 628 987 651 963 q 606 1047 606 1011 q 631 1118 606 1088 q 700 1149 657 1149 q 759 1125 736 1149 q 782 1064 782 1101 q 756 992 782 1022 q 688 963 731 963 m 72 829 l 81 900 l 436 900 l 426 829 l 328 810 l 267 386 q 253 238 253 286 q 287 113 253 156 q 415 71 321 71 q 531 101 486 71 q 602 200 575 132 q 646 386 629 268 l 707 810 l 611 829 l 619 900 l 922 900 l 914 829 l 814 810 l 756 386 q 694 154 735 240 q 578 26 654 68 q 376 -15 503 -15 q 96 228 96 -15 q 108 383 96 296 l 168 810 l 72 829 z "},"Ǘ":{"ha":878,"x_min":72,"x_max":922,"o":"m 72 0 m 72 829 l 81 900 l 436 900 l 426 829 l 328 810 l 267 386 q 253 238 253 286 q 287 113 253 156 q 415 71 321 71 q 531 101 486 71 q 602 200 575 132 q 646 386 629 268 l 707 810 l 611 829 l 619 900 l 922 900 l 914 829 l 814 810 l 756 386 q 694 154 735 240 q 578 26 654 68 q 376 -15 503 -15 q 96 228 96 -15 q 108 383 96 296 l 168 810 l 72 829 m 379 963 q 321 987 343 963 q 299 1047 299 1011 q 324 1118 299 1088 q 392 1149 349 1149 q 451 1126 428 1149 q 474 1064 474 1103 q 449 992 474 1022 q 379 963 424 963 m 683 963 q 625 987 647 963 q 603 1047 603 1011 q 628 1118 603 1088 q 696 1149 653 1149 q 755 1125 732 1149 q 778 1064 778 1101 q 753 992 778 1022 q 683 963 728 963 m 476 1249 l 728 1414 q 779 1331 779 1385 q 765 1293 779 1308 q 714 1264 751 1278 l 510 1188 l 476 1249 z "},"Ǚ":{"ha":878,"x_min":72,"x_max":922,"o":"m 72 0 m 72 829 l 81 900 l 436 900 l 426 829 l 328 810 l 267 386 q 253 238 253 286 q 287 113 253 156 q 415 71 321 71 q 531 101 486 71 q 602 200 575 132 q 646 386 629 268 l 707 810 l 611 829 l 619 900 l 922 900 l 914 829 l 814 810 l 756 386 q 694 154 735 240 q 578 26 654 68 q 376 -15 503 -15 q 96 228 96 -15 q 108 383 96 296 l 168 810 l 72 829 m 379 963 q 321 987 343 963 q 299 1047 299 1011 q 324 1118 299 1088 q 392 1149 349 1149 q 451 1126 428 1149 q 474 1064 474 1103 q 449 992 474 1022 q 379 963 424 963 m 683 963 q 625 987 647 963 q 603 1047 603 1011 q 628 1118 603 1088 q 696 1149 653 1149 q 755 1125 732 1149 q 778 1064 778 1101 q 753 992 778 1022 q 683 963 728 963 m 549 1192 q 521 1205 538 1192 q 490 1232 504 1218 q 471 1250 475 1246 l 364 1350 l 417 1413 l 565 1324 l 728 1411 l 763 1360 l 650 1264 q 581 1208 603 1224 q 549 1192 560 1192 z "},"Ǜ":{"ha":878,"x_min":72,"x_max":922,"o":"m 72 0 m 72 829 l 81 900 l 436 900 l 426 829 l 328 810 l 267 386 q 253 238 253 286 q 287 113 253 156 q 415 71 321 71 q 531 101 486 71 q 602 200 575 132 q 646 386 629 268 l 707 810 l 611 829 l 619 900 l 922 900 l 914 829 l 814 810 l 756 386 q 694 154 735 240 q 578 26 654 68 q 376 -15 503 -15 q 96 228 96 -15 q 108 383 96 296 l 168 810 l 72 829 m 379 963 q 321 987 343 963 q 299 1047 299 1011 q 324 1118 299 1088 q 392 1149 349 1149 q 451 1126 428 1149 q 474 1064 474 1103 q 449 992 474 1022 q 379 963 424 963 m 683 963 q 625 987 647 963 q 603 1047 603 1011 q 628 1118 603 1088 q 696 1149 653 1149 q 755 1125 732 1149 q 778 1064 778 1101 q 753 992 778 1022 q 683 963 728 963 m 413 1264 q 362 1292 376 1276 q 347 1329 347 1307 q 399 1414 347 1386 l 650 1249 l 618 1188 l 413 1264 z "},"Ǖ":{"ha":878,"x_min":72,"x_max":922,"o":"m 72 0 m 72 829 l 81 900 l 436 900 l 426 829 l 328 810 l 267 386 q 253 238 253 286 q 287 113 253 156 q 415 71 321 71 q 531 101 486 71 q 602 200 575 132 q 646 386 629 268 l 707 810 l 611 829 l 619 900 l 922 900 l 914 829 l 814 810 l 756 386 q 694 154 735 240 q 578 26 654 68 q 376 -15 503 -15 q 96 228 96 -15 q 108 383 96 296 l 168 810 l 72 829 m 379 963 q 321 987 343 963 q 299 1047 299 1011 q 324 1118 299 1088 q 392 1149 349 1149 q 451 1126 428 1149 q 474 1064 474 1103 q 449 992 474 1022 q 379 963 424 963 m 683 963 q 625 987 647 963 q 603 1047 603 1011 q 628 1118 603 1088 q 696 1149 653 1149 q 755 1125 732 1149 q 778 1064 778 1101 q 753 992 778 1022 q 683 963 728 963 m 343 1349 l 796 1349 l 782 1244 l 329 1244 l 343 1349 z "},"Ụ":{"ha":878,"x_min":72,"x_max":922,"o":"m 72 0 m 72 829 l 81 900 l 436 900 l 426 829 l 328 810 l 267 386 q 253 238 253 286 q 287 113 253 156 q 415 71 321 71 q 531 101 486 71 q 602 200 575 132 q 646 386 629 268 l 707 810 l 611 829 l 619 900 l 922 900 l 914 829 l 814 810 l 756 386 q 694 154 735 240 q 578 26 654 68 q 376 -15 503 -15 q 96 228 96 -15 q 108 383 96 296 l 168 810 l 72 829 m 360 -256 q 297 -230 321 -256 q 272 -167 272 -204 q 299 -89 272 -122 q 375 -56 326 -56 q 438 -81 414 -56 q 463 -147 463 -106 q 435 -223 463 -190 q 360 -256 408 -256 z "},"Ù":{"ha":874,"x_min":72,"x_max":922,"o":"m 431 1021 q 380 1049 394 1033 q 365 1086 365 1064 q 417 1169 365 1142 l 668 1004 l 636 944 l 431 1021 m 72 829 l 81 900 l 436 900 l 426 829 l 328 810 l 267 386 q 253 238 253 286 q 287 113 253 156 q 415 71 321 71 q 531 101 486 71 q 602 200 575 132 q 646 386 629 268 l 707 810 l 611 829 l 619 900 l 922 900 l 914 829 l 814 810 l 756 386 q 694 154 735 240 q 578 26 654 68 q 376 -15 503 -15 q 96 228 96 -15 q 108 383 96 296 l 168 810 l 72 829 z "},"Ủ":{"ha":878,"x_min":72,"x_max":922,"o":"m 72 0 m 72 829 l 81 900 l 436 900 l 426 829 l 328 810 l 267 386 q 253 238 253 286 q 287 113 253 156 q 415 71 321 71 q 531 101 486 71 q 602 200 575 132 q 646 386 629 268 l 707 810 l 611 829 l 619 900 l 922 900 l 914 829 l 814 810 l 756 386 q 694 154 735 240 q 578 26 654 68 q 376 -15 503 -15 q 96 228 96 -15 q 108 383 96 296 l 168 810 l 72 829 m 482 939 q 475 965 475 956 q 487 994 475 983 q 536 1019 499 1006 q 582 1060 582 1038 q 532 1086 582 1086 q 447 1075 489 1086 q 432 1119 432 1097 q 539 1172 432 1172 q 663 1149 618 1172 q 707 1081 707 1125 q 678 1020 707 1046 q 607 981 650 994 q 578 965 585 972 q 569 944 571 958 l 482 939 z "},"Ư":{"ha":878,"x_min":72,"x_max":1007,"o":"m 1007 996 q 964 889 1007 942 q 813 801 921 836 l 756 386 q 694 154 735 240 q 578 26 654 68 q 376 -15 503 -15 q 96 228 96 -15 q 108 383 96 296 l 168 810 l 72 829 l 81 900 l 436 900 l 426 829 l 328 810 l 267 386 q 253 238 253 286 q 287 113 253 156 q 415 71 321 71 q 531 101 486 71 q 602 200 575 132 q 646 386 629 268 l 707 810 l 611 829 l 619 900 l 800 900 q 871 912 849 900 q 893 954 893 924 q 888 978 893 969 q 869 997 882 988 l 869 1018 l 963 1081 q 994 1049 982 1067 q 1007 996 1007 1032 z "},"Ứ":{"ha":878,"x_min":72,"x_max":1007,"o":"m 72 0 m 1007 996 q 964 889 1007 942 q 813 801 921 836 l 756 386 q 694 154 735 240 q 578 26 654 68 q 376 -15 503 -15 q 96 228 96 -15 q 108 383 96 296 l 168 810 l 72 829 l 81 900 l 436 900 l 426 829 l 328 810 l 267 386 q 253 238 253 286 q 287 113 253 156 q 415 71 321 71 q 531 101 486 71 q 602 200 575 132 q 646 386 629 268 l 707 810 l 611 829 l 619 900 l 800 900 q 871 912 849 900 q 893 954 893 924 q 888 978 893 969 q 869 997 882 988 l 869 1018 l 963 1081 q 994 1049 982 1067 q 1007 996 1007 1032 m 451 1000 l 703 1165 q 754 1082 754 1136 q 740 1044 754 1060 q 689 1015 726 1029 l 485 939 l 451 1000 z "},"Ự":{"ha":878,"x_min":72,"x_max":1007,"o":"m 72 0 m 1007 996 q 964 889 1007 942 q 813 801 921 836 l 756 386 q 694 154 735 240 q 578 26 654 68 q 376 -15 503 -15 q 96 228 96 -15 q 108 383 96 296 l 168 810 l 72 829 l 81 900 l 436 900 l 426 829 l 328 810 l 267 386 q 253 238 253 286 q 287 113 253 156 q 415 71 321 71 q 531 101 486 71 q 602 200 575 132 q 646 386 629 268 l 707 810 l 611 829 l 619 900 l 800 900 q 871 912 849 900 q 893 954 893 924 q 888 978 893 969 q 869 997 882 988 l 869 1018 l 963 1081 q 994 1049 982 1067 q 1007 996 1007 1032 m 360 -256 q 297 -230 321 -256 q 272 -167 272 -204 q 299 -89 272 -122 q 375 -56 326 -56 q 438 -81 414 -56 q 463 -147 463 -106 q 435 -223 463 -190 q 360 -256 408 -256 z "},"Ừ":{"ha":878,"x_min":72,"x_max":1007,"o":"m 72 0 m 1007 996 q 964 889 1007 942 q 813 801 921 836 l 756 386 q 694 154 735 240 q 578 26 654 68 q 376 -15 503 -15 q 96 228 96 -15 q 108 383 96 296 l 168 810 l 72 829 l 81 900 l 436 900 l 426 829 l 328 810 l 267 386 q 253 238 253 286 q 287 113 253 156 q 415 71 321 71 q 531 101 486 71 q 602 200 575 132 q 646 386 629 268 l 707 810 l 611 829 l 619 900 l 800 900 q 871 912 849 900 q 893 954 893 924 q 888 978 893 969 q 869 997 882 988 l 869 1018 l 963 1081 q 994 1049 982 1067 q 1007 996 1007 1032 m 388 1015 q 337 1043 351 1028 q 322 1081 322 1058 q 374 1165 322 1138 l 625 1000 l 593 939 l 388 1015 z "},"Ử":{"ha":878,"x_min":72,"x_max":1007,"o":"m 72 0 m 1007 996 q 964 889 1007 942 q 813 801 921 836 l 756 386 q 694 154 735 240 q 578 26 654 68 q 376 -15 503 -15 q 96 228 96 -15 q 108 383 96 296 l 168 810 l 72 829 l 81 900 l 436 900 l 426 829 l 328 810 l 267 386 q 253 238 253 286 q 287 113 253 156 q 415 71 321 71 q 531 101 486 71 q 602 200 575 132 q 646 386 629 268 l 707 810 l 611 829 l 619 900 l 800 900 q 871 912 849 900 q 893 954 893 924 q 888 978 893 969 q 869 997 882 988 l 869 1018 l 963 1081 q 994 1049 982 1067 q 1007 996 1007 1032 m 482 939 q 475 965 475 956 q 487 994 475 983 q 536 1019 499 1006 q 582 1060 582 1038 q 532 1086 582 1086 q 447 1075 489 1086 q 432 1119 432 1097 q 539 1172 432 1172 q 663 1149 618 1172 q 707 1081 707 1125 q 678 1020 707 1046 q 607 981 650 994 q 578 965 585 972 q 569 944 571 958 l 482 939 z "},"Ữ":{"ha":878,"x_min":72,"x_max":1007,"o":"m 72 0 m 1007 996 q 964 889 1007 942 q 813 801 921 836 l 756 386 q 694 154 735 240 q 578 26 654 68 q 376 -15 503 -15 q 96 228 96 -15 q 108 383 96 296 l 168 810 l 72 829 l 81 900 l 436 900 l 426 829 l 328 810 l 267 386 q 253 238 253 286 q 287 113 253 156 q 415 71 321 71 q 531 101 486 71 q 602 200 575 132 q 646 386 629 268 l 707 810 l 611 829 l 619 900 l 800 900 q 871 912 849 900 q 893 954 893 924 q 888 978 893 969 q 869 997 882 988 l 869 1018 l 963 1081 q 994 1049 982 1067 q 1007 996 1007 1032 m 339 1088 q 426 1143 383 1143 q 524 1119 461 1143 l 650 1078 l 764 1129 l 801 1088 l 738 1014 q 650 958 690 958 q 553 981 613 958 l 426 1024 l 314 972 l 276 1014 l 339 1088 z "},"Ű":{"ha":874,"x_min":72,"x_max":922,"o":"m 319 969 l 467 1169 q 528 1147 503 1168 q 554 1099 554 1125 q 535 1052 553 1075 q 489 1011 517 1029 l 368 926 l 319 969 m 565 969 l 713 1169 q 774 1146 749 1168 q 799 1099 799 1124 q 781 1052 799 1075 q 735 1011 763 1029 l 613 926 l 565 969 m 376 -15 q 96 228 96 -15 q 108 383 96 296 l 168 810 l 72 829 l 81 900 l 436 900 l 426 829 l 328 810 l 267 386 q 253 238 253 286 q 287 113 253 156 q 415 71 321 71 q 531 101 486 71 q 602 200 575 132 q 646 386 629 268 l 707 810 l 611 829 l 619 900 l 922 900 l 914 829 l 814 810 l 756 386 q 694 154 735 240 q 578 26 654 68 q 376 -15 503 -15 z "},"Ȗ":{"ha":878,"x_min":72,"x_max":922,"o":"m 72 0 m 72 829 l 81 900 l 436 900 l 426 829 l 328 810 l 267 386 q 253 238 253 286 q 287 113 253 156 q 415 71 321 71 q 531 101 486 71 q 602 200 575 132 q 646 386 629 268 l 707 810 l 611 829 l 619 900 l 922 900 l 914 829 l 814 810 l 756 386 q 694 154 735 240 q 578 26 654 68 q 376 -15 503 -15 q 96 228 96 -15 q 108 383 96 296 l 168 810 l 72 829 m 318 983 q 413 1100 350 1040 q 579 1160 476 1160 q 668 1141 626 1160 q 735 1091 710 1122 q 760 1026 760 1060 q 735 988 760 1007 q 675 956 711 968 q 556 1042 632 1042 q 357 951 447 1042 l 318 983 z "},"Ū":{"ha":874,"x_min":72,"x_max":922,"o":"m 313 1100 l 765 1100 l 753 996 l 300 996 l 313 1100 m 72 829 l 81 900 l 436 900 l 426 829 l 328 810 l 267 386 q 253 238 253 286 q 287 113 253 156 q 415 71 321 71 q 531 101 486 71 q 602 200 575 132 q 646 386 629 268 l 707 810 l 611 829 l 619 900 l 922 900 l 914 829 l 814 810 l 756 386 q 694 154 735 240 q 578 26 654 68 q 376 -15 503 -15 q 96 228 96 -15 q 108 383 96 296 l 168 810 l 72 829 z "},"Ų":{"ha":874,"x_min":72,"x_max":922,"o":"m 451 -254 q 360 -231 394 -254 q 326 -160 326 -208 q 351 -80 326 -117 q 417 -14 376 -43 l 415 -10 q 400 -12 413 -10 q 376 -15 388 -15 q 96 228 96 -15 q 108 383 96 296 l 168 810 l 72 829 l 81 900 l 436 900 l 426 829 l 328 810 l 267 386 q 253 238 253 286 q 287 113 253 156 q 415 71 321 71 q 531 101 486 71 q 602 200 575 132 q 646 386 629 268 l 707 810 l 611 829 l 619 900 l 922 900 l 914 829 l 814 810 l 756 386 q 680 126 733 217 q 522 3 626 35 q 444 -118 444 -51 q 496 -168 444 -168 q 571 -140 529 -168 l 600 -185 q 578 -206 600 -187 q 524 -239 557 -224 q 451 -254 490 -254 z "},"Ů":{"ha":874,"x_min":72,"x_max":922,"o":"m 531 921 q 433 947 464 921 q 403 1024 403 972 q 445 1119 403 1078 q 557 1161 488 1161 q 650 1135 617 1161 q 683 1056 683 1110 q 643 961 683 1001 q 531 921 603 921 m 540 985 q 578 999 567 985 q 589 1053 589 1014 q 577 1088 589 1078 q 544 1097 565 1097 q 507 1082 518 1097 q 496 1028 496 1067 q 506 994 496 1004 q 540 985 517 985 m 376 -15 q 96 228 96 -15 q 108 383 96 296 l 168 810 l 72 829 l 81 900 l 436 900 l 426 829 l 328 810 l 267 386 q 253 238 253 286 q 287 113 253 156 q 415 71 321 71 q 531 101 486 71 q 602 200 575 132 q 646 386 629 268 l 707 810 l 611 829 l 619 900 l 922 900 l 914 829 l 814 810 l 756 386 q 694 154 735 240 q 578 26 654 68 q 376 -15 503 -15 z "},"Ũ":{"ha":878,"x_min":72,"x_max":922,"o":"m 72 0 m 72 829 l 81 900 l 436 900 l 426 829 l 328 810 l 267 386 q 253 238 253 286 q 287 113 253 156 q 415 71 321 71 q 531 101 486 71 q 602 200 575 132 q 646 386 629 268 l 707 810 l 611 829 l 619 900 l 922 900 l 914 829 l 814 810 l 756 386 q 694 154 735 240 q 578 26 654 68 q 376 -15 503 -15 q 96 228 96 -15 q 108 383 96 296 l 168 810 l 72 829 m 339 1088 q 426 1143 383 1143 q 524 1119 461 1143 l 650 1078 l 764 1129 l 801 1088 l 738 1014 q 650 958 690 958 q 553 981 613 958 l 426 1024 l 314 972 l 276 1014 l 339 1088 z "},"V":{"ha":721,"x_min":17,"x_max":815,"o":"m 256 -12 l 103 811 l 17 829 l 22 900 l 371 900 l 364 829 l 271 814 l 271 794 l 363 253 l 365 213 l 369 214 l 382 251 l 622 799 l 622 813 l 518 829 l 526 900 l 815 900 l 806 829 l 729 810 l 357 -12 l 256 -12 z "},"W":{"ha":1129,"x_min":8,"x_max":1240,"o":"m 204 -11 l 92 821 l 8 838 l 17 900 l 371 900 l 364 838 l 264 817 l 265 788 l 321 226 l 322 185 l 328 186 l 340 226 l 560 722 l 544 821 l 461 838 l 469 900 l 824 900 l 817 838 l 717 817 l 717 792 l 782 231 l 786 186 l 790 188 l 803 231 l 1038 792 l 1044 815 l 946 838 l 953 900 l 1240 900 l 1232 838 l 1158 819 l 790 -11 l 667 -11 l 586 549 l 325 -11 l 204 -11 z "},"Ẃ":{"ha":1129,"x_min":8,"x_max":1240,"o":"m 8 0 m 204 -11 l 92 821 l 8 838 l 17 900 l 371 900 l 364 838 l 264 817 l 265 788 l 321 226 l 322 185 l 328 186 l 340 226 l 560 722 l 544 821 l 461 838 l 469 900 l 824 900 l 817 838 l 717 817 l 717 792 l 782 231 l 786 186 l 790 188 l 803 231 l 1038 792 l 1044 815 l 946 838 l 953 900 l 1240 900 l 1232 838 l 1158 819 l 790 -11 l 667 -11 l 586 549 l 325 -11 l 204 -11 m 576 1000 l 828 1165 q 879 1082 879 1136 q 865 1044 879 1060 q 814 1015 851 1029 l 610 939 l 576 1000 z "},"Ŵ":{"ha":1129,"x_min":8,"x_max":1240,"o":"m 8 0 m 204 -11 l 92 821 l 8 838 l 17 900 l 371 900 l 364 838 l 264 817 l 265 788 l 321 226 l 322 185 l 328 186 l 340 226 l 560 722 l 544 821 l 461 838 l 469 900 l 824 900 l 817 838 l 717 817 l 717 792 l 782 231 l 786 186 l 790 188 l 803 231 l 1038 792 l 1044 815 l 946 838 l 953 900 l 1240 900 l 1232 838 l 1158 819 l 790 -11 l 667 -11 l 586 549 l 325 -11 l 204 -11 m 576 1092 l 608 1117 q 652 1150 633 1138 q 679 1163 671 1163 q 710 1147 690 1163 q 758 1104 731 1131 l 867 1007 l 815 943 l 661 1031 l 497 949 l 461 1000 l 576 1092 z "},"Ẅ":{"ha":1129,"x_min":8,"x_max":1240,"o":"m 8 0 m 204 -11 l 92 821 l 8 838 l 17 900 l 371 900 l 364 838 l 264 817 l 265 788 l 321 226 l 322 185 l 328 186 l 340 226 l 560 722 l 544 821 l 461 838 l 469 900 l 824 900 l 817 838 l 717 817 l 717 792 l 782 231 l 786 186 l 790 188 l 803 231 l 1038 792 l 1044 815 l 946 838 l 953 900 l 1240 900 l 1232 838 l 1158 819 l 790 -11 l 667 -11 l 586 549 l 325 -11 l 204 -11 m 504 963 q 446 987 468 963 q 424 1047 424 1011 q 449 1118 424 1088 q 517 1149 474 1149 q 576 1126 553 1149 q 599 1064 599 1103 q 574 992 599 1022 q 504 963 549 963 m 808 963 q 750 987 772 963 q 728 1047 728 1011 q 753 1118 728 1088 q 821 1149 778 1149 q 880 1125 857 1149 q 903 1064 903 1101 q 878 992 903 1022 q 808 963 853 963 z "},"Ẁ":{"ha":1129,"x_min":8,"x_max":1240,"o":"m 8 0 m 204 -11 l 92 821 l 8 838 l 17 900 l 371 900 l 364 838 l 264 817 l 265 788 l 321 226 l 322 185 l 328 186 l 340 226 l 560 722 l 544 821 l 461 838 l 469 900 l 824 900 l 817 838 l 717 817 l 717 792 l 782 231 l 786 186 l 790 188 l 803 231 l 1038 792 l 1044 815 l 946 838 l 953 900 l 1240 900 l 1232 838 l 1158 819 l 790 -11 l 667 -11 l 586 549 l 325 -11 l 204 -11 m 513 1015 q 462 1043 476 1028 q 447 1081 447 1058 q 499 1165 447 1138 l 750 1000 l 718 939 l 513 1015 z "},"X":{"ha":767,"x_min":-75,"x_max":815,"o":"m -65 63 l 33 88 l 310 444 l 139 822 l 65 838 l 72 900 l 428 900 l 421 838 l 331 817 l 331 789 l 426 571 l 599 796 l 599 818 l 525 835 l 533 900 l 815 900 l 807 833 l 729 813 l 467 478 l 642 85 l 724 63 l 718 0 l 372 0 l 376 63 l 463 85 l 463 113 l 354 349 l 168 104 l 168 82 l 242 63 l 235 0 l -75 0 l -65 63 z "},"Y":{"ha":685,"x_min":22,"x_max":763,"o":"m 135 63 l 235 82 l 269 347 l 97 821 l 22 835 l 29 900 l 368 900 l 361 838 l 268 817 l 268 786 l 379 454 l 389 454 l 567 801 l 567 818 l 475 838 l 483 900 l 763 900 l 754 838 l 681 819 l 432 360 l 393 82 l 490 63 l 483 0 l 128 0 l 135 63 z "},"Ý":{"ha":685,"x_min":19,"x_max":760,"o":"m 297 1004 l 549 1169 q 585 1137 569 1158 q 600 1086 600 1115 q 585 1049 600 1064 q 535 1021 571 1033 l 329 944 l 297 1004 m 125 0 l 132 63 l 232 82 l 267 347 l 94 821 l 19 835 l 26 900 l 365 900 l 358 838 l 264 817 l 264 786 l 375 454 l 385 454 l 564 801 l 564 818 l 474 838 l 481 900 l 760 900 l 751 838 l 678 819 l 431 365 l 390 82 l 488 63 l 481 0 l 125 0 z "},"Ŷ":{"ha":685,"x_min":22,"x_max":763,"o":"m 22 0 m 135 63 l 235 82 l 269 347 l 97 821 l 22 835 l 29 900 l 368 900 l 361 838 l 268 817 l 268 786 l 379 454 l 389 454 l 567 801 l 567 818 l 475 838 l 483 900 l 763 900 l 754 838 l 681 819 l 432 360 l 393 82 l 490 63 l 483 0 l 128 0 l 135 63 m 361 1092 l 393 1117 q 437 1150 418 1138 q 464 1163 456 1163 q 495 1147 475 1163 q 543 1104 515 1131 l 651 1007 l 600 943 l 446 1031 l 282 949 l 246 1000 l 361 1092 z "},"Ÿ":{"ha":685,"x_min":19,"x_max":760,"o":"m 274 963 q 215 987 238 963 q 193 1047 193 1011 q 219 1118 193 1088 q 288 1149 244 1149 q 346 1126 324 1149 q 368 1064 368 1103 q 343 992 368 1022 q 274 963 318 963 m 578 963 q 519 987 542 963 q 497 1047 497 1011 q 522 1118 497 1088 q 590 1149 547 1149 q 649 1126 626 1149 q 672 1064 672 1103 q 647 992 672 1022 q 578 963 622 963 m 132 63 l 232 82 l 267 347 l 94 821 l 19 835 l 26 900 l 365 900 l 358 838 l 264 817 l 264 786 l 375 454 l 385 454 l 564 801 l 564 818 l 474 838 l 481 900 l 760 900 l 751 838 l 678 819 l 431 365 l 390 82 l 488 63 l 481 0 l 125 0 l 132 63 z "},"Ỵ":{"ha":685,"x_min":22,"x_max":763,"o":"m 22 0 m 135 63 l 235 82 l 269 347 l 97 821 l 22 835 l 29 900 l 368 900 l 361 838 l 268 817 l 268 786 l 379 454 l 389 454 l 567 801 l 567 818 l 475 838 l 483 900 l 763 900 l 754 838 l 681 819 l 432 360 l 393 82 l 490 63 l 483 0 l 128 0 l 135 63 m 272 -256 q 209 -230 233 -256 q 185 -167 185 -204 q 212 -89 185 -122 q 288 -56 239 -56 q 351 -81 326 -56 q 375 -147 375 -106 q 348 -223 375 -190 q 272 -256 321 -256 z "},"Ỳ":{"ha":685,"x_min":22,"x_max":763,"o":"m 22 0 m 135 63 l 235 82 l 269 347 l 97 821 l 22 835 l 29 900 l 368 900 l 361 838 l 268 817 l 268 786 l 379 454 l 389 454 l 567 801 l 567 818 l 475 838 l 483 900 l 763 900 l 754 838 l 681 819 l 432 360 l 393 82 l 490 63 l 483 0 l 128 0 l 135 63 m 297 1015 q 247 1043 261 1028 q 232 1081 232 1058 q 283 1165 232 1138 l 535 1000 l 503 939 l 297 1015 z "},"Ỷ":{"ha":685,"x_min":22,"x_max":763,"o":"m 22 0 m 135 63 l 235 82 l 269 347 l 97 821 l 22 835 l 29 900 l 368 900 l 361 838 l 268 817 l 268 786 l 379 454 l 389 454 l 567 801 l 567 818 l 475 838 l 483 900 l 763 900 l 754 838 l 681 819 l 432 360 l 393 82 l 490 63 l 483 0 l 128 0 l 135 63 m 392 939 q 385 965 385 956 q 397 994 385 983 q 446 1019 408 1006 q 492 1060 492 1038 q 442 1086 492 1086 q 357 1075 399 1086 q 342 1119 342 1097 q 449 1172 342 1172 q 572 1149 528 1172 q 617 1081 617 1125 q 588 1020 617 1046 q 517 981 560 994 q 488 965 494 972 q 479 944 481 958 l 392 939 z "},"Ȳ":{"ha":685,"x_min":22,"x_max":763,"o":"m 22 0 m 135 63 l 235 82 l 269 347 l 97 821 l 22 835 l 29 900 l 368 900 l 361 838 l 268 817 l 268 786 l 379 454 l 389 454 l 567 801 l 567 818 l 475 838 l 483 900 l 763 900 l 754 838 l 681 819 l 432 360 l 393 82 l 490 63 l 483 0 l 128 0 l 135 63 m 228 1100 l 681 1100 l 667 996 l 214 996 l 228 1100 z "},"Ỹ":{"ha":685,"x_min":22,"x_max":763,"o":"m 22 0 m 135 63 l 235 82 l 269 347 l 97 821 l 22 835 l 29 900 l 368 900 l 361 838 l 268 817 l 268 786 l 379 454 l 389 454 l 567 801 l 567 818 l 475 838 l 483 900 l 763 900 l 754 838 l 681 819 l 432 360 l 393 82 l 490 63 l 483 0 l 128 0 l 135 63 m 249 1088 q 336 1143 293 1143 q 433 1119 371 1143 l 560 1078 l 674 1129 l 711 1088 l 647 1014 q 560 958 600 958 q 463 981 522 958 l 336 1024 l 224 972 l 186 1014 l 249 1088 z "},"Z":{"ha":717,"x_min":-11,"x_max":725,"o":"m -11 83 l 522 792 l 510 814 l 207 814 l 149 664 l 72 664 l 106 900 l 671 900 l 725 814 l 185 97 l 192 85 l 518 85 l 574 235 l 650 235 l 619 0 l 22 0 l -11 83 z "},"Ź":{"ha":717,"x_min":-14,"x_max":724,"o":"m 283 1000 l 535 1165 q 586 1082 586 1136 q 572 1043 586 1058 q 521 1015 558 1028 l 317 939 l 283 1000 m 19 0 l -14 83 l 521 792 l 507 814 l 206 814 l 146 664 l 69 664 l 104 900 l 669 900 l 724 814 l 183 97 l 189 85 l 517 85 l 571 235 l 647 235 l 617 0 l 19 0 z "},"Ž":{"ha":717,"x_min":-14,"x_max":724,"o":"m 410 943 q 381 957 399 943 q 350 985 364 971 q 332 1001 336 999 l 226 1101 l 278 1164 l 428 1075 l 589 1163 l 625 1111 l 513 1015 q 444 960 467 976 q 410 943 421 943 m 19 0 l -14 83 l 521 792 l 507 814 l 206 814 l 146 664 l 69 664 l 104 900 l 669 900 l 724 814 l 183 97 l 189 85 l 517 85 l 571 235 l 647 235 l 617 0 l 19 0 z "},"Ż":{"ha":717,"x_min":-14,"x_max":724,"o":"m 406 954 q 346 979 369 954 q 322 1040 322 1004 q 348 1115 322 1082 q 421 1149 374 1149 q 482 1124 458 1149 q 506 1060 506 1100 q 479 985 506 1017 q 406 954 453 954 m -14 83 l 521 792 l 507 814 l 206 814 l 146 664 l 69 664 l 104 900 l 669 900 l 724 814 l 183 97 l 189 85 l 517 85 l 571 235 l 647 235 l 617 0 l 19 0 l -14 83 z "},"Ẓ":{"ha":717,"x_min":-11,"x_max":725,"o":"m 0 0 m -11 83 l 522 792 l 510 814 l 207 814 l 149 664 l 72 664 l 106 900 l 671 900 l 725 814 l 185 97 l 192 85 l 518 85 l 574 235 l 650 235 l 619 0 l 22 0 l -11 83 m 279 -256 q 216 -230 240 -256 q 192 -167 192 -204 q 219 -89 192 -122 q 294 -56 246 -56 q 358 -81 333 -56 q 382 -147 382 -106 q 355 -223 382 -190 q 279 -256 328 -256 z "},"a":{"ha":711,"x_min":42,"x_max":651,"o":"m 414 146 q 317 32 371 78 q 206 -14 263 -14 q 42 208 42 -14 q 79 419 42 300 q 186 626 117 539 q 350 713 256 713 q 518 667 426 713 l 563 718 l 649 718 l 553 111 l 651 111 l 651 36 q 625 23 646 33 q 567 3 604 13 q 488 -7 531 -7 q 392 63 392 -7 q 418 143 392 99 l 414 146 m 471 533 q 311 611 383 611 q 276 603 281 611 q 221 442 242 539 q 200 238 200 344 q 254 104 200 104 q 338 143 293 104 q 419 233 382 182 l 471 533 z "},"á":{"ha":719,"x_min":42,"x_max":651,"o":"m 331 821 l 533 1026 q 592 997 574 1018 q 610 947 610 975 q 580 894 610 918 q 506 844 550 869 l 372 769 l 331 821 m 206 -14 q 42 208 42 -14 q 79 419 42 300 q 186 626 117 539 q 350 713 256 713 q 441 699 396 713 q 518 667 486 685 l 563 718 l 649 718 l 553 111 l 651 111 l 651 36 q 625 23 646 33 q 567 3 604 13 q 488 -7 531 -7 q 392 63 392 -7 q 418 143 392 99 l 414 146 q 317 32 371 78 q 206 -14 263 -14 m 254 104 q 338 143 293 104 q 419 233 382 182 l 471 533 q 311 611 383 611 q 276 603 281 611 q 221 442 242 539 q 200 238 200 344 q 254 104 200 104 z "},"ă":{"ha":717,"x_min":42,"x_max":654,"o":"m 401 781 q 305 806 346 781 q 242 867 264 831 q 221 939 221 904 q 236 974 221 964 q 278 995 247 985 q 324 1006 310 1006 q 356 923 329 956 q 438 890 383 890 q 524 915 486 890 q 584 969 561 940 q 607 1003 607 999 l 654 979 q 628 919 654 968 q 547 825 603 869 q 401 781 490 781 m 206 -14 q 42 208 42 -14 q 79 419 42 300 q 186 626 117 539 q 350 713 256 713 q 441 699 396 713 q 518 667 486 685 l 563 718 l 649 718 l 553 111 l 651 111 l 651 36 q 625 23 646 33 q 567 3 604 13 q 488 -7 531 -7 q 392 63 392 -7 q 418 143 392 99 l 414 146 q 317 32 371 78 q 206 -14 263 -14 m 254 104 q 338 143 293 104 q 419 233 382 182 l 471 533 q 311 611 383 611 q 276 603 281 611 q 221 442 242 539 q 200 238 200 344 q 254 104 200 104 z "},"ắ":{"ha":711,"x_min":42,"x_max":672,"o":"m 42 0 m 414 146 q 317 32 371 78 q 206 -14 263 -14 q 42 208 42 -14 q 79 419 42 300 q 186 626 117 539 q 350 713 256 713 q 518 667 426 713 l 563 718 l 649 718 l 553 111 l 651 111 l 651 36 q 625 23 646 33 q 567 3 604 13 q 488 -7 531 -7 q 392 63 392 -7 q 418 143 392 99 l 414 146 m 471 533 q 311 611 383 611 q 276 603 281 611 q 221 442 242 539 q 200 238 200 344 q 254 104 200 104 q 338 143 293 104 q 419 233 382 182 l 471 533 m 407 781 q 310 806 351 781 q 248 867 269 831 q 226 939 226 904 q 240 974 226 960 q 283 994 251 983 q 329 1006 315 1006 q 444 890 346 890 q 529 915 492 890 q 590 969 567 940 q 614 1003 614 999 l 661 979 q 635 919 661 968 q 553 825 610 869 q 407 781 497 781 m 393 1043 l 596 1249 q 654 1219 636 1240 q 672 1169 672 1197 q 648 1119 672 1140 q 568 1067 624 1099 l 435 992 l 393 1043 z "},"ặ":{"ha":711,"x_min":42,"x_max":651,"o":"m 42 0 m 414 146 q 317 32 371 78 q 206 -14 263 -14 q 42 208 42 -14 q 79 419 42 300 q 186 626 117 539 q 350 713 256 713 q 518 667 426 713 l 563 718 l 649 718 l 553 111 l 651 111 l 651 36 q 625 23 646 33 q 567 3 604 13 q 488 -7 531 -7 q 392 63 392 -7 q 418 143 392 99 l 414 146 m 471 533 q 311 611 383 611 q 276 603 281 611 q 221 442 242 539 q 200 238 200 344 q 254 104 200 104 q 338 143 293 104 q 419 233 382 182 l 471 533 m 276 -256 q 213 -230 238 -256 q 189 -167 189 -204 q 216 -89 189 -122 q 292 -56 243 -56 q 355 -81 331 -56 q 379 -147 379 -106 q 352 -223 379 -190 q 276 -256 325 -256 m 397 781 q 301 806 342 781 q 238 867 260 831 q 217 939 217 904 q 231 974 217 960 q 274 994 242 983 q 319 1006 306 1006 q 435 890 336 890 q 519 915 482 890 q 581 969 557 940 q 604 1003 604 999 l 651 979 q 626 919 651 968 q 544 825 600 869 q 397 781 488 781 z "},"ằ":{"ha":711,"x_min":42,"x_max":667,"o":"m 42 0 m 414 146 q 317 32 371 78 q 206 -14 263 -14 q 42 208 42 -14 q 79 419 42 300 q 186 626 117 539 q 350 713 256 713 q 518 667 426 713 l 563 718 l 649 718 l 553 111 l 651 111 l 651 36 q 625 23 646 33 q 567 3 604 13 q 488 -7 531 -7 q 392 63 392 -7 q 418 143 392 99 l 414 146 m 471 533 q 311 611 383 611 q 276 603 281 611 q 221 442 242 539 q 200 238 200 344 q 254 104 200 104 q 338 143 293 104 q 419 233 382 182 l 471 533 m 413 781 q 316 806 357 781 q 253 867 275 831 q 232 939 232 904 q 246 974 232 960 q 289 994 257 983 q 335 1006 321 1006 q 450 890 351 890 q 535 915 497 890 q 596 969 572 940 q 619 1003 619 999 l 667 979 q 641 919 667 968 q 559 825 615 869 q 413 781 503 781 m 392 1067 q 313 1119 338 1097 q 289 1169 289 1140 q 306 1219 289 1197 q 364 1249 324 1240 l 567 1043 l 525 992 l 392 1067 z "},"ẳ":{"ha":711,"x_min":42,"x_max":665,"o":"m 42 0 m 414 146 q 317 32 371 78 q 206 -14 263 -14 q 42 208 42 -14 q 79 419 42 300 q 186 626 117 539 q 350 713 256 713 q 518 667 426 713 l 563 718 l 649 718 l 553 111 l 651 111 l 651 36 q 625 23 646 33 q 567 3 604 13 q 488 -7 531 -7 q 392 63 392 -7 q 418 143 392 99 l 414 146 m 471 533 q 311 611 383 611 q 276 603 281 611 q 221 442 242 539 q 200 238 200 344 q 254 104 200 104 q 338 143 293 104 q 419 233 382 182 l 471 533 m 411 781 q 315 806 356 781 q 252 867 274 831 q 231 939 231 904 q 244 974 231 960 q 288 994 256 983 q 333 1006 319 1006 q 449 890 350 890 q 533 915 496 890 q 594 969 571 940 q 618 1003 618 999 l 665 979 q 640 919 665 968 q 558 825 614 869 q 411 781 501 781 m 417 967 q 408 1006 408 997 q 422 1037 408 1024 q 472 1071 436 1050 q 507 1094 496 1083 q 518 1122 518 1104 q 464 1153 518 1153 q 385 1142 426 1153 q 369 1185 369 1161 q 394 1226 369 1213 q 476 1239 418 1239 q 599 1214 556 1239 q 643 1140 643 1189 q 617 1074 643 1101 q 543 1025 590 1047 q 510 1006 517 1013 q 504 976 504 999 l 417 967 z "},"ẵ":{"ha":711,"x_min":42,"x_max":696,"o":"m 553 1060 q 451 1079 513 1060 l 344 1114 l 240 1068 l 207 1103 l 267 1168 q 307 1205 288 1193 q 351 1217 326 1217 q 436 1200 386 1217 l 558 1163 l 663 1208 l 696 1172 l 636 1110 q 553 1060 593 1060 m 381 781 q 284 806 325 781 q 222 867 243 831 q 200 939 200 904 q 214 974 200 960 q 257 994 225 983 q 303 1006 289 1006 q 418 890 319 890 q 503 915 465 890 q 564 969 540 940 q 588 1003 588 999 l 635 979 q 609 919 635 968 q 527 825 583 869 q 381 781 471 781 m 414 146 q 317 32 371 78 q 206 -14 263 -14 q 42 208 42 -14 q 79 419 42 300 q 186 626 117 539 q 350 713 256 713 q 518 667 426 713 l 563 718 l 649 718 l 553 111 l 651 111 l 651 36 q 625 23 646 33 q 567 3 604 13 q 488 -7 531 -7 q 392 63 392 -7 q 418 143 392 99 l 414 146 m 471 533 q 311 611 383 611 q 276 603 281 611 q 221 442 242 539 q 200 238 200 344 q 254 104 200 104 q 338 143 293 104 q 419 233 382 182 l 471 533 z "},"ǎ":{"ha":711,"x_min":42,"x_max":651,"o":"m 42 0 m 414 146 q 317 32 371 78 q 206 -14 263 -14 q 42 208 42 -14 q 79 419 42 300 q 186 626 117 539 q 350 713 256 713 q 518 667 426 713 l 563 718 l 649 718 l 553 111 l 651 111 l 651 36 q 625 23 646 33 q 567 3 604 13 q 488 -7 531 -7 q 392 63 392 -7 q 418 143 392 99 l 414 146 m 471 533 q 311 611 383 611 q 276 603 281 611 q 221 442 242 539 q 200 238 200 344 q 254 104 200 104 q 338 143 293 104 q 419 233 382 182 l 471 533 m 289 1022 l 426 918 l 592 1017 l 632 972 l 500 846 q 441 790 461 807 q 408 772 421 772 q 385 782 396 772 q 363 806 374 792 q 346 828 351 821 l 236 974 l 289 1022 z "},"â":{"ha":717,"x_min":42,"x_max":651,"o":"m 417 874 l 251 778 l 210 822 l 343 951 q 401 1006 381 989 q 435 1024 422 1024 q 461 1012 450 1024 q 497 968 472 1000 l 606 822 l 557 772 l 417 874 m 206 -14 q 42 208 42 -14 q 79 419 42 300 q 186 626 117 539 q 350 713 256 713 q 441 699 396 713 q 518 667 486 685 l 563 718 l 649 718 l 553 111 l 651 111 l 651 36 q 625 23 646 33 q 567 3 604 13 q 488 -7 531 -7 q 392 63 392 -7 q 418 143 392 99 l 414 146 q 317 32 371 78 q 206 -14 263 -14 m 254 104 q 338 143 293 104 q 419 233 382 182 l 471 533 q 311 611 383 611 q 276 603 281 611 q 221 442 242 539 q 200 238 200 344 q 254 104 200 104 z "},"ấ":{"ha":711,"x_min":42,"x_max":757,"o":"m 42 0 m 414 146 q 317 32 371 78 q 206 -14 263 -14 q 42 208 42 -14 q 79 419 42 300 q 186 626 117 539 q 350 713 256 713 q 518 667 426 713 l 563 718 l 649 718 l 553 111 l 651 111 l 651 36 q 625 23 646 33 q 567 3 604 13 q 488 -7 531 -7 q 392 63 392 -7 q 418 143 392 99 l 414 146 m 471 533 q 311 611 383 611 q 276 603 281 611 q 221 442 242 539 q 200 238 200 344 q 254 104 200 104 q 338 143 293 104 q 419 233 382 182 l 471 533 m 379 874 l 214 778 l 171 822 l 304 951 q 365 1007 344 990 q 397 1024 385 1024 q 424 1011 411 1024 q 460 968 436 999 l 568 822 l 518 772 l 379 874 m 478 1013 l 681 1218 q 739 1188 721 1210 q 757 1139 757 1167 q 733 1089 757 1110 q 653 1036 708 1068 l 519 961 l 478 1013 z "},"ậ":{"ha":711,"x_min":42,"x_max":651,"o":"m 42 0 m 414 146 q 317 32 371 78 q 206 -14 263 -14 q 42 208 42 -14 q 79 419 42 300 q 186 626 117 539 q 350 713 256 713 q 518 667 426 713 l 563 718 l 649 718 l 553 111 l 651 111 l 651 36 q 625 23 646 33 q 567 3 604 13 q 488 -7 531 -7 q 392 63 392 -7 q 418 143 392 99 l 414 146 m 471 533 q 311 611 383 611 q 276 603 281 611 q 221 442 242 539 q 200 238 200 344 q 254 104 200 104 q 338 143 293 104 q 419 233 382 182 l 471 533 m 276 -256 q 213 -230 238 -256 q 189 -167 189 -204 q 216 -89 189 -122 q 292 -56 243 -56 q 355 -81 331 -56 q 379 -147 379 -106 q 352 -223 379 -190 q 276 -256 325 -256 m 431 874 l 265 778 l 222 822 l 356 951 q 416 1007 396 990 q 449 1024 436 1024 q 475 1011 463 1024 q 511 968 488 999 l 619 822 l 569 772 l 431 874 z "},"ầ":{"ha":711,"x_min":42,"x_max":683,"o":"m 42 0 m 414 146 q 317 32 371 78 q 206 -14 263 -14 q 42 208 42 -14 q 79 419 42 300 q 186 626 117 539 q 350 713 256 713 q 518 667 426 713 l 563 718 l 649 718 l 553 111 l 651 111 l 651 36 q 625 23 646 33 q 567 3 604 13 q 488 -7 531 -7 q 392 63 392 -7 q 418 143 392 99 l 414 146 m 471 533 q 311 611 383 611 q 276 603 281 611 q 221 442 242 539 q 200 238 200 344 q 254 104 200 104 q 338 143 293 104 q 419 233 382 182 l 471 533 m 418 874 l 253 778 l 210 822 l 343 951 q 403 1007 383 990 q 436 1024 424 1024 q 463 1011 450 1024 q 499 968 475 999 l 607 822 l 557 772 l 418 874 m 508 1036 q 430 1088 454 1067 q 406 1139 406 1110 q 423 1188 406 1167 q 481 1218 440 1210 l 683 1013 l 642 961 l 508 1036 z "},"ẩ":{"ha":711,"x_min":42,"x_max":767,"o":"m 42 0 m 414 146 q 317 32 371 78 q 206 -14 263 -14 q 42 208 42 -14 q 79 419 42 300 q 186 626 117 539 q 350 713 256 713 q 518 667 426 713 l 563 718 l 649 718 l 553 111 l 651 111 l 651 36 q 625 23 646 33 q 567 3 604 13 q 488 -7 531 -7 q 392 63 392 -7 q 418 143 392 99 l 414 146 m 471 533 q 311 611 383 611 q 276 603 281 611 q 221 442 242 539 q 200 238 200 344 q 254 104 200 104 q 338 143 293 104 q 419 233 382 182 l 471 533 m 392 874 l 226 778 l 183 822 l 317 951 q 377 1007 357 990 q 410 1024 397 1024 q 436 1011 424 1024 q 472 968 449 999 l 581 822 l 531 772 l 392 874 m 540 936 q 532 975 532 967 q 546 1006 532 993 q 596 1040 560 1019 q 631 1063 619 1053 q 642 1092 642 1074 q 588 1122 642 1122 q 508 1111 550 1122 q 493 1154 493 1131 q 517 1195 493 1182 q 600 1208 542 1208 q 723 1183 679 1208 q 767 1110 767 1158 q 740 1044 767 1071 q 667 994 714 1017 q 634 975 640 982 q 628 946 628 968 l 540 936 z "},"ẫ":{"ha":711,"x_min":42,"x_max":696,"o":"m 553 1076 q 451 1096 513 1076 l 344 1131 l 240 1085 l 207 1119 l 267 1185 q 307 1222 288 1210 q 351 1233 326 1233 q 436 1217 386 1233 l 558 1179 l 663 1225 l 696 1189 l 636 1126 q 553 1076 593 1076 m 414 874 l 249 778 l 206 822 l 339 951 q 399 1007 379 990 q 432 1024 419 1024 q 458 1011 446 1024 q 494 968 471 999 l 603 822 l 553 772 l 414 874 m 414 146 q 317 32 371 78 q 206 -14 263 -14 q 42 208 42 -14 q 79 419 42 300 q 186 626 117 539 q 350 713 256 713 q 518 667 426 713 l 563 718 l 649 718 l 553 111 l 651 111 l 651 36 q 625 23 646 33 q 567 3 604 13 q 488 -7 531 -7 q 392 63 392 -7 q 418 143 392 99 l 414 146 m 471 533 q 311 611 383 611 q 276 603 281 611 q 221 442 242 539 q 200 238 200 344 q 254 104 200 104 q 338 143 293 104 q 419 233 382 182 l 471 533 z "},"ȁ":{"ha":711,"x_min":42,"x_max":651,"o":"m 42 0 m 414 146 q 317 32 371 78 q 206 -14 263 -14 q 42 208 42 -14 q 79 419 42 300 q 186 626 117 539 q 350 713 256 713 q 518 667 426 713 l 563 718 l 649 718 l 553 111 l 651 111 l 651 36 q 625 23 646 33 q 567 3 604 13 q 488 -7 531 -7 q 392 63 392 -7 q 418 143 392 99 l 414 146 m 471 533 q 311 611 383 611 q 276 603 281 611 q 221 442 242 539 q 200 238 200 344 q 254 104 200 104 q 338 143 293 104 q 419 233 382 182 l 471 533 m 219 861 q 187 915 196 894 q 178 951 178 935 q 215 1012 178 988 q 300 1033 253 1036 l 356 800 l 292 765 l 219 861 m 453 861 q 422 915 431 894 q 413 951 413 935 q 447 1011 413 988 q 535 1033 481 1035 l 589 800 l 525 765 l 453 861 z "},"ä":{"ha":717,"x_min":42,"x_max":658,"o":"m 283 808 q 226 832 249 808 q 204 889 204 856 q 230 965 204 932 q 303 999 256 999 q 362 976 339 999 q 385 914 385 953 q 358 840 385 872 q 283 808 331 808 m 558 808 q 501 832 524 808 q 478 889 478 856 q 504 965 478 932 q 578 999 531 999 q 636 976 614 999 q 658 914 658 953 q 632 840 658 872 q 558 808 606 808 m 206 -14 q 42 208 42 -14 q 79 419 42 300 q 186 626 117 539 q 350 713 256 713 q 441 699 396 713 q 518 667 486 685 l 563 718 l 649 718 l 553 111 l 651 111 l 651 36 q 625 23 646 33 q 567 3 604 13 q 488 -7 531 -7 q 392 63 392 -7 q 418 143 392 99 l 414 146 q 317 32 371 78 q 206 -14 263 -14 m 254 104 q 338 143 293 104 q 419 233 382 182 l 471 533 q 311 611 383 611 q 276 603 281 611 q 221 442 242 539 q 200 238 200 344 q 254 104 200 104 z "},"ạ":{"ha":711,"x_min":42,"x_max":651,"o":"m 42 0 m 414 146 q 317 32 371 78 q 206 -14 263 -14 q 42 208 42 -14 q 79 419 42 300 q 186 626 117 539 q 350 713 256 713 q 518 667 426 713 l 563 718 l 649 718 l 553 111 l 651 111 l 651 36 q 625 23 646 33 q 567 3 604 13 q 488 -7 531 -7 q 392 63 392 -7 q 418 143 392 99 l 414 146 m 471 533 q 311 611 383 611 q 276 603 281 611 q 221 442 242 539 q 200 238 200 344 q 254 104 200 104 q 338 143 293 104 q 419 233 382 182 l 471 533 m 276 -256 q 213 -230 238 -256 q 189 -167 189 -204 q 216 -89 189 -122 q 292 -56 243 -56 q 355 -81 331 -56 q 379 -147 379 -106 q 352 -223 379 -190 q 276 -256 325 -256 z "},"à":{"ha":717,"x_min":42,"x_max":651,"o":"m 381 844 q 306 894 336 869 q 276 947 276 918 q 294 997 276 975 q 353 1026 313 1018 l 554 821 l 514 769 l 381 844 m 414 146 q 317 32 371 78 q 206 -14 263 -14 q 42 208 42 -14 q 79 419 42 300 q 186 626 117 539 q 350 713 256 713 q 441 699 396 713 q 518 667 486 685 l 563 718 l 649 718 l 553 111 l 651 111 l 651 36 q 625 23 646 33 q 567 3 604 13 q 488 -7 531 -7 q 392 63 392 -7 q 418 143 392 99 l 414 146 m 471 533 q 311 611 383 611 q 276 603 281 611 q 221 442 242 539 q 200 238 200 344 q 254 104 200 104 q 338 143 293 104 q 419 233 382 182 l 471 533 z "},"ả":{"ha":711,"x_min":42,"x_max":651,"o":"m 42 0 m 414 146 q 317 32 371 78 q 206 -14 263 -14 q 42 208 42 -14 q 79 419 42 300 q 186 626 117 539 q 350 713 256 713 q 518 667 426 713 l 563 718 l 649 718 l 553 111 l 651 111 l 651 36 q 625 23 646 33 q 567 3 604 13 q 488 -7 531 -7 q 392 63 392 -7 q 418 143 392 99 l 414 146 m 471 533 q 311 611 383 611 q 276 603 281 611 q 221 442 242 539 q 200 238 200 344 q 254 104 200 104 q 338 143 293 104 q 419 233 382 182 l 471 533 m 369 744 q 361 783 361 775 q 375 815 361 801 q 425 849 389 828 q 460 872 449 861 q 471 900 471 882 q 417 931 471 931 q 338 919 379 931 q 322 963 322 939 q 347 1003 322 990 q 429 1017 371 1017 q 552 992 508 1017 q 596 918 596 967 q 569 852 596 879 q 496 803 543 825 q 463 783 469 790 q 457 754 457 776 l 369 744 z "},"ȃ":{"ha":711,"x_min":42,"x_max":651,"o":"m 42 0 m 414 146 q 317 32 371 78 q 206 -14 263 -14 q 42 208 42 -14 q 79 419 42 300 q 186 626 117 539 q 350 713 256 713 q 518 667 426 713 l 563 718 l 649 718 l 553 111 l 651 111 l 651 36 q 625 23 646 33 q 567 3 604 13 q 488 -7 531 -7 q 392 63 392 -7 q 418 143 392 99 l 414 146 m 471 533 q 311 611 383 611 q 276 603 281 611 q 221 442 242 539 q 200 238 200 344 q 254 104 200 104 q 338 143 293 104 q 419 233 382 182 l 471 533 m 217 807 q 242 867 217 818 q 324 961 268 917 q 469 1006 381 1006 q 567 981 525 1006 q 630 919 608 956 q 651 847 651 882 q 648 826 651 833 q 638 814 644 819 q 595 792 628 803 q 549 782 563 782 q 433 896 532 896 q 349 871 386 896 q 288 817 311 846 q 264 783 264 788 l 217 807 z "},"ā":{"ha":717,"x_min":42,"x_max":651,"o":"m 215 951 l 650 951 l 638 846 l 201 846 l 215 951 m 414 146 q 317 32 371 78 q 206 -14 263 -14 q 42 208 42 -14 q 79 419 42 300 q 186 626 117 539 q 350 713 256 713 q 441 699 396 713 q 518 667 486 685 l 563 718 l 649 718 l 553 111 l 651 111 l 651 36 q 625 23 646 33 q 567 3 604 13 q 488 -7 531 -7 q 392 63 392 -7 q 418 143 392 99 l 414 146 m 471 533 q 311 611 383 611 q 276 603 281 611 q 221 442 242 539 q 200 238 200 344 q 254 104 200 104 q 338 143 293 104 q 419 233 382 182 l 471 533 z "},"ą":{"ha":710,"x_min":42,"x_max":672,"o":"m 672 -185 q 651 -206 672 -187 q 596 -239 629 -224 q 522 -254 563 -254 q 433 -231 467 -254 q 399 -160 399 -208 q 426 -74 399 -112 q 499 -7 454 -36 l 489 -7 q 392 63 392 -7 q 418 143 392 99 l 414 146 q 317 32 371 78 q 206 -14 263 -14 q 42 208 42 -14 q 79 419 42 300 q 186 626 117 539 q 350 713 256 713 q 441 699 396 713 q 518 667 486 685 l 563 718 l 649 718 l 553 111 l 651 111 l 651 36 l 617 18 q 551 -34 586 3 q 515 -118 515 -71 q 568 -168 515 -168 q 643 -140 601 -168 l 672 -185 m 471 533 q 311 611 383 611 q 276 603 281 611 q 221 442 242 539 q 200 238 200 344 q 254 104 200 104 q 338 143 293 104 q 419 233 382 182 l 471 533 z "},"å":{"ha":710,"x_min":42,"x_max":651,"o":"m 424 776 q 294 886 294 776 q 337 988 294 943 q 450 1032 379 1032 q 543 1004 510 1032 q 576 921 576 976 q 536 819 576 863 q 424 776 496 776 m 433 843 q 471 860 460 843 q 482 918 482 876 q 436 965 482 965 q 399 949 410 965 q 388 890 388 932 q 433 843 388 843 m 206 -14 q 42 208 42 -14 q 79 419 42 300 q 186 626 117 539 q 350 713 256 713 q 441 699 396 713 q 518 667 486 685 l 563 718 l 649 718 l 553 111 l 651 111 l 651 36 q 625 23 646 33 q 567 3 604 13 q 488 -7 531 -7 q 392 63 392 -7 q 418 143 392 99 l 414 146 q 317 32 371 78 q 206 -14 263 -14 m 254 104 q 338 143 293 104 q 419 233 382 182 l 471 533 q 311 611 383 611 q 276 603 281 611 q 221 442 242 539 q 200 238 200 344 q 254 104 200 104 z "},"ǻ":{"ha":711,"x_min":42,"x_max":664,"o":"m 42 0 m 414 146 q 317 32 371 78 q 206 -14 263 -14 q 42 208 42 -14 q 79 419 42 300 q 186 626 117 539 q 350 713 256 713 q 518 667 426 713 l 563 718 l 649 718 l 553 111 l 651 111 l 651 36 q 625 23 646 33 q 567 3 604 13 q 488 -7 531 -7 q 392 63 392 -7 q 418 143 392 99 l 414 146 m 471 533 q 311 611 383 611 q 276 603 281 611 q 221 442 242 539 q 200 238 200 344 q 254 104 200 104 q 338 143 293 104 q 419 233 382 182 l 471 533 m 422 776 q 325 804 356 776 q 294 886 294 832 q 337 988 294 943 q 450 1032 379 1032 q 543 1004 510 1032 q 576 921 576 976 q 535 819 576 863 q 422 776 494 776 m 432 843 q 469 860 458 843 q 481 918 481 876 q 469 955 481 944 q 436 965 458 965 q 399 949 410 965 q 388 890 388 932 q 432 843 388 843 m 385 1167 l 588 1372 q 646 1342 628 1364 q 664 1293 664 1321 q 640 1243 664 1264 q 560 1190 615 1222 l 426 1115 l 385 1167 z "},"ã":{"ha":717,"x_min":42,"x_max":676,"o":"m 533 810 q 432 832 496 810 l 326 869 l 222 819 l 188 857 l 247 928 q 289 969 269 956 q 332 982 308 982 q 417 964 363 982 l 539 922 l 643 972 l 676 933 l 618 864 q 533 810 572 810 m 206 -14 q 42 208 42 -14 q 79 419 42 300 q 186 626 117 539 q 350 713 256 713 q 441 699 396 713 q 518 667 486 685 l 563 718 l 649 718 l 553 111 l 651 111 l 651 36 q 625 23 646 33 q 567 3 604 13 q 488 -7 531 -7 q 392 63 392 -7 q 418 143 392 99 l 414 146 q 317 32 371 78 q 206 -14 263 -14 m 254 104 q 338 143 293 104 q 419 233 382 182 l 471 533 q 311 611 383 611 q 276 603 281 611 q 221 442 242 539 q 200 238 200 344 q 254 104 200 104 z "},"æ":{"ha":919,"x_min":44,"x_max":908,"o":"m 686 89 q 758 103 717 89 q 833 142 799 118 l 863 94 q 748 17 821 47 q 603 -14 675 -14 q 463 19 510 -14 q 401 124 415 51 q 308 22 358 57 q 207 -14 257 -14 q 44 208 44 -14 q 90 447 44 329 q 206 638 135 564 q 351 713 278 713 q 448 695 392 713 q 560 647 504 678 q 722 713 632 713 q 856 673 804 713 q 908 569 908 633 q 822 387 908 456 q 551 288 736 318 l 551 257 q 582 126 551 164 q 686 89 613 89 m 626 603 q 585 502 606 576 q 558 358 565 428 q 715 426 669 385 q 760 542 760 467 q 689 618 760 618 q 650 614 668 618 q 626 603 632 610 m 397 221 q 421 388 400 304 q 476 538 442 472 q 391 592 433 572 q 313 611 349 611 q 278 603 283 611 q 223 437 243 535 q 203 238 203 339 q 256 104 203 104 q 331 138 290 104 q 397 221 371 171 z "},"ǽ":{"ha":919,"x_min":44,"x_max":908,"o":"m 44 0 m 686 89 q 758 103 717 89 q 833 142 799 118 l 863 94 q 748 17 821 47 q 603 -14 675 -14 q 463 19 510 -14 q 401 124 415 51 q 308 22 358 57 q 207 -14 257 -14 q 44 208 44 -14 q 90 447 44 329 q 206 638 135 564 q 351 713 278 713 q 448 695 392 713 q 560 647 504 678 q 722 713 632 713 q 856 673 804 713 q 908 569 908 633 q 822 387 908 456 q 551 288 736 318 l 551 257 q 582 126 551 164 q 686 89 613 89 m 626 603 q 585 502 606 576 q 558 358 565 428 q 715 426 669 385 q 760 542 760 467 q 689 618 760 618 q 650 614 668 618 q 626 603 632 610 m 397 221 q 421 388 400 304 q 476 538 442 472 q 391 592 433 572 q 313 611 349 611 q 278 603 283 611 q 223 437 243 535 q 203 238 203 339 q 256 104 203 104 q 331 138 290 104 q 397 221 371 171 m 503 821 l 706 1026 q 764 997 746 1018 q 782 947 782 975 q 758 897 782 918 q 678 844 733 876 l 544 769 l 503 821 z "},"b":{"ha":675,"x_min":42,"x_max":638,"o":"m 74 879 l 74 951 l 322 978 l 322 857 l 285 625 q 273 600 282 613 q 263 585 264 588 l 265 581 q 360 674 307 635 q 474 713 414 713 q 594 660 551 713 q 638 497 638 608 q 604 285 638 406 q 500 75 571 164 q 324 -14 429 -14 q 258 -10 289 -14 q 209 -1 228 -6 q 186 4 190 3 l 42 51 l 179 856 l 74 879 m 207 140 q 277 101 240 115 q 371 86 314 86 q 411 93 407 86 q 463 247 442 150 q 485 451 485 344 q 476 544 485 513 q 453 587 468 576 q 411 597 438 597 q 339 574 378 597 q 265 518 300 550 l 207 140 z "},"c":{"ha":553,"x_min":38,"x_max":550,"o":"m 499 96 q 467 63 499 92 q 375 10 435 35 q 232 -14 315 -14 q 83 40 129 -14 q 38 210 38 93 q 74 446 38 331 q 184 637 110 561 q 368 713 258 713 q 499 684 447 713 q 550 593 550 656 q 536 527 550 557 q 504 476 522 497 q 486 458 486 456 l 432 458 l 421 597 q 392 605 421 599 q 331 611 364 611 q 287 608 308 611 q 258 596 265 604 q 217 469 238 558 q 196 275 196 379 q 210 160 196 200 q 253 106 225 121 q 328 92 281 92 q 388 103 357 92 q 441 126 419 114 q 468 143 463 139 l 499 96 z "},"ć":{"ha":553,"x_min":38,"x_max":550,"o":"m 243 821 l 446 1026 q 504 997 486 1018 q 522 947 522 975 q 492 894 522 918 q 418 844 463 869 l 285 769 l 243 821 m 232 -14 q 83 40 129 -14 q 38 210 38 93 q 74 446 38 331 q 184 637 110 561 q 368 713 258 713 q 499 684 447 713 q 550 593 550 656 q 536 527 550 557 q 504 476 522 497 q 486 458 486 456 l 432 458 l 421 597 q 392 605 421 599 q 331 611 364 611 q 287 608 308 611 q 258 596 265 604 q 217 469 238 558 q 196 275 196 379 q 210 160 196 200 q 253 106 225 121 q 328 92 281 92 q 388 103 357 92 q 441 126 419 114 q 468 143 463 139 l 499 96 q 467 63 499 92 q 375 10 435 35 q 232 -14 315 -14 z "},"č":{"ha":553,"x_min":38,"x_max":579,"o":"m 236 1022 l 374 918 l 539 1017 l 579 972 l 449 846 q 388 789 407 806 q 356 772 368 772 q 332 782 343 772 q 310 806 321 792 q 293 828 299 821 l 183 974 l 236 1022 m 499 96 q 467 63 499 92 q 375 10 435 35 q 232 -14 315 -14 q 83 40 129 -14 q 38 210 38 93 q 74 446 38 331 q 184 637 110 561 q 368 713 258 713 q 499 684 447 713 q 550 593 550 656 q 536 527 550 557 q 504 476 522 497 q 486 458 486 456 l 432 458 l 421 597 q 392 605 421 599 q 331 611 364 611 q 287 608 308 611 q 258 596 265 604 q 217 469 238 558 q 196 275 196 379 q 210 160 196 200 q 253 106 225 121 q 328 92 281 92 q 388 103 357 92 q 441 126 419 114 q 468 143 463 139 l 499 96 z "},"ç":{"ha":553,"x_min":38,"x_max":550,"o":"m 125 -171 q 168 -187 149 -182 q 222 -193 188 -193 q 260 -169 260 -193 q 253 -152 260 -160 q 228 -136 246 -144 l 160 -103 l 160 -69 l 197 -12 q 76 50 114 -4 q 38 210 38 104 q 74 446 38 331 q 184 637 110 561 q 368 713 258 713 q 499 684 447 713 q 550 593 550 656 q 536 527 550 557 q 504 476 522 497 q 486 458 486 456 l 432 458 l 421 597 q 392 605 421 599 q 331 611 364 611 q 287 608 308 611 q 258 596 265 604 q 217 469 238 558 q 196 275 196 379 q 210 160 196 200 q 253 106 225 121 q 328 92 281 92 q 388 103 357 92 q 441 126 419 114 q 468 143 463 139 l 499 96 q 471 67 499 92 q 392 17 443 42 q 271 -12 342 -7 l 271 -39 l 318 -65 q 365 -102 349 -83 q 381 -149 381 -121 q 339 -238 381 -210 q 238 -267 297 -267 q 92 -228 150 -267 l 125 -171 z "},"ĉ":{"ha":553,"x_min":38,"x_max":582,"o":"m 38 0 m 499 96 q 467 63 499 92 q 375 10 435 35 q 232 -14 315 -14 q 83 40 129 -14 q 38 210 38 93 q 74 446 38 331 q 184 637 110 561 q 368 713 258 713 q 499 684 447 713 q 550 593 550 656 q 536 527 550 557 q 504 476 522 497 q 486 458 486 456 l 432 458 l 421 597 q 392 605 421 599 q 331 611 364 611 q 287 608 308 611 q 258 596 265 604 q 217 469 238 558 q 196 275 196 379 q 210 160 196 200 q 253 106 225 121 q 328 92 281 92 q 388 103 357 92 q 441 126 419 114 q 468 143 463 139 l 499 96 m 393 874 l 228 778 l 185 822 l 318 951 q 378 1007 358 990 q 411 1024 399 1024 q 438 1011 425 1024 q 474 968 450 999 l 582 822 l 532 772 l 393 874 z "},"ċ":{"ha":553,"x_min":38,"x_max":550,"o":"m 38 0 m 499 96 q 467 63 499 92 q 375 10 435 35 q 232 -14 315 -14 q 83 40 129 -14 q 38 210 38 93 q 74 446 38 331 q 184 637 110 561 q 368 713 258 713 q 499 684 447 713 q 550 593 550 656 q 536 527 550 557 q 504 476 522 497 q 486 458 486 456 l 432 458 l 421 597 q 392 605 421 599 q 331 611 364 611 q 287 608 308 611 q 258 596 265 604 q 217 469 238 558 q 196 275 196 379 q 210 160 196 200 q 253 106 225 121 q 328 92 281 92 q 388 103 357 92 q 441 126 419 114 q 468 143 463 139 l 499 96 m 389 799 q 326 824 350 799 q 301 886 301 849 q 328 965 301 931 q 404 999 356 999 q 467 974 443 999 q 492 907 492 949 q 465 831 492 864 q 389 799 438 799 z "},"d":{"ha":710,"x_min":42,"x_max":675,"o":"m 422 146 q 329 30 383 74 q 207 -14 275 -14 q 85 46 129 -14 q 42 208 42 106 q 81 424 42 306 q 193 628 119 543 q 364 713 267 713 q 506 679 433 713 l 539 858 l 425 882 l 425 951 l 675 978 l 675 858 l 557 111 l 656 111 l 656 38 q 628 23 650 33 q 572 3 607 13 q 497 -7 536 -7 q 423 7 444 -7 q 401 60 401 21 q 408 97 401 78 q 428 143 414 115 l 422 146 m 479 532 q 310 611 394 611 q 291 608 301 611 q 278 601 281 604 q 224 458 249 556 q 199 238 199 361 q 211 138 199 172 q 253 104 224 104 q 425 232 322 104 l 479 532 z "},"ð":{"ha":657,"x_min":42,"x_max":614,"o":"m 268 -14 q 99 47 157 -14 q 42 228 42 108 q 86 470 42 358 q 206 647 131 582 q 371 713 282 713 q 417 708 379 713 q 376 776 396 750 q 329 819 356 801 l 176 719 l 131 788 l 244 861 q 67 885 169 885 l 67 958 q 153 964 96 964 q 353 932 267 964 l 474 1010 l 519 942 l 438 889 q 614 485 614 771 q 571 223 614 336 q 449 48 528 110 q 268 -14 371 -14 m 315 79 q 392 96 379 79 q 436 238 418 140 q 454 438 454 335 q 446 578 454 511 q 324 611 399 611 q 290 608 304 611 q 271 600 275 604 q 224 461 247 575 q 201 258 201 347 q 226 119 201 160 q 315 79 251 79 z "},"ď":{"ha":714,"x_min":42,"x_max":871,"o":"m 708 793 q 722 813 711 797 q 741 854 732 828 q 750 911 750 881 q 733 975 750 947 q 800 1017 757 1017 q 853 997 836 1017 q 871 947 871 978 q 843 854 871 896 q 784 788 815 813 q 740 760 753 764 l 708 793 m 422 146 q 329 30 383 74 q 207 -14 275 -14 q 85 46 129 -14 q 42 208 42 106 q 81 424 42 306 q 193 628 119 543 q 364 713 267 713 q 506 679 433 713 l 539 858 l 425 882 l 425 951 l 675 978 l 675 858 l 557 111 l 656 111 l 656 38 q 628 23 650 33 q 572 3 607 13 q 497 -7 536 -7 q 423 7 444 -7 q 401 60 401 21 q 408 97 401 78 q 428 143 414 115 l 422 146 m 479 532 q 310 611 394 611 q 291 608 301 611 q 278 601 281 604 q 224 458 249 556 q 199 238 199 361 q 211 138 199 172 q 253 104 224 104 q 425 232 322 104 l 479 532 z "},"đ":{"ha":714,"x_min":42,"x_max":729,"o":"m 207 -14 q 85 46 129 -14 q 42 208 42 106 q 81 419 42 304 q 192 615 119 535 q 363 696 265 696 q 504 667 432 696 l 522 764 l 288 764 l 288 857 l 539 857 l 544 885 l 467 914 l 467 956 l 685 978 l 676 879 l 674 857 l 729 857 l 729 764 l 661 764 l 557 111 l 656 111 l 656 38 q 628 23 650 33 q 572 3 607 13 q 497 -7 536 -7 q 423 7 444 -7 q 401 60 401 21 q 408 97 401 78 q 428 143 414 115 l 422 146 q 329 30 383 74 q 207 -14 275 -14 m 253 104 q 341 143 296 104 q 425 232 386 182 l 478 522 q 307 594 396 594 q 288 592 299 594 q 276 585 278 589 q 223 449 247 539 q 199 238 199 360 q 211 138 199 172 q 253 104 224 104 z "},"ḍ":{"ha":710,"x_min":42,"x_max":675,"o":"m 42 0 m 422 146 q 329 30 383 74 q 207 -14 275 -14 q 85 46 129 -14 q 42 208 42 106 q 81 424 42 306 q 193 628 119 543 q 364 713 267 713 q 506 679 433 713 l 539 858 l 425 882 l 425 951 l 675 978 l 675 858 l 557 111 l 656 111 l 656 38 q 628 23 650 33 q 572 3 607 13 q 497 -7 536 -7 q 423 7 444 -7 q 401 60 401 21 q 408 97 401 78 q 428 143 414 115 l 422 146 m 479 532 q 310 611 394 611 q 291 608 301 611 q 278 601 281 604 q 224 458 249 556 q 199 238 199 361 q 211 138 199 172 q 253 104 224 104 q 425 232 322 104 l 479 532 m 276 -256 q 213 -230 238 -256 q 189 -167 189 -204 q 216 -89 189 -122 q 292 -56 243 -56 q 355 -81 331 -56 q 379 -147 379 -106 q 352 -223 379 -190 q 276 -256 325 -256 z "},"ǳ":{"ha":1263,"x_min":42,"x_max":1306,"o":"m 42 0 m 422 146 q 329 30 383 74 q 207 -14 275 -14 q 85 46 129 -14 q 42 208 42 106 q 81 424 42 306 q 193 628 119 543 q 364 713 267 713 q 506 679 433 713 l 539 858 l 425 882 l 425 951 l 675 978 l 675 858 l 557 111 l 656 111 l 656 38 q 628 23 650 33 q 572 3 607 13 q 497 -7 536 -7 q 423 7 444 -7 q 401 60 401 21 q 408 97 401 78 q 428 143 414 115 l 422 146 m 479 532 q 310 611 394 611 q 291 608 301 611 q 278 601 281 604 q 224 458 249 556 q 199 238 199 361 q 211 138 199 172 q 253 104 224 104 q 425 232 322 104 l 479 532 m 1061 533 l 889 622 l 854 499 l 790 499 q 778 517 788 503 q 761 556 769 532 q 753 610 753 581 q 787 686 753 660 q 874 713 821 713 q 1026 689 929 713 l 1174 654 l 1251 710 l 1306 667 l 915 171 l 915 156 l 1100 75 l 1135 199 l 1196 199 q 1207 178 1199 194 q 1223 137 1215 163 q 1231 82 1231 111 q 1196 10 1231 33 q 1115 -14 1161 -14 q 956 4 1049 -14 l 797 35 l 731 -10 l 672 39 l 1061 518 l 1061 533 z "},"ǆ":{"ha":1263,"x_min":42,"x_max":1306,"o":"m 42 0 m 422 146 q 329 30 383 74 q 207 -14 275 -14 q 85 46 129 -14 q 42 208 42 106 q 81 424 42 306 q 193 628 119 543 q 364 713 267 713 q 506 679 433 713 l 539 858 l 425 882 l 425 951 l 675 978 l 675 858 l 557 111 l 656 111 l 656 38 q 628 23 650 33 q 572 3 607 13 q 497 -7 536 -7 q 423 7 444 -7 q 401 60 401 21 q 408 97 401 78 q 428 143 414 115 l 422 146 m 479 532 q 310 611 394 611 q 291 608 301 611 q 278 601 281 604 q 224 458 249 556 q 199 238 199 361 q 211 138 199 172 q 253 104 224 104 q 425 232 322 104 l 479 532 m 1061 533 l 889 622 l 854 499 l 790 499 q 778 517 788 503 q 761 556 769 532 q 753 610 753 581 q 787 686 753 660 q 874 713 821 713 q 1026 689 929 713 l 1174 654 l 1251 710 l 1306 667 l 915 171 l 915 156 l 1100 75 l 1135 199 l 1196 199 q 1207 178 1199 194 q 1223 137 1215 163 q 1231 82 1231 111 q 1196 10 1231 33 q 1115 -14 1161 -14 q 956 4 1049 -14 l 797 35 l 731 -10 l 672 39 l 1061 518 l 1061 533 m 931 1024 l 1068 919 l 1233 1018 l 1274 974 l 1142 847 q 1083 791 1103 808 q 1050 774 1063 774 q 1026 783 1038 774 q 1004 808 1015 793 q 988 829 993 822 l 878 975 l 931 1024 z "},"e":{"ha":568,"x_min":46,"x_max":557,"o":"m 256 -14 q 96 34 146 -14 q 46 199 46 82 q 83 432 46 313 q 193 632 119 551 q 371 713 267 713 q 509 670 461 713 q 557 569 557 628 q 511 417 557 474 q 393 334 465 361 q 201 283 321 307 l 200 244 q 232 122 200 156 q 338 89 264 89 q 410 104 369 89 q 483 143 451 119 l 513 96 q 401 17 474 49 q 256 -14 328 -14 m 210 353 q 342 404 299 378 q 397 461 385 431 q 410 542 410 492 q 339 618 410 618 q 299 614 317 618 q 276 603 281 610 q 237 504 258 578 q 210 353 215 431 z "},"é":{"ha":568,"x_min":46,"x_max":557,"o":"m 256 821 l 457 1026 q 515 997 497 1018 q 533 947 533 975 q 503 894 533 918 q 429 844 474 869 l 297 769 l 256 821 m 256 -14 q 96 34 146 -14 q 46 199 46 82 q 83 432 46 313 q 193 632 119 551 q 371 713 267 713 q 509 670 461 713 q 557 569 557 628 q 511 417 557 474 q 393 334 465 361 q 201 283 321 307 l 200 244 q 232 122 200 156 q 338 89 264 89 q 410 104 369 89 q 483 143 451 119 l 513 96 q 401 17 474 49 q 256 -14 328 -14 m 210 353 q 342 404 299 378 q 397 461 385 431 q 410 542 410 492 q 339 618 410 618 q 299 614 317 618 q 276 603 281 610 q 237 504 258 578 q 210 353 215 431 z "},"ĕ":{"ha":568,"x_min":46,"x_max":604,"o":"m 46 0 m 256 -14 q 96 34 146 -14 q 46 199 46 82 q 83 432 46 313 q 193 632 119 551 q 371 713 267 713 q 509 670 461 713 q 557 569 557 628 q 511 417 557 474 q 393 334 465 361 q 201 283 321 307 l 200 244 q 232 122 200 156 q 338 89 264 89 q 410 104 369 89 q 483 143 451 119 l 513 96 q 401 17 474 49 q 256 -14 328 -14 m 210 353 q 342 404 299 378 q 397 461 385 431 q 410 542 410 492 q 339 618 410 618 q 299 614 317 618 q 276 603 281 610 q 237 504 258 578 q 210 353 215 431 m 350 781 q 253 806 294 781 q 191 867 213 831 q 169 939 169 904 q 183 974 169 960 q 226 994 194 983 q 272 1006 258 1006 q 388 890 289 890 q 472 915 435 890 q 533 969 510 940 q 557 1003 557 999 l 604 979 q 578 919 604 968 q 497 825 553 869 q 350 781 440 781 z "},"ě":{"ha":568,"x_min":42,"x_max":579,"o":"m 356 772 q 332 782 343 772 q 310 806 321 792 q 293 828 299 821 l 183 974 l 236 1022 l 374 918 l 539 1017 l 579 972 l 449 846 q 388 789 407 806 q 356 772 368 772 m 251 -14 q 92 34 142 -14 q 42 199 42 82 q 78 432 42 313 q 190 632 115 551 q 368 713 264 713 q 506 670 457 713 q 554 569 554 628 q 508 417 554 474 q 390 334 463 361 q 197 283 317 307 l 197 244 q 228 122 197 156 q 335 89 260 89 q 397 101 365 89 q 451 126 429 113 q 479 143 474 139 l 508 96 q 474 63 508 92 q 383 10 440 35 q 251 -14 325 -14 m 206 353 q 338 404 294 378 q 393 461 381 431 q 406 542 406 492 q 335 618 406 618 q 296 614 314 618 q 272 603 278 610 q 233 505 254 579 q 206 353 213 431 z "},"ê":{"ha":568,"x_min":46,"x_max":567,"o":"m 379 874 l 213 778 l 171 822 l 304 951 q 363 1006 342 989 q 397 1024 383 1024 q 424 1010 411 1024 q 458 968 438 997 l 567 822 l 518 772 l 379 874 m 256 -14 q 96 34 146 -14 q 46 199 46 82 q 83 432 46 313 q 193 632 119 551 q 371 713 267 713 q 509 670 461 713 q 557 569 557 628 q 511 417 557 474 q 393 334 465 361 q 201 283 321 307 l 200 244 q 232 122 200 156 q 338 89 264 89 q 410 104 369 89 q 483 143 451 119 l 513 96 q 401 17 474 49 q 256 -14 328 -14 m 210 353 q 342 404 299 378 q 397 461 385 431 q 410 542 410 492 q 339 618 410 618 q 299 614 317 618 q 276 603 281 610 q 237 504 258 578 q 210 353 215 431 z "},"ế":{"ha":568,"x_min":46,"x_max":710,"o":"m 46 0 m 256 -14 q 96 34 146 -14 q 46 199 46 82 q 83 432 46 313 q 193 632 119 551 q 371 713 267 713 q 509 670 461 713 q 557 569 557 628 q 511 417 557 474 q 393 334 465 361 q 201 283 321 307 l 200 244 q 232 122 200 156 q 338 89 264 89 q 410 104 369 89 q 483 143 451 119 l 513 96 q 401 17 474 49 q 256 -14 328 -14 m 210 353 q 342 404 299 378 q 397 461 385 431 q 410 542 410 492 q 339 618 410 618 q 299 614 317 618 q 276 603 281 610 q 237 504 258 578 q 210 353 215 431 m 332 874 l 167 778 l 124 822 l 257 951 q 317 1007 297 990 q 350 1024 338 1024 q 376 1011 364 1024 q 413 968 389 999 l 521 822 l 471 772 l 332 874 m 431 1013 l 633 1218 q 692 1188 674 1210 q 710 1139 710 1167 q 685 1089 710 1110 q 606 1036 661 1068 l 472 961 l 431 1013 z "},"ệ":{"ha":568,"x_min":46,"x_max":572,"o":"m 46 0 m 256 -14 q 96 34 146 -14 q 46 199 46 82 q 83 432 46 313 q 193 632 119 551 q 371 713 267 713 q 509 670 461 713 q 557 569 557 628 q 511 417 557 474 q 393 334 465 361 q 201 283 321 307 l 200 244 q 232 122 200 156 q 338 89 264 89 q 410 104 369 89 q 483 143 451 119 l 513 96 q 401 17 474 49 q 256 -14 328 -14 m 210 353 q 342 404 299 378 q 397 461 385 431 q 410 542 410 492 q 339 618 410 618 q 299 614 317 618 q 276 603 281 610 q 237 504 258 578 q 210 353 215 431 m 229 -256 q 166 -230 190 -256 q 142 -167 142 -204 q 169 -89 142 -122 q 244 -56 196 -56 q 308 -81 283 -56 q 332 -147 332 -106 q 305 -223 332 -190 q 229 -256 278 -256 m 383 874 l 218 778 l 175 822 l 308 951 q 369 1007 349 990 q 401 1024 389 1024 q 428 1011 415 1024 q 464 968 440 999 l 572 822 l 522 772 l 383 874 z "},"ề":{"ha":568,"x_min":46,"x_max":636,"o":"m 46 0 m 256 -14 q 96 34 146 -14 q 46 199 46 82 q 83 432 46 313 q 193 632 119 551 q 371 713 267 713 q 509 670 461 713 q 557 569 557 628 q 511 417 557 474 q 393 334 465 361 q 201 283 321 307 l 200 244 q 232 122 200 156 q 338 89 264 89 q 410 104 369 89 q 483 143 451 119 l 513 96 q 401 17 474 49 q 256 -14 328 -14 m 210 353 q 342 404 299 378 q 397 461 385 431 q 410 542 410 492 q 339 618 410 618 q 299 614 317 618 q 276 603 281 610 q 237 504 258 578 q 210 353 215 431 m 371 874 l 206 778 l 163 822 l 296 951 q 356 1007 336 990 q 389 1024 376 1024 q 415 1011 403 1024 q 451 968 428 999 l 560 822 l 510 772 l 371 874 m 461 1036 q 383 1088 407 1067 q 358 1139 358 1110 q 376 1188 358 1167 q 433 1218 393 1210 l 636 1013 l 594 961 l 461 1036 z "},"ể":{"ha":568,"x_min":46,"x_max":719,"o":"m 46 0 m 256 -14 q 96 34 146 -14 q 46 199 46 82 q 83 432 46 313 q 193 632 119 551 q 371 713 267 713 q 509 670 461 713 q 557 569 557 628 q 511 417 557 474 q 393 334 465 361 q 201 283 321 307 l 200 244 q 232 122 200 156 q 338 89 264 89 q 410 104 369 89 q 483 143 451 119 l 513 96 q 401 17 474 49 q 256 -14 328 -14 m 210 353 q 342 404 299 378 q 397 461 385 431 q 410 542 410 492 q 339 618 410 618 q 299 614 317 618 q 276 603 281 610 q 237 504 258 578 q 210 353 215 431 m 344 874 l 179 778 l 136 822 l 269 951 q 330 1007 310 990 q 363 1024 350 1024 q 389 1011 376 1024 q 425 968 401 999 l 533 822 l 483 772 l 344 874 m 493 936 q 485 975 485 967 q 499 1006 485 993 q 549 1040 513 1019 q 583 1063 572 1053 q 594 1092 594 1074 q 540 1122 594 1122 q 461 1111 503 1122 q 446 1154 446 1131 q 470 1195 446 1182 q 553 1208 494 1208 q 676 1183 632 1208 q 719 1110 719 1158 q 693 1044 719 1071 q 619 994 667 1017 q 587 975 593 982 q 581 946 581 968 l 493 936 z "},"ễ":{"ha":568,"x_min":46,"x_max":649,"o":"m 506 1076 q 404 1096 465 1076 l 297 1131 l 193 1085 l 160 1119 l 219 1185 q 260 1222 240 1210 q 304 1233 279 1233 q 389 1217 339 1233 l 511 1179 l 615 1225 l 649 1189 l 589 1126 q 506 1076 546 1076 m 367 874 l 201 778 l 158 822 l 292 951 q 352 1007 332 990 q 385 1024 372 1024 q 411 1011 399 1024 q 447 968 424 999 l 556 822 l 506 772 l 367 874 m 256 -14 q 96 34 146 -14 q 46 199 46 82 q 83 432 46 313 q 193 632 119 551 q 371 713 267 713 q 509 670 461 713 q 557 569 557 628 q 511 417 557 474 q 393 334 465 361 q 201 283 321 307 l 200 244 q 232 122 200 156 q 338 89 264 89 q 410 104 369 89 q 483 143 451 119 l 513 96 q 401 17 474 49 q 256 -14 328 -14 m 210 353 q 342 404 299 378 q 397 461 385 431 q 410 542 410 492 q 339 618 410 618 q 299 614 317 618 q 276 603 281 610 q 237 504 258 578 q 210 353 215 431 z "},"ȅ":{"ha":568,"x_min":46,"x_max":557,"o":"m 46 0 m 256 -14 q 96 34 146 -14 q 46 199 46 82 q 83 432 46 313 q 193 632 119 551 q 371 713 267 713 q 509 670 461 713 q 557 569 557 628 q 511 417 557 474 q 393 334 465 361 q 201 283 321 307 l 200 244 q 232 122 200 156 q 338 89 264 89 q 410 104 369 89 q 483 143 451 119 l 513 96 q 401 17 474 49 q 256 -14 328 -14 m 210 353 q 342 404 299 378 q 397 461 385 431 q 410 542 410 492 q 339 618 410 618 q 299 614 317 618 q 276 603 281 610 q 237 504 258 578 q 210 353 215 431 m 172 861 q 140 915 149 894 q 131 951 131 935 q 168 1012 131 988 q 253 1033 206 1036 l 308 800 l 244 765 l 172 861 m 406 861 q 374 915 383 894 q 365 951 365 935 q 399 1011 365 988 q 488 1033 433 1035 l 542 800 l 478 765 l 406 861 z "},"ë":{"ha":568,"x_min":46,"x_max":606,"o":"m 231 808 q 173 831 194 808 q 151 889 151 854 q 177 965 151 932 q 250 999 203 999 q 309 976 286 999 q 332 914 332 953 q 305 840 332 872 q 231 808 278 808 m 506 808 q 448 832 471 808 q 425 889 425 856 q 451 965 425 932 q 525 999 478 999 q 583 976 561 999 q 606 914 606 953 q 579 840 606 872 q 506 808 553 808 m 256 -14 q 96 34 146 -14 q 46 199 46 82 q 83 432 46 313 q 193 632 119 551 q 371 713 267 713 q 509 670 461 713 q 557 569 557 628 q 511 417 557 474 q 393 334 465 361 q 201 283 321 307 l 200 244 q 232 122 200 156 q 338 89 264 89 q 410 104 369 89 q 483 143 451 119 l 513 96 q 401 17 474 49 q 256 -14 328 -14 m 210 353 q 342 404 299 378 q 397 461 385 431 q 410 542 410 492 q 339 618 410 618 q 299 614 317 618 q 276 603 281 610 q 237 504 258 578 q 210 353 215 431 z "},"ė":{"ha":568,"x_min":42,"x_max":554,"o":"m 379 799 q 315 824 339 799 q 292 886 292 849 q 318 965 292 931 q 393 999 344 999 q 457 974 432 999 q 482 907 482 949 q 455 831 482 864 q 379 799 428 799 m 251 -14 q 92 34 142 -14 q 42 199 42 82 q 78 432 42 313 q 190 632 115 551 q 368 713 264 713 q 506 670 457 713 q 554 569 554 628 q 508 417 554 474 q 390 334 463 361 q 197 283 317 307 l 197 244 q 228 122 197 156 q 335 89 260 89 q 397 101 365 89 q 451 126 429 113 q 479 143 474 139 l 508 96 q 474 63 508 92 q 383 10 440 35 q 251 -14 325 -14 m 206 353 q 338 404 294 378 q 393 461 381 431 q 406 542 406 492 q 335 618 406 618 q 296 614 314 618 q 272 603 278 610 q 233 505 254 579 q 206 353 213 431 z "},"ẹ":{"ha":568,"x_min":46,"x_max":557,"o":"m 46 0 m 256 -14 q 96 34 146 -14 q 46 199 46 82 q 83 432 46 313 q 193 632 119 551 q 371 713 267 713 q 509 670 461 713 q 557 569 557 628 q 511 417 557 474 q 393 334 465 361 q 201 283 321 307 l 200 244 q 232 122 200 156 q 338 89 264 89 q 410 104 369 89 q 483 143 451 119 l 513 96 q 401 17 474 49 q 256 -14 328 -14 m 210 353 q 342 404 299 378 q 397 461 385 431 q 410 542 410 492 q 339 618 410 618 q 299 614 317 618 q 276 603 281 610 q 237 504 258 578 q 210 353 215 431 m 229 -256 q 166 -230 190 -256 q 142 -167 142 -204 q 169 -89 142 -122 q 244 -56 196 -56 q 308 -81 283 -56 q 332 -147 332 -106 q 305 -223 332 -190 q 229 -256 278 -256 z "},"è":{"ha":568,"x_min":46,"x_max":557,"o":"m 329 844 q 255 894 285 869 q 225 947 225 918 q 243 997 225 975 q 301 1026 261 1018 l 503 821 l 461 769 l 329 844 m 256 -14 q 96 34 146 -14 q 46 199 46 82 q 83 432 46 313 q 193 632 119 551 q 371 713 267 713 q 509 670 461 713 q 557 569 557 628 q 511 417 557 474 q 393 334 465 361 q 201 283 321 307 l 200 244 q 232 122 200 156 q 338 89 264 89 q 410 104 369 89 q 483 143 451 119 l 513 96 q 401 17 474 49 q 256 -14 328 -14 m 210 353 q 342 404 299 378 q 397 461 385 431 q 410 542 410 492 q 339 618 410 618 q 299 614 317 618 q 276 603 281 610 q 237 504 258 578 q 210 353 215 431 z "},"ẻ":{"ha":568,"x_min":46,"x_max":557,"o":"m 46 0 m 256 -14 q 96 34 146 -14 q 46 199 46 82 q 83 432 46 313 q 193 632 119 551 q 371 713 267 713 q 509 670 461 713 q 557 569 557 628 q 511 417 557 474 q 393 334 465 361 q 201 283 321 307 l 200 244 q 232 122 200 156 q 338 89 264 89 q 410 104 369 89 q 483 143 451 119 l 513 96 q 401 17 474 49 q 256 -14 328 -14 m 210 353 q 342 404 299 378 q 397 461 385 431 q 410 542 410 492 q 339 618 410 618 q 299 614 317 618 q 276 603 281 610 q 237 504 258 578 q 210 353 215 431 m 322 744 q 314 783 314 775 q 328 815 314 801 q 378 849 342 828 q 413 872 401 861 q 424 900 424 882 q 369 931 424 931 q 290 919 332 931 q 275 963 275 939 q 299 1003 275 990 q 382 1017 324 1017 q 505 992 461 1017 q 549 918 549 967 q 522 852 549 879 q 449 803 496 825 q 416 783 422 790 q 410 754 410 776 l 322 744 z "},"ȇ":{"ha":568,"x_min":46,"x_max":604,"o":"m 46 0 m 256 -14 q 96 34 146 -14 q 46 199 46 82 q 83 432 46 313 q 193 632 119 551 q 371 713 267 713 q 509 670 461 713 q 557 569 557 628 q 511 417 557 474 q 393 334 465 361 q 201 283 321 307 l 200 244 q 232 122 200 156 q 338 89 264 89 q 410 104 369 89 q 483 143 451 119 l 513 96 q 401 17 474 49 q 256 -14 328 -14 m 210 353 q 342 404 299 378 q 397 461 385 431 q 410 542 410 492 q 339 618 410 618 q 299 614 317 618 q 276 603 281 610 q 237 504 258 578 q 210 353 215 431 m 169 807 q 195 867 169 818 q 277 961 221 917 q 422 1006 333 1006 q 519 981 478 1006 q 583 919 561 956 q 604 847 604 882 q 601 826 604 833 q 590 814 597 819 q 548 792 581 803 q 501 782 515 782 q 386 896 485 896 q 301 871 339 896 q 240 817 264 846 q 217 783 217 788 l 169 807 z "},"ē":{"ha":568,"x_min":42,"x_max":601,"o":"m 154 846 l 167 951 l 601 951 l 589 846 l 154 846 m 251 -14 q 92 34 142 -14 q 42 199 42 82 q 78 432 42 313 q 190 632 115 551 q 368 713 264 713 q 506 670 457 713 q 554 569 554 628 q 508 417 554 474 q 390 334 463 361 q 197 283 317 307 l 197 244 q 228 122 197 156 q 335 89 260 89 q 397 101 365 89 q 451 126 429 113 q 479 143 474 139 l 508 96 q 474 63 508 92 q 383 10 440 35 q 251 -14 325 -14 m 206 353 q 338 404 294 378 q 393 461 381 431 q 406 542 406 492 q 335 618 406 618 q 296 614 314 618 q 272 603 278 610 q 233 505 254 579 q 206 353 213 431 z "},"ę":{"ha":568,"x_min":42,"x_max":554,"o":"m 307 -254 q 217 -231 250 -254 q 183 -160 183 -208 q 208 -78 183 -115 q 274 -12 232 -40 q 251 -14 267 -14 q 92 34 142 -14 q 42 199 42 82 q 78 432 42 313 q 190 632 115 551 q 368 713 264 713 q 506 670 457 713 q 554 569 554 628 q 508 417 554 474 q 390 334 463 361 q 197 283 317 307 l 197 244 q 228 122 197 156 q 335 89 260 89 q 397 101 365 89 q 451 126 429 113 q 479 143 474 139 l 508 96 q 492 79 506 92 q 456 49 479 67 q 401 18 432 32 q 335 -35 369 0 q 301 -118 301 -71 q 353 -168 301 -168 q 392 -159 371 -168 q 426 -140 413 -150 l 457 -185 q 435 -205 457 -186 q 379 -239 413 -224 q 307 -254 346 -254 m 206 353 q 338 404 294 378 q 393 461 381 431 q 406 542 406 492 q 335 618 406 618 q 296 614 314 618 q 272 603 278 610 q 233 505 254 579 q 206 353 213 431 z "},"ẽ":{"ha":568,"x_min":46,"x_max":631,"o":"m 46 0 m 256 -14 q 96 34 146 -14 q 46 199 46 82 q 83 432 46 313 q 193 632 119 551 q 371 713 267 713 q 509 670 461 713 q 557 569 557 628 q 511 417 557 474 q 393 334 465 361 q 201 283 321 307 l 200 244 q 232 122 200 156 q 338 89 264 89 q 410 104 369 89 q 483 143 451 119 l 513 96 q 401 17 474 49 q 256 -14 328 -14 m 210 353 q 342 404 299 378 q 397 461 385 431 q 410 542 410 492 q 339 618 410 618 q 299 614 317 618 q 276 603 281 610 q 237 504 258 578 q 210 353 215 431 m 488 810 q 386 832 447 810 l 279 869 l 175 819 l 142 857 l 201 928 q 242 969 222 956 q 286 982 261 982 q 371 964 317 982 l 493 922 l 597 972 l 631 933 l 571 864 q 488 810 528 810 z "},"ə":{"ha":568,"x_min":11,"x_max":522,"o":"m 313 700 q 472 652 422 700 q 522 488 522 604 q 485 254 522 374 q 375 54 449 135 q 197 -26 301 -26 q 59 16 107 -26 q 11 117 11 58 q 57 269 11 213 q 175 352 103 325 q 367 403 247 379 l 368 442 q 336 564 368 531 q 231 597 304 597 q 158 582 199 597 q 85 543 117 567 l 56 590 q 167 669 94 638 q 313 700 240 700 m 358 333 q 226 282 269 308 q 171 225 183 256 q 158 144 158 194 q 229 68 158 68 q 269 72 251 68 q 292 83 288 76 q 331 182 310 108 q 358 333 353 256 z "},"f":{"ha":400,"x_min":28,"x_max":585,"o":"m 165 613 l 63 613 l 63 663 l 85 704 l 188 704 q 305 908 221 828 q 511 988 389 988 q 567 972 549 988 q 585 921 585 957 q 571 873 585 890 q 557 854 557 856 l 463 854 q 356 836 376 854 q 339 804 349 829 q 322 733 329 779 l 318 704 l 475 704 l 475 658 l 453 613 l 306 613 l 188 -236 l 28 -251 l 165 613 z "},"g":{"ha":683,"x_min":-36,"x_max":656,"o":"m 181 -236 q 19 -201 75 -236 q -36 -101 -36 -167 q -11 -26 -36 -71 q 33 25 14 18 l 100 25 l 100 -100 q 163 -130 124 -118 q 239 -142 203 -142 q 324 -125 296 -142 q 366 -73 353 -108 q 393 39 379 -37 q 415 138 406 101 q 439 203 425 174 l 435 206 q 333 89 393 133 q 217 44 272 44 q 97 100 138 44 q 57 264 57 156 q 101 477 57 372 q 215 647 144 582 q 357 713 285 713 q 442 700 397 713 q 529 665 488 688 l 574 718 l 656 718 l 543 39 q 426 -163 522 -90 q 181 -236 329 -236 m 268 160 q 347 194 300 160 q 439 285 393 228 l 483 533 q 397 590 442 569 q 315 610 353 610 q 283 603 289 610 q 235 462 256 554 q 214 288 214 369 q 228 192 214 225 q 268 160 242 160 z "},"ǵ":{"ha":683,"x_min":-36,"x_max":656,"o":"m 0 0 m 181 -236 q 19 -201 75 -236 q -36 -101 -36 -167 q -11 -26 -36 -71 q 33 25 14 18 l 100 25 l 100 -100 q 163 -130 124 -118 q 239 -142 203 -142 q 324 -125 296 -142 q 366 -73 353 -108 q 393 39 379 -37 q 415 138 406 101 q 439 203 425 174 l 435 206 q 333 89 393 133 q 217 44 272 44 q 97 100 138 44 q 57 264 57 156 q 101 477 57 372 q 215 647 144 582 q 357 713 285 713 q 442 700 397 713 q 529 665 488 688 l 574 718 l 656 718 l 543 39 q 426 -163 522 -90 q 181 -236 329 -236 m 268 160 q 347 194 300 160 q 439 285 393 228 l 483 533 q 397 590 442 569 q 315 610 353 610 q 283 603 289 610 q 235 462 256 554 q 214 288 214 369 q 228 192 214 225 q 268 160 242 160 m 336 821 l 539 1026 q 597 997 579 1018 q 615 947 615 975 q 591 897 615 918 q 511 844 567 876 l 378 769 l 336 821 z "},"ğ":{"ha":683,"x_min":-36,"x_max":663,"o":"m 410 781 q 313 806 354 781 q 251 867 272 831 q 229 939 229 904 q 243 972 229 963 q 286 994 254 983 q 332 1006 318 1006 q 447 890 349 890 q 532 915 494 890 q 592 969 569 940 q 615 1003 615 999 l 663 979 q 638 919 663 968 q 556 825 613 869 q 410 781 500 781 m 181 -236 q 19 -202 75 -236 q -36 -101 -36 -168 q -21 -40 -36 -68 q 14 7 -6 -12 q 33 25 33 26 l 100 25 l 100 -100 q 122 -113 104 -103 q 171 -133 140 -124 q 239 -142 201 -142 q 322 -126 294 -142 q 364 -74 350 -110 q 393 39 378 -37 q 415 137 406 103 q 439 203 424 171 l 435 206 q 339 93 397 142 q 217 44 281 44 q 99 97 142 44 q 57 264 57 150 q 92 450 57 343 q 194 635 126 557 q 357 713 263 713 q 448 699 403 713 q 529 665 493 685 l 574 718 l 656 718 l 543 39 q 438 -156 525 -75 q 181 -236 351 -236 m 268 160 q 358 201 310 160 q 439 285 406 242 l 483 533 q 407 587 454 564 q 315 610 360 610 q 283 603 289 610 q 235 463 256 554 q 214 288 214 371 q 230 188 214 215 q 268 160 246 160 z "},"ǧ":{"ha":683,"x_min":-36,"x_max":656,"o":"m 0 0 m 181 -236 q 19 -201 75 -236 q -36 -101 -36 -167 q -11 -26 -36 -71 q 33 25 14 18 l 100 25 l 100 -100 q 163 -130 124 -118 q 239 -142 203 -142 q 324 -125 296 -142 q 366 -73 353 -108 q 393 39 379 -37 q 415 138 406 101 q 439 203 425 174 l 435 206 q 333 89 393 133 q 217 44 272 44 q 97 100 138 44 q 57 264 57 156 q 101 477 57 372 q 215 647 144 582 q 357 713 285 713 q 442 700 397 713 q 529 665 488 688 l 574 718 l 656 718 l 543 39 q 426 -163 522 -90 q 181 -236 329 -236 m 268 160 q 347 194 300 160 q 439 285 393 228 l 483 533 q 397 590 442 569 q 315 610 353 610 q 283 603 289 610 q 235 462 256 554 q 214 288 214 369 q 228 192 214 225 q 268 160 242 160 m 275 1022 l 413 918 l 578 1017 l 618 972 l 486 846 q 427 790 447 807 q 394 772 407 772 q 371 782 382 772 q 349 806 360 792 q 332 828 338 821 l 222 974 l 275 1022 z "},"ĝ":{"ha":683,"x_min":-36,"x_max":656,"o":"m 0 0 m 181 -236 q 19 -201 75 -236 q -36 -101 -36 -167 q -11 -26 -36 -71 q 33 25 14 18 l 100 25 l 100 -100 q 163 -130 124 -118 q 239 -142 203 -142 q 324 -125 296 -142 q 366 -73 353 -108 q 393 39 379 -37 q 415 138 406 101 q 439 203 425 174 l 435 206 q 333 89 393 133 q 217 44 272 44 q 97 100 138 44 q 57 264 57 156 q 101 477 57 372 q 215 647 144 582 q 357 713 285 713 q 442 700 397 713 q 529 665 488 688 l 574 718 l 656 718 l 543 39 q 426 -163 522 -90 q 181 -236 329 -236 m 268 160 q 347 194 300 160 q 439 285 393 228 l 483 533 q 397 590 442 569 q 315 610 353 610 q 283 603 289 610 q 235 462 256 554 q 214 288 214 369 q 228 192 214 225 q 268 160 242 160 m 417 874 l 251 778 l 208 822 l 342 951 q 402 1007 382 990 q 435 1024 422 1024 q 461 1011 449 1024 q 497 968 474 999 l 606 822 l 556 772 l 417 874 z "},"ģ":{"ha":683,"x_min":-36,"x_max":656,"o":"m 435 769 q 375 792 396 769 q 354 851 354 815 q 385 938 354 900 q 451 998 417 976 q 500 1024 486 1019 l 529 990 q 497 949 515 976 q 479 882 479 921 q 489 838 479 857 q 507 811 499 819 q 478 782 497 794 q 435 769 460 769 m 181 -236 q 19 -202 75 -236 q -36 -101 -36 -168 q -21 -40 -36 -68 q 14 7 -6 -12 q 33 25 33 26 l 100 25 l 100 -100 q 122 -113 104 -103 q 171 -133 140 -124 q 239 -142 201 -142 q 322 -126 294 -142 q 364 -74 350 -110 q 393 39 378 -37 q 415 137 406 103 q 439 203 424 171 l 435 206 q 339 93 397 142 q 217 44 281 44 q 99 97 142 44 q 57 264 57 150 q 92 450 57 343 q 194 635 126 557 q 357 713 263 713 q 448 699 403 713 q 529 665 493 685 l 574 718 l 656 718 l 543 39 q 438 -156 525 -75 q 181 -236 351 -236 m 268 160 q 358 201 310 160 q 439 285 406 242 l 483 533 q 407 587 454 564 q 315 610 360 610 q 283 603 289 610 q 235 463 256 554 q 214 288 214 371 q 230 188 214 215 q 268 160 246 160 z "},"ġ":{"ha":683,"x_min":-36,"x_max":656,"o":"m 0 0 m 181 -236 q 19 -201 75 -236 q -36 -101 -36 -167 q -11 -26 -36 -71 q 33 25 14 18 l 100 25 l 100 -100 q 163 -130 124 -118 q 239 -142 203 -142 q 324 -125 296 -142 q 366 -73 353 -108 q 393 39 379 -37 q 415 138 406 101 q 439 203 425 174 l 435 206 q 333 89 393 133 q 217 44 272 44 q 97 100 138 44 q 57 264 57 156 q 101 477 57 372 q 215 647 144 582 q 357 713 285 713 q 442 700 397 713 q 529 665 488 688 l 574 718 l 656 718 l 543 39 q 426 -163 522 -90 q 181 -236 329 -236 m 268 160 q 347 194 300 160 q 439 285 393 228 l 483 533 q 397 590 442 569 q 315 610 353 610 q 283 603 289 610 q 235 462 256 554 q 214 288 214 369 q 228 192 214 225 q 268 160 242 160 m 413 799 q 349 824 374 799 q 325 886 325 849 q 352 965 325 931 q 428 999 379 999 q 491 974 467 999 q 515 907 515 949 q 488 831 515 864 q 413 799 461 799 z "},"h":{"ha":744,"x_min":54,"x_max":682,"o":"m 90 878 l 90 951 l 340 978 l 340 858 l 301 610 q 528 714 440 714 q 653 592 653 714 q 640 471 653 550 l 581 111 l 682 111 l 682 36 q 654 23 676 33 q 596 3 632 13 q 519 -7 560 -7 q 445 13 465 -7 q 425 69 425 33 q 432 135 425 93 l 494 474 q 501 544 501 522 q 490 585 501 571 q 451 599 479 599 q 367 580 410 599 q 292 542 324 561 l 210 0 l 54 0 l 204 858 l 90 878 z "},"ħ":{"ha":744,"x_min":54,"x_max":682,"o":"m 519 -7 q 445 13 465 -7 q 425 69 425 33 q 432 135 425 93 l 494 456 q 501 528 501 504 q 490 567 501 554 q 451 581 479 581 q 365 562 410 581 q 292 525 321 543 l 210 0 l 54 0 l 188 756 l 89 756 l 89 849 l 204 849 l 211 885 l 132 914 l 132 956 l 353 978 l 342 875 l 338 849 l 531 849 l 531 756 l 325 756 l 301 592 q 528 696 440 696 q 625 663 597 696 q 653 575 653 631 q 640 454 653 533 l 581 111 l 682 111 l 682 36 q 654 23 676 33 q 596 3 632 13 q 519 -7 560 -7 z "},"ĥ":{"ha":744,"x_min":54,"x_max":682,"o":"m 54 0 m 90 878 l 90 951 l 340 978 l 340 858 l 301 610 q 528 714 440 714 q 653 592 653 714 q 640 471 653 550 l 581 111 l 682 111 l 682 36 q 654 23 676 33 q 596 3 632 13 q 519 -7 560 -7 q 445 13 465 -7 q 425 69 425 33 q 432 135 425 93 l 494 474 q 501 544 501 522 q 490 585 501 571 q 451 599 479 599 q 367 580 410 599 q 292 542 324 561 l 210 0 l 54 0 l 204 858 l 90 878 m 304 1088 l 139 992 l 96 1036 l 229 1165 q 290 1221 269 1204 q 322 1238 310 1238 q 349 1225 336 1238 q 385 1182 361 1213 l 493 1036 l 443 986 l 304 1088 z "},"ḥ":{"ha":744,"x_min":54,"x_max":682,"o":"m 54 0 m 90 878 l 90 951 l 340 978 l 340 858 l 301 610 q 528 714 440 714 q 653 592 653 714 q 640 471 653 550 l 581 111 l 682 111 l 682 36 q 654 23 676 33 q 596 3 632 13 q 519 -7 560 -7 q 445 13 465 -7 q 425 69 425 33 q 432 135 425 93 l 494 474 q 501 544 501 522 q 490 585 501 571 q 451 599 479 599 q 367 580 410 599 q 292 542 324 561 l 210 0 l 54 0 l 204 858 l 90 878 m 293 -256 q 230 -230 254 -256 q 206 -167 206 -204 q 233 -89 206 -122 q 308 -56 260 -56 q 372 -81 347 -56 q 396 -147 396 -106 q 369 -223 396 -190 q 293 -256 342 -256 z "},"i":{"ha":417,"x_min":68,"x_max":358,"o":"m 256 799 q 192 824 215 799 q 168 886 168 849 q 194 965 168 931 q 269 999 221 999 q 333 974 308 999 q 358 907 358 949 q 331 831 358 864 q 256 799 304 799 m 68 601 l 68 675 l 321 701 l 321 578 l 242 111 l 342 111 l 342 36 q 314 22 336 32 q 253 1 292 11 q 171 -10 215 -10 q 104 11 125 -10 q 83 67 83 32 q 90 133 83 92 l 175 578 l 68 601 z "},"ı":{"ha":411,"x_min":60,"x_max":333,"o":"m 60 601 l 60 676 l 313 703 l 313 578 l 233 111 l 333 111 l 333 36 q 306 23 328 33 q 245 3 283 13 q 163 -7 207 -7 q 96 14 117 -7 q 75 69 75 35 q 83 136 75 103 l 167 579 l 60 601 z "},"í":{"ha":411,"x_min":60,"x_max":369,"o":"m 92 821 l 293 1026 q 351 997 333 1018 q 369 947 369 975 q 340 894 369 918 q 267 844 311 871 l 133 769 l 92 821 m 161 -7 q 95 15 117 -7 q 74 69 74 36 q 82 136 74 103 l 165 579 l 60 601 l 60 676 l 311 703 l 311 578 l 232 111 l 332 111 l 332 36 q 304 23 326 33 q 244 3 282 13 q 161 -7 206 -7 z "},"ĭ":{"ha":411,"x_min":60,"x_max":501,"o":"m 60 0 m 60 601 l 60 676 l 313 703 l 313 578 l 233 111 l 333 111 l 333 36 q 306 23 328 33 q 245 3 283 13 q 163 -7 207 -7 q 96 14 117 -7 q 75 69 75 35 q 83 136 75 103 l 167 579 l 60 601 m 247 781 q 151 806 192 781 q 88 867 110 831 q 67 939 67 904 q 81 974 67 960 q 124 994 92 983 q 169 1006 156 1006 q 285 890 186 890 q 369 915 332 890 q 431 969 407 940 q 454 1003 454 999 l 501 979 q 476 919 501 968 q 394 825 450 869 q 247 781 338 781 z "},"ǐ":{"ha":411,"x_min":60,"x_max":482,"o":"m 60 0 m 60 601 l 60 676 l 313 703 l 313 578 l 233 111 l 333 111 l 333 36 q 306 23 328 33 q 245 3 283 13 q 163 -7 207 -7 q 96 14 117 -7 q 75 69 75 35 q 83 136 75 103 l 167 579 l 60 601 m 139 1022 l 276 918 l 442 1017 l 482 972 l 350 846 q 291 790 311 807 q 258 772 271 772 q 235 782 246 772 q 213 806 224 792 q 196 828 201 821 l 86 974 l 139 1022 z "},"î":{"ha":411,"x_min":26,"x_max":414,"o":"m 231 874 l 69 781 l 26 824 l 156 951 q 213 1007 192 989 q 249 1025 235 1025 q 274 1013 263 1025 q 310 969 286 1000 l 414 825 l 364 775 l 231 874 m 163 -7 q 96 14 117 -7 q 75 69 75 35 q 83 136 75 103 l 167 579 l 60 601 l 60 676 l 313 703 l 313 578 l 233 111 l 333 111 l 333 36 q 306 23 328 33 q 245 3 283 13 q 163 -7 207 -7 z "},"ȉ":{"ha":411,"x_min":28,"x_max":439,"o":"m 28 0 m 60 601 l 60 676 l 313 703 l 313 578 l 233 111 l 333 111 l 333 36 q 306 23 328 33 q 245 3 283 13 q 163 -7 207 -7 q 96 14 117 -7 q 75 69 75 35 q 83 136 75 103 l 167 579 l 60 601 m 69 861 q 37 915 46 894 q 28 951 28 935 q 65 1012 28 988 q 150 1033 103 1036 l 206 800 l 142 765 l 69 861 m 303 861 q 272 915 281 894 q 263 951 263 935 q 297 1011 263 988 q 385 1033 331 1035 l 439 800 l 375 765 l 303 861 z "},"ï":{"ha":411,"x_min":28,"x_max":483,"o":"m 107 808 q 50 832 72 808 q 28 889 28 856 q 53 965 28 932 q 126 999 79 999 q 185 976 163 999 q 208 914 208 953 q 181 840 208 872 q 107 808 154 808 m 382 808 q 324 832 347 808 q 301 889 301 856 q 328 965 301 932 q 401 999 354 999 q 460 976 438 999 q 483 914 483 953 q 456 840 483 872 q 382 808 429 808 m 163 -7 q 96 14 117 -7 q 75 69 75 35 q 83 136 75 103 l 167 579 l 60 601 l 60 676 l 313 703 l 313 578 l 233 111 l 333 111 l 333 36 q 306 23 328 33 q 245 3 283 13 q 163 -7 207 -7 z "},"ị":{"ha":417,"x_min":42,"x_max":358,"o":"m 42 0 m 256 799 q 192 824 215 799 q 168 886 168 849 q 194 965 168 931 q 269 999 221 999 q 333 974 308 999 q 358 907 358 949 q 331 831 358 864 q 256 799 304 799 m 68 601 l 68 675 l 321 701 l 321 578 l 242 111 l 342 111 l 342 36 q 314 22 336 32 q 253 1 292 11 q 171 -10 215 -10 q 104 11 125 -10 q 83 67 83 32 q 90 133 83 92 l 175 578 l 68 601 m 129 -256 q 66 -230 90 -256 q 42 -167 42 -204 q 69 -89 42 -122 q 144 -56 96 -56 q 208 -81 183 -56 q 232 -147 232 -106 q 205 -223 232 -190 q 129 -256 178 -256 z "},"ì":{"ha":411,"x_min":60,"x_max":369,"o":"m 194 844 q 120 894 150 869 q 90 947 90 918 q 108 997 90 975 q 167 1026 126 1018 l 369 821 l 328 769 l 194 844 m 60 601 l 60 676 l 313 703 l 313 578 l 233 111 l 333 111 l 333 36 q 306 23 328 33 q 245 3 283 13 q 163 -7 207 -7 q 96 14 117 -7 q 75 69 75 35 q 83 136 75 103 l 167 579 l 60 601 z "},"ỉ":{"ha":411,"x_min":60,"x_max":446,"o":"m 60 0 m 60 601 l 60 676 l 313 703 l 313 578 l 233 111 l 333 111 l 333 36 q 306 23 328 33 q 245 3 283 13 q 163 -7 207 -7 q 96 14 117 -7 q 75 69 75 35 q 83 136 75 103 l 167 579 l 60 601 m 219 744 q 211 783 211 775 q 225 815 211 801 q 275 849 239 828 q 310 872 299 861 q 321 900 321 882 q 267 931 321 931 q 188 919 229 931 q 172 963 172 939 q 197 1003 172 990 q 279 1017 221 1017 q 402 992 358 1017 q 446 918 446 967 q 419 852 446 879 q 346 803 393 825 q 313 783 319 790 q 307 754 307 776 l 219 744 z "},"ȋ":{"ha":411,"x_min":60,"x_max":501,"o":"m 60 0 m 60 601 l 60 676 l 313 703 l 313 578 l 233 111 l 333 111 l 333 36 q 306 23 328 33 q 245 3 283 13 q 163 -7 207 -7 q 96 14 117 -7 q 75 69 75 35 q 83 136 75 103 l 167 579 l 60 601 m 67 807 q 92 867 67 818 q 174 961 118 917 q 319 1006 231 1006 q 417 981 375 1006 q 480 919 458 956 q 501 847 501 882 q 498 826 501 833 q 488 814 494 819 q 445 792 478 803 q 399 782 413 782 q 283 896 382 896 q 199 871 236 896 q 138 817 161 846 q 114 783 114 788 l 67 807 z "},"ĳ":{"ha":771,"x_min":68,"x_max":743,"o":"m 68 0 m 256 799 q 192 824 215 799 q 168 886 168 849 q 194 965 168 931 q 269 999 221 999 q 333 974 308 999 q 358 907 358 949 q 331 831 358 864 q 256 799 304 799 m 68 601 l 68 675 l 321 701 l 321 578 l 242 111 l 342 111 l 342 36 q 314 22 336 32 q 253 1 292 11 q 171 -10 215 -10 q 104 11 125 -10 q 83 67 83 32 q 90 133 83 92 l 175 578 l 68 601 m 654 996 q 718 970 693 996 q 743 903 743 944 q 715 827 743 860 q 639 794 688 794 q 576 820 600 794 q 551 883 551 846 q 578 962 551 928 q 654 996 606 996 m 458 679 l 707 706 l 707 583 l 632 56 q 576 -97 619 -31 q 467 -199 533 -162 q 322 -236 401 -236 q 258 -221 278 -236 q 238 -171 238 -206 q 245 -132 238 -149 q 258 -110 253 -115 l 364 -110 q 413 -105 392 -110 q 438 -94 435 -100 q 479 38 467 -50 l 564 582 l 458 606 l 458 679 z "},"ī":{"ha":411,"x_min":28,"x_max":432,"o":"m 42 949 l 432 949 l 418 844 l 28 844 l 42 949 m 60 601 l 60 676 l 313 703 l 313 578 l 233 111 l 333 111 l 333 36 q 306 23 328 33 q 245 3 283 13 q 163 -7 207 -7 q 96 14 117 -7 q 75 69 75 35 q 83 136 75 103 l 167 579 l 60 601 z "},"į":{"ha":411,"x_min":60,"x_max":357,"o":"m 247 799 q 184 824 208 799 q 160 886 160 849 q 187 965 160 931 q 263 999 214 999 q 326 974 301 999 q 350 907 350 949 q 323 831 350 864 q 247 799 296 799 m 357 -185 q 335 -206 357 -187 q 281 -239 314 -224 q 208 -254 247 -254 q 117 -231 151 -254 q 83 -160 83 -208 q 110 -76 83 -114 q 179 -11 136 -37 l 164 -11 q 97 10 118 -11 q 75 67 75 32 q 83 133 75 100 l 167 579 l 60 601 l 60 676 l 313 703 l 313 578 l 233 111 l 333 111 l 333 36 l 296 18 q 231 -34 261 -1 q 201 -118 201 -67 q 253 -168 201 -168 q 328 -140 286 -168 l 357 -185 z "},"ĩ":{"ha":411,"x_min":39,"x_max":528,"o":"m 39 0 m 60 601 l 60 676 l 313 703 l 313 578 l 233 111 l 333 111 l 333 36 q 306 23 328 33 q 245 3 283 13 q 163 -7 207 -7 q 96 14 117 -7 q 75 69 75 35 q 83 136 75 103 l 167 579 l 60 601 m 385 810 q 283 832 344 810 l 176 869 l 72 819 l 39 857 l 99 928 q 139 969 119 956 q 183 982 158 982 q 268 964 214 982 l 390 922 l 494 972 l 528 933 l 468 864 q 385 810 425 810 z "},"j":{"ha":385,"x_min":-149,"x_max":357,"o":"m 268 996 q 332 970 307 996 q 357 903 357 944 q 329 827 357 860 q 253 794 301 794 q 190 820 214 794 q 165 883 165 846 q 192 962 165 928 q 268 996 219 996 m 72 679 l 321 706 l 321 583 l 246 56 q 190 -97 233 -31 q 81 -199 147 -162 q -64 -236 15 -236 q -128 -221 -108 -236 q -149 -171 -149 -206 q -141 -132 -149 -149 q -128 -110 -133 -115 l -22 -110 q 27 -105 6 -110 q 51 -94 49 -100 q 93 38 81 -50 l 178 582 l 72 606 l 72 679 z "},"ȷ":{"ha":385,"x_min":-149,"x_max":321,"o":"m 321 706 l 321 583 l 246 56 q 190 -97 233 -31 q 81 -199 147 -162 q -64 -236 15 -236 q -128 -221 -108 -236 q -149 -171 -149 -206 q -141 -132 -149 -149 q -128 -110 -133 -115 l -22 -110 q 27 -105 6 -110 q 51 -94 49 -100 q 93 38 81 -50 l 178 582 l 72 606 l 72 679 l 321 706 z "},"ĵ":{"ha":385,"x_min":-149,"x_max":469,"o":"m 0 0 m 321 706 l 321 583 l 246 56 q 190 -97 233 -31 q 81 -199 147 -162 q -64 -236 15 -236 q -128 -221 -108 -236 q -149 -171 -149 -206 q -141 -132 -149 -149 q -128 -110 -133 -115 l -22 -110 q 27 -105 6 -110 q 51 -94 49 -100 q 93 38 81 -50 l 178 582 l 72 606 l 72 679 l 321 706 m 281 874 l 115 778 l 72 822 l 206 951 q 266 1007 246 990 q 299 1024 286 1024 q 325 1011 313 1024 q 361 968 338 999 l 469 822 l 419 772 l 281 874 z "},"k":{"ha":679,"x_min":46,"x_max":653,"o":"m 82 878 l 82 951 l 332 978 l 332 858 l 294 613 q 513 713 429 713 q 617 678 582 713 q 653 581 653 643 q 619 469 653 519 q 542 383 586 418 q 433 306 499 347 l 525 111 l 649 111 l 649 38 q 631 25 649 36 q 583 4 614 14 q 511 -6 553 -6 q 434 8 460 -6 q 393 58 408 22 l 304 263 l 304 311 q 449 435 400 379 q 499 543 499 492 q 485 585 499 571 q 443 599 472 599 q 283 544 381 599 l 201 0 l 46 0 l 196 858 l 82 878 z "},"ķ":{"ha":665,"x_min":39,"x_max":646,"o":"m 76 878 l 76 951 l 325 978 l 325 858 l 288 613 q 506 713 422 713 q 610 678 575 713 q 646 581 646 643 q 613 469 646 519 q 536 383 581 418 q 428 306 492 347 l 518 111 l 642 111 l 642 38 q 624 25 642 36 q 577 4 607 14 q 506 -6 547 -6 q 427 9 454 -6 q 386 58 400 24 l 297 263 l 297 311 q 444 435 394 379 q 493 543 493 492 q 480 585 493 571 q 436 599 467 599 q 278 544 375 599 l 194 0 l 39 0 l 189 858 l 76 878 m 208 -257 q 224 -239 213 -253 q 247 -201 236 -225 q 258 -150 258 -178 q 248 -104 258 -124 q 229 -79 238 -85 q 258 -50 239 -62 q 303 -37 278 -37 q 363 -60 342 -37 q 383 -119 383 -83 q 352 -206 383 -168 q 286 -266 321 -244 q 238 -292 251 -287 l 208 -257 z "},"ĸ":{"ha":699,"x_min":65,"x_max":672,"o":"m 544 111 l 668 111 l 668 38 q 651 25 668 36 q 603 4 633 14 q 531 -6 572 -6 q 453 8 479 -6 q 413 58 428 22 l 324 263 l 324 311 q 519 544 519 449 q 463 599 519 599 q 308 540 401 599 l 221 0 l 65 0 l 172 579 l 65 603 l 65 676 l 318 703 l 318 610 q 428 681 372 650 q 536 713 483 713 q 638 677 603 713 q 672 581 672 642 q 639 469 672 519 q 562 383 606 418 q 453 306 518 347 l 544 111 z "},"l":{"ha":393,"x_min":72,"x_max":344,"o":"m 94 882 l 94 951 l 344 978 l 344 858 l 228 111 l 328 111 l 328 36 q 301 22 322 32 q 244 1 279 11 q 168 -8 208 -8 q 92 12 113 -8 q 72 69 72 32 q 79 133 72 92 l 208 858 l 94 882 z "},"ĺ":{"ha":383,"x_min":65,"x_max":407,"o":"m 82 1031 l 364 1185 q 395 1154 383 1174 q 407 1114 407 1135 q 393 1065 407 1081 q 339 1038 379 1049 l 107 971 l 82 1031 m 161 -8 q 86 13 107 -8 q 65 69 65 33 q 72 133 65 92 l 201 858 l 88 882 l 88 951 l 339 981 l 339 858 l 221 111 l 321 111 l 321 36 q 294 22 315 32 q 237 1 272 11 q 161 -8 201 -8 z "},"ľ":{"ha":383,"x_min":65,"x_max":533,"o":"m 374 796 q 386 815 376 800 q 405 855 396 829 q 414 911 414 881 q 397 975 414 947 q 464 1017 421 1017 q 516 997 499 1017 q 533 947 533 978 q 404 763 533 840 l 374 796 m 88 882 l 88 951 l 339 978 l 339 858 l 221 111 l 321 111 l 321 36 q 294 22 315 32 q 237 1 272 11 q 161 -8 201 -8 q 86 13 107 -8 q 65 69 65 33 q 72 133 65 92 l 201 858 l 88 882 z "},"ļ":{"ha":383,"x_min":43,"x_max":328,"o":"m 78 882 l 78 951 l 328 978 l 328 858 l 211 111 l 311 111 l 311 36 q 284 22 306 32 q 227 1 263 11 q 151 -8 192 -8 q 76 12 96 -8 q 56 69 56 32 q 63 133 56 106 l 192 858 l 78 882 m 43 -257 q 60 -239 47 -253 q 83 -201 72 -225 q 94 -150 94 -178 q 84 -106 94 -125 q 65 -79 74 -87 q 94 -50 75 -62 q 138 -37 113 -37 q 197 -60 176 -37 q 218 -119 218 -82 q 164 -233 218 -189 q 74 -292 110 -276 l 43 -257 z "},"ŀ":{"ha":393,"x_min":72,"x_max":506,"o":"m 72 0 m 94 882 l 94 951 l 344 978 l 344 858 l 228 111 l 328 111 l 328 36 q 301 22 322 32 q 244 1 279 11 q 168 -8 208 -8 q 92 12 113 -8 q 72 69 72 32 q 79 133 72 92 l 208 858 l 94 882 m 399 424 q 340 446 363 424 q 318 504 318 468 q 347 586 318 551 q 425 621 375 621 q 483 599 461 621 q 506 540 506 576 q 476 458 506 492 q 399 424 447 424 z "},"ǉ":{"ha":778,"x_min":72,"x_max":750,"o":"m 72 0 m 94 882 l 94 951 l 344 978 l 344 858 l 228 111 l 328 111 l 328 36 q 301 22 322 32 q 244 1 279 11 q 168 -8 208 -8 q 92 12 113 -8 q 72 69 72 32 q 79 133 72 92 l 208 858 l 94 882 m 661 996 q 725 970 700 996 q 750 903 750 944 q 722 827 750 860 q 646 794 694 794 q 583 820 607 794 q 558 883 558 846 q 585 962 558 928 q 661 996 613 996 m 465 679 l 714 706 l 714 583 l 639 56 q 583 -97 626 -31 q 474 -199 540 -162 q 329 -236 408 -236 q 265 -221 285 -236 q 244 -171 244 -206 q 252 -132 244 -149 q 265 -110 260 -115 l 371 -110 q 420 -105 399 -110 q 444 -94 442 -100 q 486 38 474 -50 l 571 582 l 465 606 l 465 679 z "},"ł":{"ha":376,"x_min":-17,"x_max":418,"o":"m -17 329 l -17 417 l 133 476 l 201 858 l 88 882 l 88 951 l 339 978 l 339 858 l 288 539 l 418 592 l 418 500 l 272 443 l 221 111 l 321 111 l 321 36 q 294 22 315 32 q 237 1 272 11 q 161 -8 201 -8 q 86 13 107 -8 q 65 69 65 33 q 72 133 65 92 l 115 382 l -17 329 z "},"m":{"ha":1111,"x_min":67,"x_max":1047,"o":"m 69 601 l 69 676 l 321 703 l 321 608 q 543 714 460 714 q 638 685 611 714 q 668 606 665 656 q 787 682 725 650 q 899 714 849 714 q 994 684 967 714 q 1021 603 1021 654 q 1007 479 1021 572 l 949 111 l 1047 111 l 1047 36 q 1022 23 1042 33 q 968 3 1003 13 q 893 -7 933 -7 q 812 13 832 -7 q 792 69 792 32 q 799 135 792 107 l 858 469 q 868 550 868 528 q 856 585 868 571 q 817 599 843 599 q 740 580 783 599 q 664 540 697 561 l 656 479 l 579 0 l 425 0 l 508 469 q 517 550 517 519 q 505 585 517 571 q 467 599 493 599 q 366 570 418 599 q 310 539 314 542 l 225 0 l 67 0 l 175 579 l 69 601 z "},"n":{"ha":763,"x_min":65,"x_max":699,"o":"m 65 603 l 65 676 l 318 703 l 318 608 q 546 713 456 713 q 672 593 672 713 q 658 471 672 558 l 597 111 l 699 111 l 699 36 q 672 23 693 33 q 614 3 650 13 q 538 -7 578 -7 q 463 13 482 -7 q 443 69 443 33 q 450 135 443 93 l 513 474 q 521 546 521 513 q 469 599 521 599 q 387 581 426 599 q 308 542 347 564 l 225 0 l 65 0 l 172 579 l 65 603 z "},"ń":{"ha":763,"x_min":68,"x_max":701,"o":"m 347 821 l 550 1026 q 608 997 590 1018 q 626 947 626 975 q 597 894 626 918 q 522 844 567 869 l 389 769 l 347 821 m 540 -7 q 465 13 485 -7 q 446 69 446 33 q 453 135 446 107 l 515 474 q 524 546 524 513 q 472 599 524 599 q 390 581 429 599 q 311 542 350 564 l 228 0 l 68 0 l 175 579 l 68 603 l 68 676 l 321 703 l 321 608 q 549 713 458 713 q 675 593 675 713 q 661 471 675 558 l 600 111 l 701 111 l 701 36 q 674 23 696 33 q 617 3 653 13 q 540 -7 581 -7 z "},"ŉ":{"ha":833,"x_min":65,"x_max":699,"o":"m 65 0 m 81 796 q 93 815 83 800 q 112 855 103 829 q 121 911 121 881 q 104 975 121 947 q 171 1017 128 1017 q 223 997 206 1017 q 240 947 240 978 q 111 763 240 840 l 81 796 m 65 603 l 65 676 l 318 703 l 318 608 q 546 713 456 713 q 672 593 672 713 q 658 471 672 558 l 597 111 l 699 111 l 699 36 q 672 23 693 33 q 614 3 650 13 q 538 -7 578 -7 q 463 13 482 -7 q 443 69 443 33 q 450 135 443 93 l 513 474 q 521 546 521 513 q 469 599 521 599 q 387 581 426 599 q 308 542 347 564 l 225 0 l 65 0 l 172 579 l 65 603 z "},"ň":{"ha":763,"x_min":68,"x_max":701,"o":"m 317 1022 l 454 918 l 619 1017 l 661 972 l 529 846 q 468 789 488 806 q 436 772 449 772 q 413 782 424 772 q 390 806 401 792 q 374 828 379 821 l 264 974 l 317 1022 m 68 603 l 68 676 l 321 703 l 321 608 q 549 713 458 713 q 675 593 675 713 q 661 471 675 558 l 600 111 l 701 111 l 701 36 q 674 23 696 33 q 617 3 653 13 q 540 -7 581 -7 q 465 13 485 -7 q 446 69 446 33 q 453 135 446 107 l 515 474 q 524 546 524 513 q 472 599 524 599 q 390 581 429 599 q 311 542 350 564 l 228 0 l 68 0 l 175 579 l 68 603 z "},"ņ":{"ha":763,"x_min":68,"x_max":701,"o":"m 68 603 l 68 676 l 321 703 l 321 608 q 549 713 458 713 q 675 593 675 713 q 661 471 675 558 l 600 111 l 701 111 l 701 36 q 674 23 696 33 q 617 3 653 13 q 540 -7 581 -7 q 465 13 485 -7 q 446 69 446 33 q 453 135 446 107 l 515 474 q 524 546 524 513 q 472 599 524 599 q 390 581 429 599 q 311 542 350 564 l 228 0 l 68 0 l 175 579 l 68 603 m 243 -257 q 260 -239 247 -253 q 283 -201 272 -225 q 294 -150 294 -178 q 284 -106 294 -125 q 265 -79 274 -87 q 294 -50 275 -62 q 338 -37 313 -37 q 398 -60 376 -37 q 419 -119 419 -83 q 365 -233 419 -189 q 274 -292 311 -276 l 243 -257 z "},"ṅ":{"ha":763,"x_min":65,"x_max":699,"o":"m 65 0 m 65 603 l 65 676 l 318 703 l 318 608 q 546 713 456 713 q 672 593 672 713 q 658 471 672 558 l 597 111 l 699 111 l 699 36 q 672 23 693 33 q 614 3 650 13 q 538 -7 578 -7 q 463 13 482 -7 q 443 69 443 33 q 450 135 443 93 l 513 474 q 521 546 521 513 q 469 599 521 599 q 387 581 426 599 q 308 542 347 564 l 225 0 l 65 0 l 172 579 l 65 603 m 453 799 q 390 824 414 799 q 365 886 365 849 q 392 965 365 931 q 468 999 419 999 q 531 974 507 999 q 556 907 556 949 q 528 831 556 864 q 453 799 501 799 z "},"ŋ":{"ha":738,"x_min":65,"x_max":672,"o":"m 288 -236 q 224 -221 243 -236 q 204 -171 204 -206 q 210 -136 204 -154 q 224 -110 217 -118 l 331 -110 q 377 -106 356 -110 q 404 -94 399 -101 q 446 38 432 -53 l 515 485 q 521 546 521 535 q 469 599 521 599 q 388 581 432 599 q 308 542 344 563 l 225 0 l 65 0 l 172 579 l 65 603 l 65 676 l 318 703 l 318 608 q 546 713 456 713 q 672 593 672 713 q 658 471 672 568 l 599 56 q 543 -97 586 -31 q 433 -199 500 -162 q 288 -236 367 -236 z "},"ɲ":{"ha":771,"x_min":-149,"x_max":707,"o":"m 707 111 l 707 36 q 680 23 701 33 q 622 3 658 13 q 546 -7 586 -7 q 472 13 492 -7 q 451 69 451 33 q 458 135 451 93 l 521 474 q 529 546 529 513 q 478 599 529 599 q 318 542 411 599 l 246 56 q 190 -97 233 -31 q 81 -199 147 -162 q -64 -236 15 -236 q -128 -221 -108 -236 q -149 -171 -149 -206 q -140 -128 -149 -147 q -128 -110 -131 -110 l -22 -110 q 27 -105 6 -110 q 51 -94 49 -100 q 93 38 81 -50 l 181 579 l 74 603 l 74 676 l 328 703 l 328 608 q 554 713 465 713 q 682 593 682 713 q 675 521 682 564 q 667 471 668 478 l 607 111 l 707 111 z "},"ǌ":{"ha":1147,"x_min":65,"x_max":1119,"o":"m 65 0 m 65 603 l 65 676 l 318 703 l 318 608 q 546 713 456 713 q 672 593 672 713 q 658 471 672 558 l 597 111 l 699 111 l 699 36 q 672 23 693 33 q 614 3 650 13 q 538 -7 578 -7 q 463 13 482 -7 q 443 69 443 33 q 450 135 443 93 l 513 474 q 521 546 521 513 q 469 599 521 599 q 387 581 426 599 q 308 542 347 564 l 225 0 l 65 0 l 172 579 l 65 603 m 1031 996 q 1094 970 1069 996 q 1119 903 1119 944 q 1092 827 1119 860 q 1015 794 1064 794 q 952 820 976 794 q 928 883 928 846 q 955 962 928 928 q 1031 996 982 996 m 835 679 l 1083 706 l 1083 583 l 1008 56 q 953 -97 996 -31 q 844 -199 910 -162 q 699 -236 778 -236 q 634 -221 654 -236 q 614 -171 614 -206 q 622 -132 614 -149 q 635 -110 629 -115 l 740 -110 q 790 -105 768 -110 q 814 -94 811 -100 q 856 38 843 -50 l 940 582 l 835 606 l 835 679 z "},"ñ":{"ha":765,"x_min":67,"x_max":700,"o":"m 546 818 q 444 840 506 818 l 338 878 l 233 828 l 200 865 l 260 936 q 300 977 281 964 q 344 990 319 990 q 429 972 375 990 l 551 929 l 656 981 l 689 942 l 629 872 q 546 818 586 818 m 539 -7 q 465 13 485 -7 q 444 69 444 33 q 451 135 444 93 l 514 474 q 522 546 522 513 q 471 599 522 599 q 311 542 404 599 l 226 0 l 67 0 l 174 579 l 68 603 l 68 676 l 321 703 l 321 608 q 547 713 458 713 q 675 593 675 713 q 668 521 675 564 q 660 471 661 478 l 600 111 l 700 111 l 700 36 q 673 23 694 33 q 615 3 651 13 q 539 -7 579 -7 z "},"o":{"ha":656,"x_min":42,"x_max":613,"o":"m 269 -14 q 100 47 158 -14 q 42 226 42 107 q 85 476 42 365 q 208 649 129 586 q 386 713 286 713 q 556 652 499 713 q 613 467 613 592 q 572 225 613 335 q 454 51 532 115 q 269 -14 376 -14 m 317 79 q 392 96 381 79 q 434 226 415 136 q 453 431 453 317 q 442 550 453 510 q 409 604 432 590 q 343 618 386 618 q 300 613 321 618 q 271 600 279 608 q 243 541 260 589 q 214 422 226 493 q 201 271 201 350 q 226 122 201 165 q 317 79 250 79 z "},"ó":{"ha":656,"x_min":42,"x_max":613,"o":"m 258 821 l 461 1026 q 519 997 501 1018 q 538 947 538 975 q 508 894 538 918 q 433 844 478 869 l 300 769 l 258 821 m 269 -14 q 100 47 158 -14 q 42 226 42 107 q 85 476 42 365 q 208 649 129 586 q 386 713 286 713 q 556 652 499 713 q 613 467 613 592 q 572 225 613 335 q 454 51 532 115 q 269 -14 376 -14 m 317 79 q 392 96 381 79 q 434 226 415 136 q 453 431 453 317 q 442 550 453 510 q 409 604 432 590 q 343 618 386 618 q 300 613 321 618 q 271 600 279 608 q 243 541 260 589 q 214 422 226 493 q 201 271 201 350 q 226 122 201 165 q 317 79 250 79 z "},"ŏ":{"ha":656,"x_min":42,"x_max":632,"o":"m 42 0 m 269 -14 q 100 47 158 -14 q 42 226 42 107 q 85 476 42 365 q 208 649 129 586 q 386 713 286 713 q 556 652 499 713 q 613 467 613 592 q 572 225 613 335 q 454 51 532 115 q 269 -14 376 -14 m 317 79 q 392 96 381 79 q 434 226 415 136 q 453 431 453 317 q 442 550 453 510 q 409 604 432 590 q 343 618 386 618 q 300 613 321 618 q 271 600 279 608 q 243 541 260 589 q 214 422 226 493 q 201 271 201 350 q 226 122 201 165 q 317 79 250 79 m 378 781 q 281 806 322 781 q 219 867 240 831 q 197 939 197 904 q 211 974 197 960 q 254 994 222 983 q 300 1006 286 1006 q 415 890 317 890 q 500 915 463 890 q 561 969 538 940 q 585 1003 585 999 l 632 979 q 606 919 632 968 q 524 825 581 869 q 378 781 468 781 z "},"ǒ":{"ha":656,"x_min":42,"x_max":613,"o":"m 42 0 m 269 -14 q 100 47 158 -14 q 42 226 42 107 q 85 476 42 365 q 208 649 129 586 q 386 713 286 713 q 556 652 499 713 q 613 467 613 592 q 572 225 613 335 q 454 51 532 115 q 269 -14 376 -14 m 317 79 q 392 96 381 79 q 434 226 415 136 q 453 431 453 317 q 442 550 453 510 q 409 604 432 590 q 343 618 386 618 q 300 613 321 618 q 271 600 279 608 q 243 541 260 589 q 214 422 226 493 q 201 271 201 350 q 226 122 201 165 q 317 79 250 79 m 269 1022 l 407 918 l 572 1017 l 613 972 l 481 846 q 422 790 442 807 q 389 772 401 772 q 365 782 376 772 q 343 806 354 792 q 326 828 332 821 l 217 974 l 269 1022 z "},"ô":{"ha":656,"x_min":42,"x_max":613,"o":"m 396 874 l 231 778 l 189 822 l 321 951 q 381 1007 361 990 q 414 1024 401 1024 q 440 1011 428 1024 q 476 968 453 999 l 585 822 l 536 772 l 396 874 m 269 -14 q 100 47 158 -14 q 42 226 42 107 q 85 476 42 365 q 208 649 129 586 q 386 713 286 713 q 556 652 499 713 q 613 467 613 592 q 572 225 613 335 q 454 51 532 115 q 269 -14 376 -14 m 317 79 q 392 96 381 79 q 434 226 415 136 q 453 431 453 317 q 442 550 453 510 q 409 604 432 590 q 343 618 386 618 q 300 613 321 618 q 271 600 279 608 q 243 541 260 589 q 214 422 226 493 q 201 271 201 350 q 226 122 201 165 q 317 79 250 79 z "},"ố":{"ha":656,"x_min":42,"x_max":738,"o":"m 42 0 m 269 -14 q 100 47 158 -14 q 42 226 42 107 q 85 476 42 365 q 208 649 129 586 q 386 713 286 713 q 556 652 499 713 q 613 467 613 592 q 572 225 613 335 q 454 51 532 115 q 269 -14 376 -14 m 317 79 q 392 96 381 79 q 434 226 415 136 q 453 431 453 317 q 442 550 453 510 q 409 604 432 590 q 343 618 386 618 q 300 613 321 618 q 271 600 279 608 q 243 541 260 589 q 214 422 226 493 q 201 271 201 350 q 226 122 201 165 q 317 79 250 79 m 360 874 l 194 778 l 151 822 l 285 951 q 345 1007 325 990 q 378 1024 365 1024 q 404 1011 392 1024 q 440 968 417 999 l 549 822 l 499 772 l 360 874 m 458 1013 l 661 1218 q 719 1188 701 1210 q 738 1139 738 1167 q 713 1089 738 1110 q 633 1036 689 1068 l 500 961 l 458 1013 z "},"ộ":{"ha":656,"x_min":42,"x_max":613,"o":"m 42 0 m 269 -14 q 100 47 158 -14 q 42 226 42 107 q 85 476 42 365 q 208 649 129 586 q 386 713 286 713 q 556 652 499 713 q 613 467 613 592 q 572 225 613 335 q 454 51 532 115 q 269 -14 376 -14 m 317 79 q 392 96 381 79 q 434 226 415 136 q 453 431 453 317 q 442 550 453 510 q 409 604 432 590 q 343 618 386 618 q 300 613 321 618 q 271 600 279 608 q 243 541 260 589 q 214 422 226 493 q 201 271 201 350 q 226 122 201 165 q 317 79 250 79 m 249 -256 q 185 -230 210 -256 q 161 -167 161 -204 q 188 -89 161 -122 q 264 -56 215 -56 q 327 -81 303 -56 q 351 -147 351 -106 q 324 -223 351 -190 q 249 -256 297 -256 m 411 874 l 246 778 l 203 822 l 336 951 q 397 1007 376 990 q 429 1024 417 1024 q 456 1011 443 1024 q 492 968 468 999 l 600 822 l 550 772 l 411 874 z "},"ồ":{"ha":656,"x_min":42,"x_max":664,"o":"m 42 0 m 269 -14 q 100 47 158 -14 q 42 226 42 107 q 85 476 42 365 q 208 649 129 586 q 386 713 286 713 q 556 652 499 713 q 613 467 613 592 q 572 225 613 335 q 454 51 532 115 q 269 -14 376 -14 m 317 79 q 392 96 381 79 q 434 226 415 136 q 453 431 453 317 q 442 550 453 510 q 409 604 432 590 q 343 618 386 618 q 300 613 321 618 q 271 600 279 608 q 243 541 260 589 q 214 422 226 493 q 201 271 201 350 q 226 122 201 165 q 317 79 250 79 m 399 874 l 233 778 l 190 822 l 324 951 q 384 1007 364 990 q 417 1024 404 1024 q 443 1011 431 1024 q 479 968 456 999 l 588 822 l 538 772 l 399 874 m 489 1036 q 410 1088 435 1067 q 386 1139 386 1110 q 403 1188 386 1167 q 461 1218 421 1210 l 664 1013 l 622 961 l 489 1036 z "},"ổ":{"ha":656,"x_min":42,"x_max":747,"o":"m 42 0 m 269 -14 q 100 47 158 -14 q 42 226 42 107 q 85 476 42 365 q 208 649 129 586 q 386 713 286 713 q 556 652 499 713 q 613 467 613 592 q 572 225 613 335 q 454 51 532 115 q 269 -14 376 -14 m 317 79 q 392 96 381 79 q 434 226 415 136 q 453 431 453 317 q 442 550 453 510 q 409 604 432 590 q 343 618 386 618 q 300 613 321 618 q 271 600 279 608 q 243 541 260 589 q 214 422 226 493 q 201 271 201 350 q 226 122 201 165 q 317 79 250 79 m 372 874 l 207 778 l 164 822 l 297 951 q 358 1007 338 990 q 390 1024 378 1024 q 417 1011 404 1024 q 453 968 429 999 l 561 822 l 511 772 l 372 874 m 521 936 q 513 975 513 967 q 526 1006 513 993 q 576 1040 540 1019 q 611 1063 600 1053 q 622 1092 622 1074 q 568 1122 622 1122 q 489 1111 531 1122 q 474 1154 474 1131 q 498 1195 474 1182 q 581 1208 522 1208 q 703 1183 660 1208 q 747 1110 747 1158 q 721 1044 747 1071 q 647 994 694 1017 q 615 975 621 982 q 608 946 608 968 l 521 936 z "},"ỗ":{"ha":656,"x_min":42,"x_max":676,"o":"m 533 1076 q 432 1096 493 1076 l 325 1131 l 221 1085 l 188 1119 l 247 1185 q 288 1222 268 1210 q 332 1233 307 1233 q 417 1217 367 1233 l 539 1179 l 643 1225 l 676 1189 l 617 1126 q 533 1076 574 1076 m 394 874 l 229 778 l 186 822 l 319 951 q 380 1007 360 990 q 413 1024 400 1024 q 439 1011 426 1024 q 475 968 451 999 l 583 822 l 533 772 l 394 874 m 269 -14 q 100 47 158 -14 q 42 226 42 107 q 85 476 42 365 q 208 649 129 586 q 386 713 286 713 q 556 652 499 713 q 613 467 613 592 q 572 225 613 335 q 454 51 532 115 q 269 -14 376 -14 m 317 79 q 392 96 381 79 q 434 226 415 136 q 453 431 453 317 q 442 550 453 510 q 409 604 432 590 q 343 618 386 618 q 300 613 321 618 q 271 600 279 608 q 243 541 260 589 q 214 422 226 493 q 201 271 201 350 q 226 122 201 165 q 317 79 250 79 z "}}}
